[{"id":"rh-0","t":0.25,"dur":0.23,"midi":72,"vel":0.72},{"id":"rh-1","t":0.5,"dur":0.23,"midi":74,"vel":0.72},{"id":"rh-2","t":0.75,"dur":0.23,"midi":76,"vel":0.72},{"id":"rh-3","t":1,"dur":0.23,"midi":77,"vel":0.72},{"id":"rh-4","t":1.25,"dur":0.23,"midi":74,"vel":0.72},{"id":"rh-5","t":1.5,"dur":0.23,"midi":76,"vel":0.72},{"id":"rh-6","t":1.75,"dur":0.23,"midi":72,"vel":0.72},{"id":"rh-7","t":2,"dur":0.46,"midi":79,"vel":0.72},{"id":"lh-0","t":2.25,"dur":0.23,"midi":48,"vel":0.52},{"id":"lh-1","t":2.5,"dur":0.23,"midi":50,"vel":0.52},{"id":"rh-8","t":2.5,"dur":0.46,"midi":84,"vel":0.72},{"id":"lh-2","t":2.75,"dur":0.23,"midi":52,"vel":0.52},{"id":"lh-3","t":3,"dur":0.23,"midi":53,"vel":0.52},{"id":"rh-9","t":3,"dur":0.076667,"midi":84,"vel":0.72},{"id":"rh-10","t":3.083333,"dur":0.076667,"midi":83,"vel":0.72},{"id":"rh-11","t":3.166667,"dur":0.076667,"midi":84,"vel":0.72},{"id":"lh-4","t":3.25,"dur":0.23,"midi":50,"vel":0.52},{"id":"rh-12","t":3.25,"dur":0.23,"midi":83,"vel":0.72},{"id":"lh-5","t":3.5,"dur":0.23,"midi":52,"vel":0.52},{"id":"rh-13","t":3.5,"dur":0.46,"midi":84,"vel":0.72},{"id":"lh-6","t":3.75,"dur":0.23,"midi":48,"vel":0.52},{"id":"lh-7","t":4,"dur":0.46,"midi":55,"vel":0.52},{"id":"rh-14","t":4,"dur":0.23,"midi":86,"vel":0.72},{"id":"rh-15","t":4.25,"dur":0.23,"midi":79,"vel":0.72},{"id":"lh-8","t":4.5,"dur":0.46,"midi":43,"vel":0.52},{"id":"rh-16","t":4.5,"dur":0.23,"midi":81,"vel":0.72},{"id":"rh-17","t":4.75,"dur":0.23,"midi":83,"vel":0.72},{"id":"rh-18","t":5,"dur":0.23,"midi":84,"vel":0.72},{"id":"rh-19","t":5.25,"dur":0.23,"midi":81,"vel":0.72},{"id":"rh-20","t":5.5,"dur":0.23,"midi":83,"vel":0.72},{"id":"rh-21","t":5.75,"dur":0.23,"midi":79,"vel":0.72},{"id":"rh-22","t":6,"dur":0.46,"midi":86,"vel":0.72},{"id":"lh-9","t":6.25,"dur":0.23,"midi":55,"vel":0.52},{"id":"lh-10","t":6.5,"dur":0.23,"midi":57,"vel":0.52},{"id":"rh-23","t":6.5,"dur":0.46,"midi":91,"vel":0.72},{"id":"lh-11","t":6.75,"dur":0.23,"midi":59,"vel":0.52},{"id":"lh-12","t":7,"dur":0.23,"midi":60,"vel":0.52},{"id":"rh-24","t":7,"dur":0.076667,"midi":91,"vel":0.72},{"id":"rh-25","t":7.083333,"dur":0.076667,"midi":89,"vel":0.72},{"id":"rh-26","t":7.166667,"dur":0.076667,"midi":91,"vel":0.72},{"id":"lh-13","t":7.25,"dur":0.23,"midi":57,"vel":0.52},{"id":"rh-27","t":7.25,"dur":0.23,"midi":89,"vel":0.72},{"id":"lh-14","t":7.5,"dur":0.23,"midi":59,"vel":0.52},{"id":"rh-28","t":7.5,"dur":0.46,"midi":91,"vel":0.72},{"id":"lh-15","t":7.75,"dur":0.23,"midi":55,"vel":0.52},{"id":"lh-16","t":8,"dur":0.46,"midi":60,"vel":0.52},{"id":"rh-29","t":8,"dur":0.23,"midi":88,"vel":0.72},{"id":"rh-30","t":8.25,"dur":0.23,"midi":93,"vel":0.72},{"id":"lh-17","t":8.5,"dur":0.46,"midi":59,"vel":0.52},{"id":"rh-31","t":8.5,"dur":0.23,"midi":91,"vel":0.72},{"id":"rh-32","t":8.75,"dur":0.23,"midi":89,"vel":0.72},{"id":"lh-18","t":9,"dur":0.46,"midi":60,"vel":0.52},{"id":"rh-33","t":9,"dur":0.23,"midi":88,"vel":0.72},{"id":"rh-34","t":9.25,"dur":0.23,"midi":91,"vel":0.72},{"id":"lh-19","t":9.5,"dur":0.46,"midi":62,"vel":0.52},{"id":"rh-35","t":9.5,"dur":0.23,"midi":89,"vel":0.72},{"id":"rh-36","t":9.75,"dur":0.23,"midi":93,"vel":0.72},{"id":"lh-20","t":10,"dur":0.46,"midi":64,"vel":0.52},{"id":"rh-37","t":10,"dur":0.23,"midi":91,"vel":0.72},{"id":"rh-38","t":10.25,"dur":0.23,"midi":89,"vel":0.72},{"id":"lh-21","t":10.5,"dur":0.46,"midi":55,"vel":0.52},{"id":"rh-39","t":10.5,"dur":0.23,"midi":88,"vel":0.72},{"id":"rh-40","t":10.75,"dur":0.23,"midi":86,"vel":0.72},{"id":"lh-22","t":11,"dur":0.46,"midi":57,"vel":0.52},{"id":"rh-41","t":11,"dur":0.23,"midi":84,"vel":0.72},{"id":"rh-42","t":11.25,"dur":0.23,"midi":88,"vel":0.72},{"id":"lh-23","t":11.5,"dur":0.46,"midi":59,"vel":0.52},{"id":"rh-43","t":11.5,"dur":0.23,"midi":86,"vel":0.72},{"id":"rh-44","t":11.75,"dur":0.23,"midi":89,"vel":0.72},{"id":"lh-24","t":12,"dur":0.46,"midi":60,"vel":0.52},{"id":"rh-45","t":12,"dur":0.23,"midi":88,"vel":0.72},{"id":"rh-46","t":12.25,"dur":0.23,"midi":86,"vel":0.72},{"id":"lh-25","t":12.5,"dur":0.46,"midi":52,"vel":0.52},{"id":"rh-47","t":12.5,"dur":0.23,"midi":84,"vel":0.72},{"id":"rh-48","t":12.75,"dur":0.23,"midi":83,"vel":0.72},{"id":"lh-26","t":13,"dur":0.46,"midi":54,"vel":0.52},{"id":"rh-49","t":13,"dur":0.23,"midi":81,"vel":0.72},{"id":"rh-50","t":13.25,"dur":0.23,"midi":84,"vel":0.72},{"id":"lh-27","t":13.5,"dur":0.46,"midi":55,"vel":0.52},{"id":"rh-51","t":13.5,"dur":0.23,"midi":83,"vel":0.72},{"id":"rh-52","t":13.75,"dur":0.23,"midi":86,"vel":0.72},{"id":"lh-28","t":14,"dur":0.46,"midi":57,"vel":0.52},{"id":"rh-53","t":14,"dur":0.23,"midi":84,"vel":0.72},{"id":"rh-54","t":14.25,"dur":0.23,"midi":83,"vel":0.72},{"id":"lh-29","t":14.5,"dur":0.46,"midi":59,"vel":0.52},{"id":"rh-55","t":14.5,"dur":0.23,"midi":81,"vel":0.72},{"id":"rh-56","t":14.75,"dur":0.23,"midi":79,"vel":0.72},{"id":"lh-30","t":15,"dur":1.111667,"midi":60,"vel":0.52},{"id":"rh-57","t":15,"dur":0.23,"midi":78,"vel":0.72},{"id":"rh-58","t":15.25,"dur":0.23,"midi":81,"vel":0.72},{"id":"rh-59","t":15.5,"dur":0.23,"midi":79,"vel":0.72},{"id":"rh-60","t":15.75,"dur":0.23,"midi":83,"vel":0.72},{"id":"rh-61","t":16,"dur":0.46,"midi":81,"vel":0.72},{"id":"lh-31","t":16.25,"dur":0.23,"midi":50,"vel":0.52},{"id":"lh-32","t":16.5,"dur":0.23,"midi":52,"vel":0.52},{"id":"rh-62","t":16.5,"dur":0.46,"midi":74,"vel":0.72},{"id":"lh-33","t":16.75,"dur":0.23,"midi":54,"vel":0.52},{"id":"lh-34","t":17,"dur":0.23,"midi":55,"vel":0.52},{"id":"rh-63","t":17,"dur":0.115,"midi":84,"vel":0.72},{"id":"rh-64","t":17.125,"dur":0.115,"midi":83,"vel":0.72},{"id":"lh-35","t":17.25,"dur":0.23,"midi":52,"vel":0.52},{"id":"rh-65","t":17.25,"dur":0.46,"midi":84,"vel":0.72},{"id":"lh-36","t":17.5,"dur":0.23,"midi":54,"vel":0.52},{"id":"lh-37","t":17.75,"dur":0.23,"midi":50,"vel":0.52},{"id":"rh-66","t":17.75,"dur":0.23,"midi":86,"vel":0.72},{"id":"lh-38","t":18,"dur":0.46,"midi":55,"vel":0.52},{"id":"rh-67","t":18,"dur":0.23,"midi":83,"vel":0.72},{"id":"rh-68","t":18.25,"dur":0.23,"midi":81,"vel":0.72},{"id":"lh-39","t":18.5,"dur":0.46,"midi":47,"vel":0.52},{"id":"rh-69","t":18.5,"dur":0.23,"midi":79,"vel":0.72},{"id":"rh-70","t":18.75,"dur":0.23,"midi":78,"vel":0.72},{"id":"lh-40","t":19,"dur":0.46,"midi":48,"vel":0.52},{"id":"rh-71","t":19,"dur":0.23,"midi":76,"vel":0.72},{"id":"rh-72","t":19.25,"dur":0.23,"midi":79,"vel":0.72},{"id":"lh-41","t":19.5,"dur":0.46,"midi":50,"vel":0.52},{"id":"rh-73","t":19.5,"dur":0.23,"midi":78,"vel":0.72},{"id":"rh-74","t":19.75,"dur":0.23,"midi":81,"vel":0.72},{"id":"lh-42","t":20,"dur":0.46,"midi":52,"vel":0.52},{"id":"rh-75","t":20,"dur":0.23,"midi":79,"vel":0.72},{"id":"rh-76","t":20.25,"dur":0.23,"midi":83,"vel":0.72},{"id":"lh-43","t":20.5,"dur":0.46,"midi":54,"vel":0.52},{"id":"rh-77","t":20.5,"dur":0.23,"midi":81,"vel":0.72},{"id":"rh-78","t":20.75,"dur":0.23,"midi":84,"vel":0.72},{"id":"lh-44","t":21,"dur":0.46,"midi":55,"vel":0.52},{"id":"rh-79","t":21,"dur":0.23,"midi":83,"vel":0.72},{"id":"rh-80","t":21.25,"dur":0.23,"midi":86,"vel":0.72},{"id":"lh-45","t":21.5,"dur":0.46,"midi":52,"vel":0.52},{"id":"rh-81","t":21.5,"dur":0.23,"midi":84,"vel":0.72},{"id":"rh-82","t":21.75,"dur":0.23,"midi":88,"vel":0.72},{"id":"lh-46","t":22,"dur":0.69,"midi":47,"vel":0.52},{"id":"rh-83","t":22,"dur":0.23,"midi":86,"vel":0.72},{"id":"rh-84","t":22.25,"dur":0.115,"midi":83,"vel":0.72},{"id":"rh-85","t":22.375,"dur":0.115,"midi":84,"vel":0.72},{"id":"rh-86","t":22.5,"dur":0.23,"midi":86,"vel":0.72},{"id":"lh-47","t":22.75,"dur":0.23,"midi":48,"vel":0.52},{"id":"rh-87","t":22.75,"dur":0.23,"midi":91,"vel":0.72},{"id":"lh-48","t":23,"dur":0.46,"midi":50,"vel":0.52},{"id":"rh-88","t":23,"dur":0.076667,"midi":84,"vel":0.72},{"id":"rh-89","t":23.083333,"dur":0.076667,"midi":83,"vel":0.72},{"id":"rh-90","t":23.166667,"dur":0.076667,"midi":84,"vel":0.72},{"id":"rh-91","t":23.25,"dur":0.23,"midi":83,"vel":0.72},{"id":"lh-49","t":23.5,"dur":0.46,"midi":38,"vel":0.52},{"id":"rh-92","t":23.5,"dur":0.23,"midi":81,"vel":0.72},{"id":"rh-93","t":23.75,"dur":0.23,"midi":79,"vel":0.72},{"id":"rh-94","t":24,"dur":0.46,"midi":79,"vel":0.72},{"id":"lh-50","t":24.25,"dur":0.23,"midi":43,"vel":0.52},{"id":"lh-51","t":24.5,"dur":0.23,"midi":45,"vel":0.52},{"id":"lh-52","t":24.75,"dur":0.23,"midi":47,"vel":0.52},{"id":"lh-53","t":25,"dur":0.23,"midi":48,"vel":0.52},{"id":"lh-54","t":25.25,"dur":0.23,"midi":45,"vel":0.52},{"id":"lh-55","t":25.5,"dur":0.23,"midi":47,"vel":0.52},{"id":"lh-56","t":25.75,"dur":0.23,"midi":43,"vel":0.52},{"id":"lh-57","t":26,"dur":0.46,"midi":50,"vel":0.52},{"id":"rh-95","t":26.25,"dur":0.23,"midi":79,"vel":0.72},{"id":"lh-58","t":26.5,"dur":0.46,"midi":55,"vel":0.52},{"id":"rh-96","t":26.5,"dur":0.23,"midi":81,"vel":0.72},{"id":"rh-97","t":26.75,"dur":0.23,"midi":83,"vel":0.72},{"id":"lh-59","t":27,"dur":0.46,"midi":54,"vel":0.52},{"id":"rh-98","t":27,"dur":0.23,"midi":84,"vel":0.72},{"id":"rh-99","t":27.25,"dur":0.23,"midi":81,"vel":0.72},{"id":"lh-60","t":27.5,"dur":0.46,"midi":55,"vel":0.52},{"id":"rh-100","t":27.5,"dur":0.23,"midi":83,"vel":0.72},{"id":"rh-101","t":27.75,"dur":0.23,"midi":79,"vel":0.72},{"id":"lh-61","t":28,"dur":0.23,"midi":57,"vel":0.52},{"id":"rh-102","t":28,"dur":0.076667,"midi":79,"vel":0.72},{"id":"rh-103","t":28.083333,"dur":0.076667,"midi":78,"vel":0.72},{"id":"rh-104","t":28.166667,"dur":0.076667,"midi":79,"vel":0.72},{"id":"lh-62","t":28.25,"dur":0.23,"midi":50,"vel":0.52},{"id":"rh-105","t":28.25,"dur":0.23,"midi":78,"vel":0.72},{"id":"lh-63","t":28.5,"dur":0.23,"midi":52,"vel":0.52},{"id":"lh-64","t":28.75,"dur":0.23,"midi":54,"vel":0.52},{"id":"lh-65","t":29,"dur":0.23,"midi":55,"vel":0.52},{"id":"lh-66","t":29.25,"dur":0.23,"midi":52,"vel":0.52},{"id":"lh-67","t":29.5,"dur":0.23,"midi":54,"vel":0.52},{"id":"lh-68","t":29.75,"dur":0.23,"midi":50,"vel":0.52},{"id":"lh-69","t":30,"dur":0.46,"midi":57,"vel":0.52},{"id":"rh-106","t":30.25,"dur":0.23,"midi":81,"vel":0.72},{"id":"lh-70","t":30.5,"dur":0.46,"midi":62,"vel":0.52},{"id":"rh-107","t":30.5,"dur":0.23,"midi":83,"vel":0.72},{"id":"rh-108","t":30.75,"dur":0.23,"midi":84,"vel":0.72},{"id":"lh-71","t":31,"dur":0.46,"midi":60,"vel":0.52},{"id":"rh-109","t":31,"dur":0.23,"midi":86,"vel":0.72},{"id":"rh-110","t":31.25,"dur":0.23,"midi":83,"vel":0.72},{"id":"lh-72","t":31.5,"dur":0.46,"midi":62,"vel":0.52},{"id":"rh-111","t":31.5,"dur":0.23,"midi":84,"vel":0.72},{"id":"rh-112","t":31.75,"dur":0.23,"midi":81,"vel":0.72},{"id":"lh-73","t":32,"dur":0.23,"midi":55,"vel":0.52},{"id":"rh-113","t":32,"dur":0.46,"midi":83,"vel":0.72},{"id":"lh-74","t":32.25,"dur":0.23,"midi":67,"vel":0.52},{"id":"lh-75","t":32.5,"dur":0.23,"midi":65,"vel":0.52},{"id":"lh-76","t":32.75,"dur":0.23,"midi":64,"vel":0.52},{"id":"lh-77","t":33,"dur":0.23,"midi":62,"vel":0.52},{"id":"lh-78","t":33.25,"dur":0.23,"midi":65,"vel":0.52},{"id":"lh-79","t":33.5,"dur":0.23,"midi":64,"vel":0.52},{"id":"lh-80","t":33.75,"dur":0.23,"midi":67,"vel":0.52},{"id":"lh-81","t":34,"dur":0.46,"midi":65,"vel":0.52},{"id":"rh-114","t":34.25,"dur":0.23,"midi":86,"vel":0.72},{"id":"lh-82","t":34.5,"dur":0.46,"midi":64,"vel":0.52},{"id":"rh-115","t":34.5,"dur":0.23,"midi":84,"vel":0.72},{"id":"rh-116","t":34.75,"dur":0.23,"midi":83,"vel":0.72},{"id":"lh-83","t":35,"dur":0.46,"midi":65,"vel":0.52},{"id":"rh-117","t":35,"dur":0.23,"midi":81,"vel":0.72},{"id":"rh-118","t":35.25,"dur":0.23,"midi":84,"vel":0.72},{"id":"lh-84","t":35.5,"dur":0.46,"midi":62,"vel":0.52},{"id":"rh-119","t":35.5,"dur":0.23,"midi":83,"vel":0.72},{"id":"rh-120","t":35.75,"dur":0.23,"midi":86,"vel":0.72},{"id":"lh-85","t":36,"dur":0.23,"midi":64,"vel":0.52},{"id":"rh-121","t":36,"dur":0.46,"midi":84,"vel":0.72},{"id":"lh-86","t":36.25,"dur":0.23,"midi":69,"vel":0.52},{"id":"lh-87","t":36.5,"dur":0.23,"midi":67,"vel":0.52},{"id":"lh-88","t":36.75,"dur":0.23,"midi":65,"vel":0.52},{"id":"lh-89","t":37,"dur":0.23,"midi":64,"vel":0.52},{"id":"lh-90","t":37.25,"dur":0.23,"midi":67,"vel":0.52},{"id":"lh-91","t":37.5,"dur":0.23,"midi":65,"vel":0.52},{"id":"lh-92","t":37.75,"dur":0.23,"midi":69,"vel":0.52},{"id":"lh-93","t":38,"dur":0.46,"midi":67,"vel":0.52},{"id":"rh-122","t":38.25,"dur":0.23,"midi":88,"vel":0.72},{"id":"lh-94","t":38.5,"dur":0.46,"midi":65,"vel":0.52},{"id":"rh-123","t":38.5,"dur":0.23,"midi":86,"vel":0.72},{"id":"rh-124","t":38.75,"dur":0.23,"midi":84,"vel":0.72},{"id":"lh-95","t":39,"dur":0.46,"midi":67,"vel":0.52},{"id":"rh-125","t":39,"dur":0.23,"midi":83,"vel":0.72},{"id":"rh-126","t":39.25,"dur":0.23,"midi":86,"vel":0.72},{"id":"lh-96","t":39.5,"dur":0.46,"midi":64,"vel":0.52},{"id":"rh-127","t":39.5,"dur":0.23,"midi":85,"vel":0.72},{"id":"rh-128","t":39.75,"dur":0.23,"midi":88,"vel":0.72},{"id":"lh-97","t":40,"dur":0.23,"midi":65,"vel":0.52},{"id":"rh-129","t":40,"dur":0.46,"midi":86,"vel":0.72},{"id":"lh-98","t":40.25,"dur":0.23,"midi":70,"vel":0.52},{"id":"lh-99","t":40.5,"dur":0.23,"midi":69,"vel":0.52},{"id":"rh-130","t":40.5,"dur":0.46,"midi":85,"vel":0.72},{"id":"lh-100","t":40.75,"dur":0.23,"midi":67,"vel":0.52},{"id":"lh-101","t":41,"dur":0.23,"midi":65,"vel":0.52},{"id":"rh-131","t":41,"dur":0.46,"midi":86,"vel":0.72},{"id":"lh-102","t":41.25,"dur":0.23,"midi":69,"vel":0.52},{"id":"lh-103","t":41.5,"dur":0.23,"midi":67,"vel":0.52},{"id":"rh-132","t":41.5,"dur":0.46,"midi":88,"vel":0.72},{"id":"lh-104","t":41.75,"dur":0.23,"midi":70,"vel":0.52},{"id":"lh-105","t":42,"dur":0.23,"midi":69,"vel":0.52},{"id":"rh-133","t":42,"dur":0.46,"midi":89,"vel":0.72},{"id":"lh-106","t":42.25,"dur":0.23,"midi":67,"vel":0.52},{"id":"lh-107","t":42.5,"dur":0.23,"midi":65,"vel":0.52},{"id":"rh-134","t":42.5,"dur":0.46,"midi":81,"vel":0.72},{"id":"lh-108","t":42.75,"dur":0.23,"midi":64,"vel":0.52},{"id":"lh-109","t":43,"dur":0.23,"midi":62,"vel":0.52},{"id":"rh-135","t":43,"dur":0.46,"midi":83,"vel":0.72},{"id":"lh-110","t":43.25,"dur":0.23,"midi":65,"vel":0.52},{"id":"lh-111","t":43.5,"dur":0.23,"midi":64,"vel":0.52},{"id":"rh-136","t":43.5,"dur":0.46,"midi":85,"vel":0.72},{"id":"lh-112","t":43.75,"dur":0.23,"midi":67,"vel":0.52},{"id":"lh-113","t":44,"dur":0.23,"midi":65,"vel":0.52},{"id":"rh-137","t":44,"dur":0.46,"midi":86,"vel":0.72},{"id":"lh-114","t":44.25,"dur":0.23,"midi":64,"vel":0.52},{"id":"lh-115","t":44.5,"dur":0.23,"midi":62,"vel":0.52},{"id":"rh-138","t":44.5,"dur":0.46,"midi":78,"vel":0.72},{"id":"lh-116","t":44.75,"dur":0.23,"midi":60,"vel":0.52},{"id":"lh-117","t":45,"dur":0.23,"midi":59,"vel":0.52},{"id":"rh-139","t":45,"dur":0.46,"midi":80,"vel":0.72},{"id":"lh-118","t":45.25,"dur":0.23,"midi":62,"vel":0.52},{"id":"lh-119","t":45.5,"dur":0.23,"midi":60,"vel":0.52},{"id":"rh-140","t":45.5,"dur":0.46,"midi":81,"vel":0.72},{"id":"lh-120","t":45.75,"dur":0.23,"midi":64,"vel":0.52},{"id":"lh-121","t":46,"dur":0.23,"midi":62,"vel":0.52},{"id":"rh-141","t":46,"dur":0.46,"midi":83,"vel":0.72},{"id":"lh-122","t":46.25,"dur":0.23,"midi":60,"vel":0.52},{"id":"lh-123","t":46.5,"dur":0.23,"midi":59,"vel":0.52},{"id":"rh-142","t":46.5,"dur":0.46,"midi":84,"vel":0.72},{"id":"lh-124","t":46.75,"dur":0.23,"midi":57,"vel":0.52},{"id":"lh-125","t":47,"dur":0.23,"midi":56,"vel":0.52},{"id":"rh-143","t":47,"dur":1.15,"midi":86,"vel":0.72},{"id":"lh-126","t":47.25,"dur":0.23,"midi":59,"vel":0.52},{"id":"lh-127","t":47.5,"dur":0.23,"midi":57,"vel":0.52},{"id":"lh-128","t":47.75,"dur":0.23,"midi":60,"vel":0.52},{"id":"lh-129","t":48,"dur":0.46,"midi":59,"vel":0.52},{"id":"rh-144","t":48.25,"dur":0.23,"midi":76,"vel":0.72},{"id":"lh-130","t":48.5,"dur":0.46,"midi":52,"vel":0.52},{"id":"rh-145","t":48.5,"dur":0.23,"midi":78,"vel":0.72},{"id":"rh-146","t":48.75,"dur":0.23,"midi":80,"vel":0.72},{"id":"lh-131","t":49,"dur":0.115,"midi":62,"vel":0.52},{"id":"rh-147","t":49,"dur":0.23,"midi":81,"vel":0.72},{"id":"lh-132","t":49.125,"dur":0.115,"midi":60,"vel":0.52},{"id":"lh-133","t":49.25,"dur":0.46,"midi":62,"vel":0.52},{"id":"rh-148","t":49.25,"dur":0.23,"midi":78,"vel":0.72},{"id":"rh-149","t":49.5,"dur":0.23,"midi":80,"vel":0.72},{"id":"lh-134","t":49.75,"dur":0.23,"midi":64,"vel":0.52},{"id":"rh-150","t":49.75,"dur":0.23,"midi":76,"vel":0.72},{"id":"lh-135","t":50,"dur":0.23,"midi":60,"vel":0.52},{"id":"rh-151","t":50,"dur":0.23,"midi":88,"vel":0.72},{"id":"lh-136","t":50.25,"dur":0.23,"midi":59,"vel":0.52},{"id":"rh-152","t":50.25,"dur":0.23,"midi":86,"vel":0.72},{"id":"lh-137","t":50.5,"dur":0.23,"midi":57,"vel":0.52},{"id":"rh-153","t":50.5,"dur":0.23,"midi":84,"vel":0.72},{"id":"lh-138","t":50.75,"dur":0.23,"midi":55,"vel":0.52},{"id":"rh-154","t":50.75,"dur":0.23,"midi":88,"vel":0.72},{"id":"lh-139","t":51,"dur":0.23,"midi":54,"vel":0.52},{"id":"rh-155","t":51,"dur":0.23,"midi":86,"vel":0.72},{"id":"lh-140","t":51.25,"dur":0.23,"midi":57,"vel":0.52},{"id":"rh-156","t":51.25,"dur":0.23,"midi":84,"vel":0.72},{"id":"lh-141","t":51.5,"dur":0.23,"midi":56,"vel":0.52},{"id":"rh-157","t":51.5,"dur":0.23,"midi":83,"vel":0.72},{"id":"lh-142","t":51.75,"dur":0.23,"midi":59,"vel":0.52},{"id":"rh-158","t":51.75,"dur":0.23,"midi":86,"vel":0.72},{"id":"lh-143","t":52,"dur":0.23,"midi":57,"vel":0.52},{"id":"rh-159","t":52,"dur":0.23,"midi":84,"vel":0.72},{"id":"lh-144","t":52.25,"dur":0.23,"midi":60,"vel":0.52},{"id":"rh-160","t":52.25,"dur":0.23,"midi":93,"vel":0.72},{"id":"lh-145","t":52.5,"dur":0.23,"midi":59,"vel":0.52},{"id":"rh-161","t":52.5,"dur":0.23,"midi":92,"vel":0.72},{"id":"lh-146","t":52.75,"dur":0.23,"midi":62,"vel":0.52},{"id":"rh-162","t":52.75,"dur":0.23,"midi":95,"vel":0.72},{"id":"lh-147","t":53,"dur":0.23,"midi":60,"vel":0.52},{"id":"rh-163","t":53,"dur":0.23,"midi":93,"vel":0.72},{"id":"lh-148","t":53.25,"dur":0.23,"midi":64,"vel":0.52},{"id":"rh-164","t":53.25,"dur":0.23,"midi":88,"vel":0.72},{"id":"lh-149","t":53.5,"dur":0.23,"midi":62,"vel":0.52},{"id":"rh-165","t":53.5,"dur":0.23,"midi":89,"vel":0.72},{"id":"lh-150","t":53.75,"dur":0.23,"midi":65,"vel":0.52},{"id":"rh-166","t":53.75,"dur":0.23,"midi":86,"vel":0.72},{"id":"lh-151","t":54,"dur":0.46,"midi":64,"vel":0.52},{"id":"rh-167","t":54,"dur":0.23,"midi":80,"vel":0.72},{"id":"rh-168","t":54.25,"dur":0.23,"midi":89,"vel":0.72},{"id":"lh-152","t":54.5,"dur":0.46,"midi":57,"vel":0.52},{"id":"rh-169","t":54.5,"dur":0.23,"midi":88,"vel":0.72},{"id":"rh-170","t":54.75,"dur":0.23,"midi":86,"vel":0.72},{"id":"lh-153","t":55,"dur":0.46,"midi":64,"vel":0.52},{"id":"rh-171","t":55,"dur":0.46,"midi":84,"vel":0.72},{"id":"lh-154","t":55.5,"dur":0.46,"midi":52,"vel":0.52},{"id":"rh-172","t":55.5,"dur":0.23,"midi":83,"vel":0.72},{"id":"rh-173","t":55.75,"dur":0.23,"midi":81,"vel":0.72},{"id":"lh-155","t":56,"dur":0.46,"midi":57,"vel":0.52},{"id":"rh-174","t":56,"dur":0.23,"midi":81,"vel":0.72},{"id":"rh-175","t":56.25,"dur":0.23,"midi":93,"vel":0.72},{"id":"lh-156","t":56.5,"dur":0.46,"midi":45,"vel":0.52},{"id":"rh-176","t":56.5,"dur":0.23,"midi":91,"vel":0.72},{"id":"rh-177","t":56.75,"dur":0.23,"midi":89,"vel":0.72},{"id":"rh-178","t":57,"dur":0.23,"midi":88,"vel":0.72},{"id":"rh-179","t":57.25,"dur":0.23,"midi":91,"vel":0.72},{"id":"rh-180","t":57.5,"dur":0.23,"midi":89,"vel":0.72},{"id":"rh-181","t":57.75,"dur":0.23,"midi":93,"vel":0.72},{"id":"rh-182","t":58,"dur":2.031667,"midi":91,"vel":0.72},{"id":"lh-157","t":58.25,"dur":0.23,"midi":64,"vel":0.52},{"id":"lh-158","t":58.5,"dur":0.23,"midi":62,"vel":0.52},{"id":"lh-159","t":58.75,"dur":0.23,"midi":60,"vel":0.52},{"id":"lh-160","t":59,"dur":0.23,"midi":59,"vel":0.52},{"id":"lh-161","t":59.25,"dur":0.23,"midi":62,"vel":0.52},{"id":"lh-162","t":59.5,"dur":0.23,"midi":61,"vel":0.52},{"id":"lh-163","t":59.75,"dur":0.23,"midi":64,"vel":0.52},{"id":"lh-164","t":60,"dur":2.031667,"midi":62,"vel":0.52},{"id":"rh-183","t":60.25,"dur":0.23,"midi":88,"vel":0.72},{"id":"rh-184","t":60.5,"dur":0.23,"midi":89,"vel":0.72},{"id":"rh-185","t":60.75,"dur":0.23,"midi":91,"vel":0.72},{"id":"rh-186","t":61,"dur":0.23,"midi":93,"vel":0.72},{"id":"rh-187","t":61.25,"dur":0.23,"midi":89,"vel":0.72},{"id":"rh-188","t":61.5,"dur":0.23,"midi":91,"vel":0.72},{"id":"rh-189","t":61.75,"dur":0.23,"midi":88,"vel":0.72},{"id":"rh-190","t":62,"dur":2.07,"midi":89,"vel":0.72},{"id":"lh-165","t":62.25,"dur":0.23,"midi":57,"vel":0.52},{"id":"lh-166","t":62.5,"dur":0.23,"midi":59,"vel":0.52},{"id":"lh-167","t":62.75,"dur":0.23,"midi":60,"vel":0.52},{"id":"lh-168","t":63,"dur":0.23,"midi":62,"vel":0.52},{"id":"lh-169","t":63.25,"dur":0.23,"midi":59,"vel":0.52},{"id":"lh-170","t":63.5,"dur":0.23,"midi":60,"vel":0.52},{"id":"lh-171","t":63.75,"dur":0.23,"midi":57,"vel":0.52},{"id":"lh-172","t":64,"dur":2.031667,"midi":59,"vel":0.52},{"id":"rh-191","t":64.25,"dur":0.23,"midi":91,"vel":0.72},{"id":"rh-192","t":64.5,"dur":0.23,"midi":89,"vel":0.72},{"id":"rh-193","t":64.75,"dur":0.23,"midi":88,"vel":0.72},{"id":"rh-194","t":65,"dur":0.23,"midi":86,"vel":0.72},{"id":"rh-195","t":65.25,"dur":0.23,"midi":89,"vel":0.72},{"id":"rh-196","t":65.5,"dur":0.23,"midi":88,"vel":0.72},{"id":"rh-197","t":65.75,"dur":0.23,"midi":91,"vel":0.72},{"id":"rh-198","t":66,"dur":2.031667,"midi":89,"vel":0.72},{"id":"lh-173","t":66.25,"dur":0.23,"midi":62,"vel":0.52},{"id":"lh-174","t":66.5,"dur":0.23,"midi":60,"vel":0.52},{"id":"lh-175","t":66.75,"dur":0.23,"midi":59,"vel":0.52},{"id":"lh-176","t":67,"dur":0.23,"midi":57,"vel":0.52},{"id":"lh-177","t":67.25,"dur":0.23,"midi":60,"vel":0.52},{"id":"lh-178","t":67.5,"dur":0.23,"midi":59,"vel":0.52},{"id":"lh-179","t":67.75,"dur":0.23,"midi":62,"vel":0.52},{"id":"lh-180","t":68,"dur":2.031667,"midi":60,"vel":0.52},{"id":"rh-199","t":68.25,"dur":0.23,"midi":86,"vel":0.72},{"id":"rh-200","t":68.5,"dur":0.23,"midi":88,"vel":0.72},{"id":"rh-201","t":68.75,"dur":0.23,"midi":89,"vel":0.72},{"id":"rh-202","t":69,"dur":0.23,"midi":91,"vel":0.72},{"id":"rh-203","t":69.25,"dur":0.23,"midi":88,"vel":0.72},{"id":"rh-204","t":69.5,"dur":0.23,"midi":89,"vel":0.72},{"id":"rh-205","t":69.75,"dur":0.23,"midi":86,"vel":0.72},{"id":"rh-206","t":70,"dur":2.031667,"midi":88,"vel":0.72},{"id":"lh-181","t":70.25,"dur":0.23,"midi":55,"vel":0.52},{"id":"lh-182","t":70.5,"dur":0.23,"midi":57,"vel":0.52},{"id":"lh-183","t":70.75,"dur":0.23,"midi":58,"vel":0.52},{"id":"lh-184","t":71,"dur":0.23,"midi":60,"vel":0.52},{"id":"lh-185","t":71.25,"dur":0.23,"midi":57,"vel":0.52},{"id":"lh-186","t":71.5,"dur":0.23,"midi":58,"vel":0.52},{"id":"lh-187","t":71.75,"dur":0.23,"midi":55,"vel":0.52},{"id":"lh-188","t":72,"dur":0.46,"midi":57,"vel":0.52},{"id":"rh-207","t":72.25,"dur":0.23,"midi":84,"vel":0.72},{"id":"lh-189","t":72.5,"dur":0.46,"midi":58,"vel":0.52},{"id":"rh-208","t":72.5,"dur":0.23,"midi":86,"vel":0.72},{"id":"rh-209","t":72.75,"dur":0.23,"midi":88,"vel":0.72},{"id":"lh-190","t":73,"dur":0.46,"midi":57,"vel":0.52},{"id":"rh-210","t":73,"dur":0.23,"midi":89,"vel":0.72},{"id":"rh-211","t":73.25,"dur":0.23,"midi":86,"vel":0.72},{"id":"lh-191","t":73.5,"dur":0.46,"midi":55,"vel":0.52},{"id":"rh-212","t":73.5,"dur":0.23,"midi":88,"vel":0.72},{"id":"rh-213","t":73.75,"dur":0.23,"midi":84,"vel":0.72},{"id":"lh-192","t":74,"dur":0.46,"midi":53,"vel":0.52},{"id":"rh-214","t":74,"dur":0.23,"midi":86,"vel":0.72},{"id":"rh-215","t":74.25,"dur":0.23,"midi":88,"vel":0.72},{"id":"lh-193","t":74.5,"dur":0.46,"midi":62,"vel":0.52},{"id":"rh-216","t":74.5,"dur":0.23,"midi":89,"vel":0.72},{"id":"rh-217","t":74.75,"dur":0.23,"midi":91,"vel":0.72},{"id":"lh-194","t":75,"dur":0.46,"midi":60,"vel":0.52},{"id":"rh-218","t":75,"dur":0.23,"midi":93,"vel":0.72},{"id":"rh-219","t":75.25,"dur":0.23,"midi":89,"vel":0.72},{"id":"lh-195","t":75.5,"dur":0.46,"midi":58,"vel":0.52},{"id":"rh-220","t":75.5,"dur":0.23,"midi":91,"vel":0.72},{"id":"rh-221","t":75.75,"dur":0.23,"midi":88,"vel":0.72},{"id":"lh-196","t":76,"dur":0.46,"midi":57,"vel":0.52},{"id":"rh-222","t":76,"dur":0.23,"midi":89,"vel":0.72},{"id":"rh-223","t":76.25,"dur":0.23,"midi":91,"vel":0.72},{"id":"lh-197","t":76.5,"dur":0.46,"midi":65,"vel":0.52},{"id":"rh-224","t":76.5,"dur":0.23,"midi":93,"vel":0.72},{"id":"rh-225","t":76.75,"dur":0.23,"midi":95,"vel":0.72},{"id":"lh-198","t":77,"dur":0.46,"midi":64,"vel":0.52},{"id":"rh-226","t":77,"dur":0.23,"midi":96,"vel":0.72},{"id":"rh-227","t":77.25,"dur":0.23,"midi":93,"vel":0.72},{"id":"lh-199","t":77.5,"dur":0.46,"midi":62,"vel":0.52},{"id":"rh-228","t":77.5,"dur":0.23,"midi":95,"vel":0.72},{"id":"rh-229","t":77.75,"dur":0.23,"midi":91,"vel":0.72},{"id":"lh-200","t":78,"dur":0.23,"midi":64,"vel":0.52},{"id":"rh-230","t":78,"dur":0.46,"midi":96,"vel":0.72},{"id":"lh-201","t":78.25,"dur":0.23,"midi":50,"vel":0.52},{"id":"lh-202","t":78.5,"dur":0.23,"midi":52,"vel":0.52},{"id":"rh-231","t":78.5,"dur":0.46,"midi":91,"vel":0.72},{"id":"lh-203","t":78.75,"dur":0.23,"midi":53,"vel":0.52},{"id":"lh-204","t":79,"dur":0.23,"midi":55,"vel":0.52},{"id":"rh-232","t":79,"dur":0.46,"midi":88,"vel":0.72},{"id":"lh-205","t":79.25,"dur":0.23,"midi":52,"vel":0.52},{"id":"lh-206","t":79.5,"dur":0.23,"midi":53,"vel":0.52},{"id":"rh-233","t":79.5,"dur":0.23,"midi":86,"vel":0.72},{"id":"lh-207","t":79.75,"dur":0.23,"midi":50,"vel":0.52},{"id":"rh-234","t":79.75,"dur":0.23,"midi":84,"vel":0.72},{"id":"lh-208","t":80,"dur":0.46,"midi":52,"vel":0.52},{"id":"rh-235","t":80,"dur":0.23,"midi":84,"vel":0.72},{"id":"rh-236","t":80.25,"dur":0.23,"midi":82,"vel":0.72},{"id":"lh-209","t":80.5,"dur":0.46,"midi":48,"vel":0.52},{"id":"rh-237","t":80.5,"dur":0.23,"midi":81,"vel":0.72},{"id":"rh-238","t":80.75,"dur":0.23,"midi":79,"vel":0.72},{"id":"lh-210","t":81,"dur":0.46,"midi":50,"vel":0.52},{"id":"rh-239","t":81,"dur":0.23,"midi":77,"vel":0.72},{"id":"rh-240","t":81.25,"dur":0.23,"midi":81,"vel":0.72},{"id":"lh-211","t":81.5,"dur":0.46,"midi":52,"vel":0.52},{"id":"rh-241","t":81.5,"dur":0.23,"midi":79,"vel":0.72},{"id":"rh-242","t":81.75,"dur":0.23,"midi":82,"vel":0.72},{"id":"lh-212","t":82,"dur":0.23,"midi":53,"vel":0.52},{"id":"rh-243","t":82,"dur":0.23,"midi":81,"vel":0.72},{"id":"lh-213","t":82.25,"dur":0.23,"midi":50,"vel":0.52},{"id":"rh-244","t":82.25,"dur":0.23,"midi":83,"vel":0.72},{"id":"lh-214","t":82.5,"dur":0.23,"midi":52,"vel":0.52},{"id":"rh-245","t":82.5,"dur":0.23,"midi":84,"vel":0.72},{"id":"lh-215","t":82.75,"dur":0.23,"midi":53,"vel":0.52},{"id":"rh-246","t":82.75,"dur":0.23,"midi":76,"vel":0.72},{"id":"lh-216","t":83,"dur":0.46,"midi":55,"vel":0.52},{"id":"rh-247","t":83,"dur":0.23,"midi":74,"vel":0.72},{"id":"rh-248","t":83.25,"dur":0.23,"midi":84,"vel":0.72},{"id":"lh-217","t":83.5,"dur":0.46,"midi":43,"vel":0.52},{"id":"rh-249","t":83.5,"dur":0.23,"midi":77,"vel":0.72},{"id":"rh-250","t":83.75,"dur":0.23,"midi":83,"vel":0.72},{"id":"lh-219","t":84,"dur":3.98,"midi":36,"vel":0.52},{"id":"lh-218","t":84.25,"dur":3.73,"midi":48,"vel":0.52},{"id":"rh-253","t":84.5,"dur":3.48,"midi":76,"vel":0.72},{"id":"rh-252","t":84.75,"dur":3.23,"midi":79,"vel":0.72},{"id":"rh-251","t":85,"dur":2.98,"midi":84,"vel":0.72}]