[{"id":"rh-0","t":0.25,"dur":0.291333,"midi":72,"vel":0.72},{"id":"rh-1","t":0.583333,"dur":0.291333,"midi":74,"vel":0.72},{"id":"rh-2","t":0.916667,"dur":0.291333,"midi":76,"vel":0.72},{"id":"rh-3","t":1.25,"dur":0.291333,"midi":77,"vel":0.72},{"id":"rh-4","t":1.583333,"dur":0.291333,"midi":76,"vel":0.72},{"id":"rh-5","t":1.916667,"dur":0.291333,"midi":74,"vel":0.72},{"id":"rh-6","t":2.25,"dur":0.291333,"midi":72,"vel":0.72},{"id":"rh-7","t":2.583333,"dur":0.291333,"midi":71,"vel":0.72},{"id":"rh-8","t":2.916667,"dur":0.291333,"midi":72,"vel":0.72},{"id":"rh-9","t":3.25,"dur":0.46,"midi":79,"vel":0.72},{"id":"lh-0","t":3.96,"dur":0.291333,"midi":48,"vel":0.52},{"id":"rh-10","t":4.0,"dur":0.291333,"midi":74,"vel":0.72},{"id":"lh-1","t":4.293333,"dur":0.291333,"midi":50,"vel":0.52},{"id":"rh-11","t":4.333333,"dur":0.291333,"midi":69,"vel":0.72},{"id":"lh-2","t":4.626667,"dur":0.291333,"midi":52,"vel":0.52},{"id":"rh-12","t":4.666667,"dur":0.291333,"midi":55,"vel":0.72},{"id":"lh-3","t":4.96,"dur":0.291333,"midi":53,"vel":0.52},{"id":"rh-13","t":5.0,"dur":0.291333,"midi":60,"vel":0.72},{"id":"lh-4","t":5.293333,"dur":0.291333,"midi":52,"vel":0.52},{"id":"rh-14","t":5.333333,"dur":0.291333,"midi":59,"vel":0.72},{"id":"lh-5","t":5.626667,"dur":0.291333,"midi":50,"vel":0.52},{"id":"rh-15","t":5.666667,"dur":0.291333,"midi":57,"vel":0.72},{"id":"rh-16","t":6.0,"dur":0.291333,"midi":55,"vel":0.72},{"id":"rh-17","t":6.333333,"dur":0.291333,"midi":53,"vel":0.72},{"id":"rh-18","t":6.666667,"dur":0.291333,"midi":55,"vel":0.72},{"id":"rh-19","t":7.0,"dur":0.46,"midi":62,"vel":0.72},{"id":"lh-6","t":7.71,"dur":0.291333,"midi":67,"vel":0.52},{"id":"rh-20","t":8.0,"dur":0.291333,"midi":64,"vel":0.72},{"id":"lh-7","t":8.043333,"dur":0.291333,"midi":55,"vel":0.52},{"id":"rh-21","t":8.333333,"dur":0.291333,"midi":67,"vel":0.72},{"id":"rh-22","t":8.666667,"dur":0.291333,"midi":69,"vel":0.72},{"id":"rh-23","t":9.0,"dur":0.291333,"midi":64,"vel":0.72},{"id":"rh-24","t":9.333333,"dur":0.291333,"midi":65,"vel":0.72},{"id":"rh-25","t":9.666667,"dur":0.291333,"midi":67,"vel":0.72},{"id":"lh-8","t":9.96,"dur":0.291333,"midi":67,"vel":0.52},{"id":"rh-26","t":10.0,"dur":0.291333,"midi":67,"vel":0.72},{"id":"lh-9","t":10.293333,"dur":0.291333,"midi":69,"vel":0.52},{"id":"rh-27","t":10.333333,"dur":0.291333,"midi":64,"vel":0.72},{"id":"lh-10","t":10.626667,"dur":0.291333,"midi":71,"vel":0.52},{"id":"rh-28","t":10.666667,"dur":0.291333,"midi":65,"vel":0.72},{"id":"lh-11","t":10.96,"dur":0.291333,"midi":72,"vel":0.52},{"id":"rh-29","t":11.0,"dur":0.291333,"midi":60,"vel":0.72},{"id":"lh-12","t":11.293333,"dur":0.291333,"midi":71,"vel":0.52},{"id":"rh-30","t":11.333333,"dur":0.291333,"midi":62,"vel":0.72},{"id":"lh-14","t":11.541333,"dur":0.291333,"midi":71,"vel":0.52},{"id":"lh-13","t":11.626667,"dur":0.291333,"midi":69,"vel":0.52},{"id":"rh-31","t":11.666667,"dur":0.291333,"midi":64,"vel":0.72},{"id":"lh-15","t":11.874666,"dur":0.291333,"midi":72,"vel":0.52},{"id":"rh-32","t":12.0,"dur":0.291333,"midi":64,"vel":0.72},{"id":"lh-21","t":12.0,"dur":0.291333,"midi":72,"vel":0.52},{"id":"lh-16","t":12.208,"dur":0.291333,"midi":74,"vel":0.52},{"id":"rh-33","t":12.333333,"dur":0.291333,"midi":60,"vel":0.72},{"id":"lh-22","t":12.333333,"dur":0.291333,"midi":66,"vel":0.52},{"id":"lh-17","t":12.541333,"dur":0.46,"midi":72,"vel":0.52},{"id":"rh-34","t":12.666667,"dur":0.291333,"midi":62,"vel":0.72},{"id":"lh-23","t":12.666667,"dur":0.291333,"midi":64,"vel":0.52},{"id":"rh-35","t":13.0,"dur":0.291333,"midi":57,"vel":0.72},{"id":"lh-24","t":13.0,"dur":0.291333,"midi":69,"vel":0.52},{"id":"lh-18","t":13.041333,"dur":0.291333,"midi":76,"vel":0.52},{"id":"rh-36","t":13.333333,"dur":0.291333,"midi":59,"vel":0.72},{"id":"lh-25","t":13.333333,"dur":0.291333,"midi":71,"vel":0.52},{"id":"lh-19","t":13.374666,"dur":0.291333,"midi":81,"vel":0.52},{"id":"rh-37","t":13.666667,"dur":0.291333,"midi":60,"vel":0.72},{"id":"lh-20","t":13.708,"dur":0.291333,"midi":67,"vel":0.52},{"id":"rh-38","t":14.0,"dur":0.291333,"midi":60,"vel":0.72},{"id":"lh-26","t":14.0,"dur":0.92,"midi":72,"vel":0.52},{"id":"rh-39","t":14.333333,"dur":0.291333,"midi":57,"vel":0.72},{"id":"rh-40","t":14.666667,"dur":0.291333,"midi":59,"vel":0.72},{"id":"rh-41","t":15.0,"dur":0.291333,"midi":54,"vel":0.72},{"id":"rh-42","t":15.333333,"dur":0.291333,"midi":55,"vel":0.72},{"id":"rh-43","t":15.666667,"dur":0.291333,"midi":57,"vel":0.72},{"id":"rh-44","t":16.0,"dur":0.291333,"midi":57,"vel":0.72},{"id":"rh-45","t":16.333333,"dur":0.291333,"midi":50,"vel":0.72},{"id":"rh-46","t":17.0,"dur":0.291333,"midi":60,"vel":0.72},{"id":"rh-47","t":17.333333,"dur":0.291333,"midi":62,"vel":0.72},{"id":"rh-48","t":18.0,"dur":0.291333,"midi":59,"vel":0.72},{"id":"rh-49","t":18.333333,"dur":0.291333,"midi":55,"vel":0.72},{"id":"rh-50","t":18.666667,"dur":0.291333,"midi":57,"vel":0.72},{"id":"rh-51","t":19.0,"dur":0.291333,"midi":52,"vel":0.72},{"id":"rh-52","t":19.333333,"dur":0.291333,"midi":42,"vel":0.72},{"id":"rh-53","t":19.666667,"dur":0.291333,"midi":43,"vel":0.72},{"id":"rh-54","t":20.0,"dur":0.291333,"midi":43,"vel":0.72},{"id":"lh-27","t":20.208,"dur":0.291333,"midi":72,"vel":0.52},{"id":"rh-55","t":20.333333,"dur":0.291333,"midi":45,"vel":0.72},{"id":"lh-28","t":20.541333,"dur":0.291333,"midi":76,"vel":0.52},{"id":"rh-56","t":20.666667,"dur":0.291333,"midi":47,"vel":0.72},{"id":"lh-29","t":20.874667,"dur":0.291333,"midi":62,"vel":0.52},{"id":"rh-57","t":21.0,"dur":0.291333,"midi":47,"vel":0.72},{"id":"lh-30","t":21.208,"dur":0.291333,"midi":67,"vel":0.52},{"id":"rh-58","t":21.333333,"dur":0.291333,"midi":48,"vel":0.72},{"id":"lh-31","t":21.541333,"dur":0.291333,"midi":66,"vel":0.52},{"id":"rh-59","t":21.666667,"dur":0.291333,"midi":50,"vel":0.72},{"id":"lh-32","t":21.874667,"dur":0.291333,"midi":76,"vel":0.52},{"id":"rh-60","t":22.0,"dur":0.291333,"midi":50,"vel":0.72},{"id":"lh-33","t":22.208,"dur":0.291333,"midi":59,"vel":0.52},{"id":"rh-61","t":22.333333,"dur":0.291333,"midi":47,"vel":0.72},{"id":"lh-34","t":22.541333,"dur":0.291333,"midi":60,"vel":0.52},{"id":"rh-62","t":22.666667,"dur":0.291333,"midi":48,"vel":0.72},{"id":"lh-35","t":22.874667,"dur":0.291333,"midi":62,"vel":0.52},{"id":"rh-63","t":23.0,"dur":0.291333,"midi":35,"vel":0.72},{"id":"lh-36","t":23.208,"dur":0.46,"midi":67,"vel":0.52},{"id":"rh-64","t":23.333333,"dur":0.291333,"midi":33,"vel":0.72},{"id":"lh-37","t":23.541333,"dur":0.291333,"midi":64,"vel":0.52},{"id":"rh-65","t":23.666667,"dur":0.291333,"midi":31,"vel":0.72},{"id":"lh-38","t":23.874666,"dur":0.291333,"midi":67,"vel":0.52},{"id":"rh-66","t":24.0,"dur":0.46,"midi":31,"vel":0.72},{"id":"lh-39","t":24.208,"dur":0.291333,"midi":66,"vel":0.52},{"id":"lh-44","t":24.25,"dur":0.291333,"midi":67,"vel":0.52},{"id":"lh-40","t":24.541333,"dur":0.291333,"midi":71,"vel":0.52},{"id":"lh-45","t":24.583333,"dur":0.291333,"midi":69,"vel":0.52},{"id":"lh-41","t":24.874666,"dur":0.291333,"midi":72,"vel":0.52},{"id":"lh-46","t":24.916667,"dur":0.291333,"midi":71,"vel":0.52},{"id":"lh-47","t":25.25,"dur":0.291333,"midi":72,"vel":0.52},{"id":"lh-42","t":25.541333,"dur":0.291333,"midi":74,"vel":0.52},{"id":"lh-48","t":25.583333,"dur":0.291333,"midi":71,"vel":0.52},{"id":"lh-43","t":25.874666,"dur":0.291333,"midi":62,"vel":0.52},{"id":"lh-49","t":25.916667,"dur":0.291333,"midi":69,"vel":0.52},{"id":"rh-67","t":26.25,"dur":0.291333,"midi":31,"vel":0.72},{"id":"lh-50","t":26.25,"dur":0.291333,"midi":67,"vel":0.52},{"id":"rh-68","t":26.583333,"dur":0.291333,"midi":33,"vel":0.72},{"id":"lh-51","t":26.583333,"dur":0.291333,"midi":66,"vel":0.52},{"id":"rh-69","t":26.916667,"dur":0.291333,"midi":35,"vel":0.72},{"id":"lh-52","t":26.916667,"dur":0.291333,"midi":67,"vel":0.52},{"id":"rh-70","t":27.25,"dur":0.291333,"midi":36,"vel":0.72},{"id":"lh-53","t":27.25,"dur":0.46,"midi":74,"vel":0.52},{"id":"rh-71","t":27.583333,"dur":0.291333,"midi":35,"vel":0.72},{"id":"rh-72","t":27.916667,"dur":0.291333,"midi":33,"vel":0.72},{"id":"rh-73","t":28.0,"dur":0.46,"midi":30,"vel":0.72},{"id":"lh-54","t":28.0,"dur":0.291333,"midi":69,"vel":0.52},{"id":"lh-55","t":28.333333,"dur":0.291333,"midi":64,"vel":0.52},{"id":"lh-56","t":28.666667,"dur":0.291333,"midi":50,"vel":0.52},{"id":"lh-57","t":29.0,"dur":0.291333,"midi":55,"vel":0.52},{"id":"lh-58","t":29.333333,"dur":0.291333,"midi":54,"vel":0.52},{"id":"lh-59","t":29.666667,"dur":0.291333,"midi":64,"vel":0.52},{"id":"lh-60","t":30.0,"dur":0.291333,"midi":62,"vel":0.52},{"id":"rh-74","t":30.25,"dur":0.291333,"midi":33,"vel":0.72},{"id":"lh-61","t":30.333333,"dur":0.291333,"midi":60,"vel":0.52},{"id":"rh-75","t":30.583333,"dur":0.291333,"midi":35,"vel":0.72},{"id":"lh-62","t":30.666667,"dur":0.291333,"midi":62,"vel":0.52},{"id":"rh-76","t":30.916667,"dur":0.291333,"midi":36,"vel":0.72},{"id":"lh-63","t":31.0,"dur":0.46,"midi":69,"vel":0.52},{"id":"rh-77","t":31.25,"dur":0.291333,"midi":38,"vel":0.72},{"id":"rh-78","t":31.583333,"dur":0.291333,"midi":36,"vel":0.72},{"id":"rh-79","t":31.916667,"dur":0.291333,"midi":35,"vel":0.72},{"id":"rh-80","t":32.0,"dur":0.46,"midi":35,"vel":0.72},{"id":"lh-64","t":32.0,"dur":0.291333,"midi":55,"vel":0.52},{"id":"lh-65","t":32.333333,"dur":0.291333,"midi":53,"vel":0.52},{"id":"lh-66","t":32.666667,"dur":0.291333,"midi":67,"vel":0.52},{"id":"lh-67","t":33.0,"dur":0.291333,"midi":62,"vel":0.52},{"id":"lh-68","t":33.333333,"dur":0.291333,"midi":64,"vel":0.52},{"id":"lh-69","t":33.666667,"dur":0.291333,"midi":65,"vel":0.52},{"id":"lh-70","t":34.0,"dur":0.291333,"midi":64,"vel":0.52},{"id":"rh-81","t":34.25,"dur":0.291333,"midi":38,"vel":0.72},{"id":"lh-71","t":34.333333,"dur":0.291333,"midi":65,"vel":0.52},{"id":"rh-82","t":34.583333,"dur":0.291333,"midi":36,"vel":0.72},{"id":"lh-72","t":34.666667,"dur":0.291333,"midi":62,"vel":0.52},{"id":"rh-83","t":34.916667,"dur":0.291333,"midi":35,"vel":0.72},{"id":"lh-73","t":35.0,"dur":0.46,"midi":65,"vel":0.52},{"id":"rh-84","t":35.25,"dur":0.291333,"midi":33,"vel":0.72},{"id":"rh-85","t":35.583333,"dur":0.291333,"midi":35,"vel":0.72},{"id":"rh-86","t":35.916667,"dur":0.291333,"midi":36,"vel":0.72},{"id":"rh-87","t":36.0,"dur":0.46,"midi":36,"vel":0.72},{"id":"lh-74","t":36.0,"dur":0.291333,"midi":64,"vel":0.52},{"id":"lh-75","t":36.333333,"dur":0.291333,"midi":67,"vel":0.52},{"id":"lh-76","t":36.666667,"dur":0.291333,"midi":69,"vel":0.52},{"id":"lh-77","t":37.0,"dur":0.291333,"midi":64,"vel":0.52},{"id":"lh-78","t":37.333333,"dur":0.291333,"midi":65,"vel":0.52},{"id":"lh-79","t":37.666667,"dur":0.291333,"midi":67,"vel":0.52},{"id":"lh-80","t":38.0,"dur":0.291333,"midi":65,"vel":0.52},{"id":"rh-88","t":38.25,"dur":0.291333,"midi":40,"vel":0.72},{"id":"lh-81","t":38.333333,"dur":0.291333,"midi":67,"vel":0.52},{"id":"rh-89","t":38.583333,"dur":0.291333,"midi":38,"vel":0.72},{"id":"lh-82","t":38.666667,"dur":0.291333,"midi":64,"vel":0.52},{"id":"rh-90","t":38.916667,"dur":0.291333,"midi":36,"vel":0.72},{"id":"lh-83","t":39.0,"dur":0.46,"midi":67,"vel":0.52},{"id":"rh-91","t":39.25,"dur":0.291333,"midi":35,"vel":0.72},{"id":"rh-92","t":39.583333,"dur":0.291333,"midi":25,"vel":0.72},{"id":"rh-93","t":39.916667,"dur":0.291333,"midi":26,"vel":0.72},{"id":"rh-94","t":40.0,"dur":0.291333,"midi":25,"vel":0.72},{"id":"lh-84","t":40.0,"dur":0.291333,"midi":65,"vel":0.52},{"id":"rh-95","t":40.333333,"dur":0.291333,"midi":26,"vel":0.72},{"id":"lh-85","t":40.333333,"dur":0.291333,"midi":69,"vel":0.52},{"id":"rh-96","t":40.666667,"dur":0.291333,"midi":28,"vel":0.72},{"id":"lh-86","t":40.666667,"dur":0.291333,"midi":58,"vel":0.52},{"id":"rh-97","t":41.0,"dur":0.46,"midi":26,"vel":0.72},{"id":"lh-87","t":41.0,"dur":0.291333,"midi":65,"vel":0.52},{"id":"lh-88","t":41.333333,"dur":0.291333,"midi":67,"vel":0.52},{"id":"rh-98","t":41.5,"dur":0.291333,"midi":29,"vel":0.72},{"id":"lh-89","t":41.666667,"dur":0.291333,"midi":69,"vel":0.52},{"id":"rh-99","t":41.833333,"dur":0.291333,"midi":35,"vel":0.72},{"id":"lh-90","t":42.0,"dur":0.291333,"midi":69,"vel":0.52},{"id":"rh-100","t":42.166667,"dur":0.291333,"midi":21,"vel":0.72},{"id":"lh-91","t":42.333333,"dur":0.291333,"midi":65,"vel":0.52},{"id":"lh-92","t":42.666667,"dur":0.291333,"midi":67,"vel":0.52},{"id":"lh-93","t":43.0,"dur":0.291333,"midi":62,"vel":0.52},{"id":"lh-94","t":43.333333,"dur":0.291333,"midi":64,"vel":0.52},{"id":"lh-95","t":43.666667,"dur":0.291333,"midi":65,"vel":0.52},{"id":"rh-101","t":44.0,"dur":0.291333,"midi":26,"vel":0.72},{"id":"lh-96","t":44.0,"dur":0.291333,"midi":65,"vel":0.52},{"id":"rh-102","t":44.333333,"dur":0.291333,"midi":20,"vel":0.72},{"id":"lh-97","t":44.333333,"dur":0.291333,"midi":62,"vel":0.52},{"id":"rh-103","t":44.666667,"dur":0.291333,"midi":6,"vel":0.72},{"id":"lh-98","t":44.666667,"dur":0.291333,"midi":64,"vel":0.52},{"id":"rh-104","t":45.0,"dur":0.291333,"midi":11,"vel":0.72},{"id":"lh-99","t":45.0,"dur":0.291333,"midi":59,"vel":0.52},{"id":"rh-105","t":45.333333,"dur":0.291333,"midi":12,"vel":0.72},{"id":"lh-100","t":45.333333,"dur":0.291333,"midi":60,"vel":0.52},{"id":"lh-101","t":45.666667,"dur":0.291333,"midi":62,"vel":0.52},{"id":"rh-106","t":46.0,"dur":0.92,"midi":14,"vel":0.72},{"id":"lh-102","t":46.0,"dur":0.291333,"midi":62,"vel":0.52},{"id":"lh-103","t":46.333333,"dur":0.291333,"midi":59,"vel":0.52},{"id":"lh-104","t":46.666667,"dur":0.291333,"midi":60,"vel":0.52},{"id":"lh-105","t":47.0,"dur":0.291333,"midi":56,"vel":0.52},{"id":"lh-106","t":47.333333,"dur":0.291333,"midi":57,"vel":0.52},{"id":"lh-107","t":47.666667,"dur":0.291333,"midi":59,"vel":0.52},{"id":"rh-107","t":48.0,"dur":0.291333,"midi":14,"vel":0.72},{"id":"rh-108","t":48.333333,"dur":0.291333,"midi":6,"vel":0.72},{"id":"rh-109","t":48.666667,"dur":0.291333,"midi":4,"vel":0.72},{"id":"rh-110","t":49.0,"dur":0.291333,"midi":9,"vel":0.72},{"id":"rh-111","t":49.333333,"dur":0.291333,"midi":8,"vel":0.72},{"id":"rh-112","t":49.666667,"dur":0.291333,"midi":6,"vel":0.72},{"id":"rh-113","t":50.0,"dur":0.291333,"midi":28,"vel":0.72},{"id":"rh-114","t":50.333333,"dur":0.291333,"midi":24,"vel":0.72},{"id":"rh-115","t":50.666667,"dur":0.291333,"midi":26,"vel":0.72},{"id":"rh-116","t":51.0,"dur":0.291333,"midi":26,"vel":0.72},{"id":"rh-117","t":51.333333,"dur":0.291333,"midi":23,"vel":0.72},{"id":"lh-108","t":51.541333,"dur":0.291333,"midi":59,"vel":0.52},{"id":"rh-118","t":51.666667,"dur":0.291333,"midi":24,"vel":0.72},{"id":"lh-109","t":51.874666,"dur":0.291333,"midi":52,"vel":0.52},{"id":"rh-119","t":52.0,"dur":0.291333,"midi":24,"vel":0.72},{"id":"lh-118","t":52.0,"dur":0.291333,"midi":57,"vel":0.52},{"id":"rh-120","t":52.333333,"dur":0.291333,"midi":20,"vel":0.72},{"id":"lh-119","t":52.333333,"dur":0.291333,"midi":59,"vel":0.52},{"id":"lh-110","t":52.541333,"dur":0.291333,"midi":62,"vel":0.52},{"id":"rh-121","t":52.666667,"dur":0.291333,"midi":33,"vel":0.72},{"id":"lh-120","t":52.666667,"dur":0.291333,"midi":60,"vel":0.52},{"id":"lh-111","t":52.874666,"dur":0.291333,"midi":64,"vel":0.52},{"id":"rh-122","t":53.0,"dur":0.291333,"midi":33,"vel":0.72},{"id":"lh-121","t":53.0,"dur":0.291333,"midi":60,"vel":0.52},{"id":"rh-123","t":53.333333,"dur":0.291333,"midi":29,"vel":0.72},{"id":"lh-122","t":53.333333,"dur":0.291333,"midi":62,"vel":0.52},{"id":"lh-112","t":53.541333,"dur":0.291333,"midi":60,"vel":0.52},{"id":"rh-124","t":53.666667,"dur":0.291333,"midi":28,"vel":0.72},{"id":"lh-123","t":53.666667,"dur":0.291333,"midi":64,"vel":0.52},{"id":"lh-113","t":53.874666,"dur":0.291333,"midi":57,"vel":0.52},{"id":"rh-125","t":54.0,"dur":0.291333,"midi":8,"vel":0.72},{"id":"lh-124","t":54.0,"dur":0.291333,"midi":57,"vel":0.52},{"id":"lh-114","t":54.208,"dur":0.291333,"midi":59,"vel":0.52},{"id":"rh-126","t":54.333333,"dur":0.291333,"midi":16,"vel":0.72},{"id":"lh-125","t":54.333333,"dur":0.291333,"midi":64,"vel":0.52},{"id":"lh-115","t":54.541333,"dur":0.291333,"midi":54,"vel":0.52},{"id":"rh-127","t":54.666667,"dur":0.291333,"midi":29,"vel":0.72},{"id":"lh-126","t":54.666667,"dur":0.291333,"midi":52,"vel":0.52},{"id":"lh-116","t":54.874666,"dur":0.291333,"midi":56,"vel":0.52},{"id":"rh-128","t":55.0,"dur":0.291333,"midi":24,"vel":0.72},{"id":"lh-127","t":55.0,"dur":0.46,"midi":52,"vel":0.52},{"id":"lh-117","t":55.208,"dur":0.291333,"midi":57,"vel":0.52},{"id":"rh-129","t":55.333333,"dur":0.291333,"midi":23,"vel":0.72},{"id":"rh-130","t":55.666667,"dur":0.291333,"midi":21,"vel":0.72},{"id":"rh-131","t":56.0,"dur":0.291333,"midi":21,"vel":0.72},{"id":"lh-128","t":56.0,"dur":0.291333,"midi":57,"vel":0.52},{"id":"rh-132","t":56.333333,"dur":0.291333,"midi":19,"vel":0.72},{"id":"lh-129","t":56.333333,"dur":0.291333,"midi":45,"vel":0.52},{"id":"rh-133","t":56.666667,"dur":0.291333,"midi":33,"vel":0.72},{"id":"rh-134","t":57.0,"dur":0.291333,"midi":28,"vel":0.72},{"id":"rh-135","t":57.333333,"dur":0.291333,"midi":29,"vel":0.72},{"id":"rh-136","t":57.666667,"dur":0.291333,"midi":31,"vel":0.72},{"id":"rh-137","t":58.0,"dur":1.84,"midi":31,"vel":0.72},{"id":"lh-130","t":58.25,"dur":0.291333,"midi":64,"vel":0.52},{"id":"lh-131","t":58.583333,"dur":0.291333,"midi":62,"vel":0.52},{"id":"lh-132","t":58.916667,"dur":0.291333,"midi":60,"vel":0.52},{"id":"lh-133","t":59.25,"dur":0.291333,"midi":59,"vel":0.52},{"id":"lh-134","t":59.583333,"dur":0.291333,"midi":49,"vel":0.52},{"id":"lh-135","t":59.916667,"dur":0.291333,"midi":50,"vel":0.52},{"id":"rh-138","t":60.0,"dur":0.291333,"midi":31,"vel":0.72},{"id":"lh-136","t":60.0,"dur":1.84,"midi":50,"vel":0.52},{"id":"rh-139","t":60.333333,"dur":0.291333,"midi":29,"vel":0.72},{"id":"rh-140","t":60.666667,"dur":0.291333,"midi":28,"vel":0.72},{"id":"rh-141","t":61.0,"dur":0.291333,"midi":33,"vel":0.72},{"id":"rh-142","t":61.333333,"dur":0.291333,"midi":31,"vel":0.72},{"id":"rh-143","t":61.666667,"dur":0.291333,"midi":29,"vel":0.72},{"id":"rh-144","t":62.0,"dur":1.84,"midi":29,"vel":0.72},{"id":"lh-137","t":62.0,"dur":0.291333,"midi":50,"vel":0.52},{"id":"lh-138","t":62.333333,"dur":0.291333,"midi":47,"vel":0.52},{"id":"lh-139","t":62.666667,"dur":0.291333,"midi":45,"vel":0.52},{"id":"lh-140","t":63.0,"dur":0.291333,"midi":50,"vel":0.52},{"id":"lh-141","t":63.333333,"dur":0.291333,"midi":48,"vel":0.52},{"id":"lh-142","t":63.666667,"dur":0.291333,"midi":47,"vel":0.52},{"id":"rh-145","t":64.0,"dur":0.291333,"midi":29,"vel":0.72},{"id":"lh-143","t":64.0,"dur":1.84,"midi":47,"vel":0.52},{"id":"rh-146","t":64.333333,"dur":0.291333,"midi":29,"vel":0.72},{"id":"rh-147","t":64.666667,"dur":0.291333,"midi":31,"vel":0.72},{"id":"rh-148","t":65.0,"dur":0.291333,"midi":26,"vel":0.72},{"id":"rh-149","t":65.333333,"dur":0.291333,"midi":28,"vel":0.72},{"id":"rh-150","t":65.666667,"dur":0.291333,"midi":29,"vel":0.72},{"id":"rh-151","t":66.0,"dur":1.84,"midi":29,"vel":0.72},{"id":"lh-144","t":66.0,"dur":0.291333,"midi":47,"vel":0.52},{"id":"lh-145","t":66.333333,"dur":0.291333,"midi":48,"vel":0.52},{"id":"lh-146","t":66.666667,"dur":0.291333,"midi":50,"vel":0.52},{"id":"lh-147","t":67.0,"dur":0.291333,"midi":45,"vel":0.52},{"id":"lh-148","t":67.333333,"dur":0.291333,"midi":47,"vel":0.52},{"id":"lh-149","t":67.666667,"dur":0.291333,"midi":48,"vel":0.52},{"id":"rh-152","t":68.0,"dur":0.291333,"midi":29,"vel":0.72},{"id":"lh-150","t":68.0,"dur":1.84,"midi":48,"vel":0.52},{"id":"rh-153","t":68.333333,"dur":0.291333,"midi":28,"vel":0.72},{"id":"rh-154","t":68.666667,"dur":0.291333,"midi":26,"vel":0.72},{"id":"rh-155","t":69.0,"dur":0.291333,"midi":31,"vel":0.72},{"id":"rh-156","t":69.333333,"dur":0.291333,"midi":29,"vel":0.72},{"id":"rh-157","t":69.666667,"dur":0.291333,"midi":28,"vel":0.72},{"id":"rh-158","t":70.0,"dur":1.84,"midi":28,"vel":0.72},{"id":"lh-151","t":70.0,"dur":0.291333,"midi":48,"vel":0.52},{"id":"lh-152","t":70.333333,"dur":0.291333,"midi":45,"vel":0.52},{"id":"lh-153","t":70.666667,"dur":0.291333,"midi":43,"vel":0.52},{"id":"lh-154","t":71.0,"dur":0.291333,"midi":48,"vel":0.52},{"id":"lh-155","t":71.333333,"dur":0.291333,"midi":46,"vel":0.52},{"id":"lh-156","t":71.666667,"dur":0.291333,"midi":57,"vel":0.52},{"id":"rh-159","t":72.0,"dur":0.291333,"midi":28,"vel":0.72},{"id":"rh-160","t":72.333333,"dur":0.291333,"midi":26,"vel":0.72},{"id":"rh-161","t":72.666667,"dur":0.291333,"midi":24,"vel":0.72},{"id":"rh-162","t":73.0,"dur":0.291333,"midi":29,"vel":0.72},{"id":"rh-163","t":73.333333,"dur":0.291333,"midi":28,"vel":0.72},{"id":"rh-164","t":73.666667,"dur":0.291333,"midi":26,"vel":0.72},{"id":"rh-165","t":74.0,"dur":0.291333,"midi":26,"vel":0.72},{"id":"rh-166","t":74.333333,"dur":0.291333,"midi":29,"vel":0.72},{"id":"rh-167","t":74.666667,"dur":0.291333,"midi":28,"vel":0.72},{"id":"rh-168","t":75.0,"dur":0.291333,"midi":33,"vel":0.72},{"id":"rh-169","t":75.333333,"dur":0.291333,"midi":31,"vel":0.72},{"id":"lh-157","t":75.541333,"dur":0.291333,"midi":46,"vel":0.52},{"id":"rh-170","t":75.666667,"dur":0.291333,"midi":29,"vel":0.72},{"id":"lh-158","t":75.874666,"dur":0.291333,"midi":57,"vel":0.52},{"id":"rh-171","t":76.0,"dur":0.291333,"midi":29,"vel":0.72},{"id":"lh-164","t":76.0,"dur":0.291333,"midi":57,"vel":0.52},{"id":"lh-159","t":76.208,"dur":0.291333,"midi":55,"vel":0.52},{"id":"rh-172","t":76.333333,"dur":0.291333,"midi":33,"vel":0.72},{"id":"lh-165","t":76.333333,"dur":0.291333,"midi":52,"vel":0.52},{"id":"lh-160","t":76.541333,"dur":0.46,"midi":57,"vel":0.52},{"id":"rh-173","t":76.666667,"dur":0.291333,"midi":31,"vel":0.72},{"id":"lh-166","t":76.666667,"dur":0.291333,"midi":65,"vel":0.52},{"id":"rh-174","t":77.0,"dur":0.291333,"midi":36,"vel":0.72},{"id":"lh-167","t":77.0,"dur":0.291333,"midi":64,"vel":0.52},{"id":"lh-161","t":77.041333,"dur":0.291333,"midi":53,"vel":0.52},{"id":"rh-175","t":77.333333,"dur":0.291333,"midi":35,"vel":0.72},{"id":"lh-168","t":77.333333,"dur":0.291333,"midi":64,"vel":0.52},{"id":"lh-162","t":77.374666,"dur":0.291333,"midi":48,"vel":0.52},{"id":"rh-176","t":77.666667,"dur":0.291333,"midi":33,"vel":0.72},{"id":"lh-169","t":77.666667,"dur":0.291333,"midi":50,"vel":0.52},{"id":"lh-163","t":77.708,"dur":0.291333,"midi":62,"vel":0.52},{"id":"rh-177","t":78.0,"dur":0.291333,"midi":36,"vel":0.72},{"id":"lh-170","t":78.0,"dur":0.291333,"midi":55,"vel":0.52},{"id":"rh-178","t":78.333333,"dur":0.291333,"midi":31,"vel":0.72},{"id":"lh-171","t":78.333333,"dur":0.291333,"midi":53,"vel":0.52},{"id":"lh-172","t":78.666667,"dur":0.291333,"midi":52,"vel":0.52},{"id":"rh-179","t":79.0,"dur":0.291333,"midi":28,"vel":0.72},{"id":"rh-180","t":79.333333,"dur":0.291333,"midi":26,"vel":0.72},{"id":"rh-181","t":79.666667,"dur":0.291333,"midi":24,"vel":0.72},{"id":"rh-182","t":80.0,"dur":0.291333,"midi":24,"vel":0.72},{"id":"rh-183","t":80.333333,"dur":0.291333,"midi":21,"vel":0.72},{"id":"rh-184","t":80.666667,"dur":0.291333,"midi":10,"vel":0.72},{"id":"rh-185","t":81.0,"dur":0.291333,"midi":17,"vel":0.72},{"id":"rh-186","t":81.333333,"dur":0.291333,"midi":19,"vel":0.72},{"id":"rh-187","t":81.666667,"dur":0.291333,"midi":21,"vel":0.72},{"id":"rh-188","t":82.0,"dur":0.291333,"midi":21,"vel":0.72},{"id":"rh-189","t":82.333333,"dur":0.291333,"midi":24,"vel":0.72},{"id":"rh-190","t":82.666667,"dur":0.291333,"midi":23,"vel":0.72},{"id":"rh-191","t":83.0,"dur":0.291333,"midi":26,"vel":0.72},{"id":"rh-192","t":83.333333,"dur":0.291333,"midi":17,"vel":0.72},{"id":"lh-173","t":83.541333,"dur":0.291333,"midi":48,"vel":0.52},{"id":"rh-193","t":83.666667,"dur":0.291333,"midi":24,"vel":0.72},{"id":"lh-174","t":83.874666,"dur":0.291333,"midi":50,"vel":0.52},{"id":"rh-194","t":84.0,"dur":3.68,"midi":24,"vel":0.72},{"id":"lh-182","t":84.0,"dur":3.68,"midi":48,"vel":0.52},{"id":"lh-175","t":84.208,"dur":0.291333,"midi":52,"vel":0.52},{"id":"lh-176","t":84.541333,"dur":0.46,"midi":52,"vel":0.52},{"id":"lh-177","t":85.041333,"dur":0.291333,"midi":53,"vel":0.52},{"id":"lh-178","t":85.374666,"dur":0.291333,"midi":52,"vel":0.52},{"id":"lh-179","t":85.708,"dur":0.291333,"midi":50,"vel":0.52},{"id":"lh-180","t":86.041333,"dur":0.291333,"midi":55,"vel":0.52},{"id":"lh-181","t":86.374666,"dur":0.291333,"midi":43,"vel":0.52}]