<!DOCTYPE html>
<html lang="zh-CN">
<head>
<meta charset="UTF-8"/>
<title>BWV 772a 图形标注</title>
<style>
* { box-sizing: border-box; }
body { margin: 0; font: 13px/1.35 system-ui, sans-serif; background: #121212; color: #e8e8e8; }
header { padding: 12px 16px; background: #1e1e1e; border-bottom: 1px solid #333; position: sticky; top: 0; z-index: 2; }
h1 { margin: 0 0 6px; font-size: 17px; }
.legend { color: #aaa; max-width: 920px; }
.legend b { color: #8cf; }
#toolbar { margin-top: 8px; display: flex; gap: 8px; flex-wrap: wrap; align-items: center; }
#numPad { display: flex; gap: 4px; flex-wrap: wrap; }
#numPad button {
  min-width: 36px; padding: 8px 10px; font-weight: bold; font-size: 14px;
}
#numPad button.active { background: #ffb040; color: #111; border-color: #ffb040; }
button { padding: 6px 12px; cursor: pointer; border: 1px solid #555; background: #2a2a2a; color: #eee; border-radius: 4px; }
.bar-block { margin: 16px; padding: 12px; background: #1a1a1a; border: 1px solid #333; border-radius: 8px; }
.bar-block.subject { border-color: #4a7ab8; }
.bar-block h2 { margin: 0 0 8px; font-size: 15px; }
.bar-block h2 .tag { color: #8cf; font-weight: normal; }
canvas { display: block; width: 100%; max-width: 920px; height: auto; cursor: crosshair; background: #0d0d0d; border-radius: 4px; }
.hint { color: #888; font-size: 12px; margin-top: 6px; }
</style>
</head>
<body>
<header>
<h1>BWV 772 — 主题 1–10 手动标注</h1>
<div class="legend">
<b>标尺：</b>每小节固定 <b>8 格</b>，每格 = <b>1 个八分音符</b>（4/4 小节共 8 个八分音）。虚线不动，音符按 MIDI 时间画。<br/>
<b>第 10 音</b> 可能在下一小节 — 主题小节右侧灰色区是<strong>下小节第 1 拍</strong>，也可点选。<br/>
<b>说明：</b>左右手各自可标 1–10，同一小节里 RH 和 LH 可以有相同数字。
</div>
<div id="toolbar">
<div id="numPad"></div>
<button id="save">导出 subject_map.json</button>
<button id="undo">撤销</button>
<button id="clear">清除全部</button>
<span id="status">当前选中：<b>1</b></span>
</div>
</header>
<div id="root"></div>
<script>
const BARS = [{"bar": 1, "step": "subject", "subject": true, "rh": [{"id": "rh-0", "beat": 0.25, "midi": 72, "name": "C5", "dur": 0.23, "vel": 0.72}, {"id": "rh-1", "beat": 0.5, "midi": 74, "name": "D5", "dur": 0.23, "vel": 0.72}, {"id": "rh-2", "beat": 0.75, "midi": 76, "name": "E5", "dur": 0.23, "vel": 0.72}, {"id": "rh-b0-t0-n0", "beat": 1.0, "midi": 77, "name": "F5", "dur": 0.153333, "vel": 0.72}, {"id": "rh-b0-t0-n1", "beat": 1.1667, "midi": 76, "name": "E5", "dur": 0.153333, "vel": 0.72}, {"id": "rh-b0-t0-n2", "beat": 1.3333, "midi": 74, "name": "D5", "dur": 0.153333, "vel": 0.72}, {"id": "rh-b0-t1-n0", "beat": 1.5, "midi": 76, "name": "E5", "dur": 0.153333, "vel": 0.72}, {"id": "rh-b0-t1-n1", "beat": 1.6667, "midi": 74, "name": "D5", "dur": 0.153333, "vel": 0.72}, {"id": "rh-b0-t1-n2", "beat": 1.8333, "midi": 72, "name": "C5", "dur": 0.153333, "vel": 0.72}, {"id": "rh-7", "beat": 2.0, "midi": 79, "name": "G5", "dur": 0.46, "vel": 0.72}, {"id": "rh-8", "beat": 2.5, "midi": 84, "name": "C6", "dur": 0.46, "vel": 0.72}, {"id": "rh-9", "beat": 3.0, "midi": 84, "name": "C6", "dur": 0.076667, "vel": 0.72}, {"id": "rh-10", "beat": 3.0833, "midi": 83, "name": "B5", "dur": 0.076667, "vel": 0.72}, {"id": "rh-11", "beat": 3.1667, "midi": 84, "name": "C6", "dur": 0.076667, "vel": 0.72}, {"id": "rh-12", "beat": 3.25, "midi": 83, "name": "B5", "dur": 0.23, "vel": 0.72}, {"id": "rh-13", "beat": 3.5, "midi": 84, "name": "C6", "dur": 0.46, "vel": 0.72}], "lh": [{"id": "lh-0", "beat": 2.25, "midi": 48, "name": "C3", "dur": 0.23, "vel": 0.52}, {"id": "lh-1", "beat": 2.5, "midi": 50, "name": "D3", "dur": 0.23, "vel": 0.52}, {"id": "lh-2", "beat": 2.75, "midi": 52, "name": "E3", "dur": 0.23, "vel": 0.52}, {"id": "lh-b0-t0-n0", "beat": 3.0, "midi": 53, "name": "F3", "dur": 0.153333, "vel": 0.52}, {"id": "lh-b0-t0-n1", "beat": 3.1667, "midi": 52, "name": "E3", "dur": 0.153333, "vel": 0.52}, {"id": "lh-b0-t0-n2", "beat": 3.3333, "midi": 50, "name": "D3", "dur": 0.153333, "vel": 0.52}, {"id": "lh-b0-t1-n0", "beat": 3.5, "midi": 52, "name": "E3", "dur": 0.153333, "vel": 0.52}, {"id": "lh-b0-t1-n1", "beat": 3.6667, "midi": 50, "name": "D3", "dur": 0.153333, "vel": 0.52}, {"id": "lh-b0-t1-n2", "beat": 3.8333, "midi": 48, "name": "C3", "dur": 0.153333, "vel": 0.52}], "spill_rh": [{"id": "rh-14", "beat": 4.0, "midi": 86, "name": "D6", "dur": 0.23, "vel": 0.72, "spill": true}, {"id": "rh-15", "beat": 4.25, "midi": 79, "name": "G5", "dur": 0.23, "vel": 0.72, "spill": true}, {"id": "rh-16", "beat": 4.5, "midi": 81, "name": "A5", "dur": 0.23, "vel": 0.72, "spill": true}, {"id": "rh-17", "beat": 4.75, "midi": 83, "name": "B5", "dur": 0.23, "vel": 0.72, "spill": true}], "spill_lh": [{"id": "lh-7", "beat": 4.0, "midi": 55, "name": "G3", "dur": 0.46, "vel": 0.52, "spill": true}, {"id": "lh-8", "beat": 4.5, "midi": 43, "name": "G2", "dur": 0.46, "vel": 0.52, "spill": true}]}, {"bar": 2, "step": "subject", "subject": true, "rh": [{"id": "rh-14", "beat": 0.0, "midi": 86, "name": "D6", "dur": 0.23, "vel": 0.72}, {"id": "rh-15", "beat": 0.25, "midi": 79, "name": "G5", "dur": 0.23, "vel": 0.72}, {"id": "rh-16", "beat": 0.5, "midi": 81, "name": "A5", "dur": 0.23, "vel": 0.72}, {"id": "rh-17", "beat": 0.75, "midi": 83, "name": "B5", "dur": 0.23, "vel": 0.72}, {"id": "rh-b1-t0-n0", "beat": 1.0, "midi": 84, "name": "C6", "dur": 0.153333, "vel": 0.72}, {"id": "rh-b1-t0-n1", "beat": 1.1667, "midi": 83, "name": "B5", "dur": 0.153333, "vel": 0.72}, {"id": "rh-b1-t0-n2", "beat": 1.3333, "midi": 81, "name": "A5", "dur": 0.153333, "vel": 0.72}, {"id": "rh-b1-t1-n0", "beat": 1.5, "midi": 83, "name": "B5", "dur": 0.153333, "vel": 0.72}, {"id": "rh-b1-t1-n1", "beat": 1.6667, "midi": 81, "name": "A5", "dur": 0.153333, "vel": 0.72}, {"id": "rh-b1-t1-n2", "beat": 1.8333, "midi": 79, "name": "G5", "dur": 0.153333, "vel": 0.72}, {"id": "rh-22", "beat": 2.0, "midi": 86, "name": "D6", "dur": 0.46, "vel": 0.72}, {"id": "rh-23", "beat": 2.5, "midi": 91, "name": "G6", "dur": 0.46, "vel": 0.72}, {"id": "rh-24", "beat": 3.0, "midi": 91, "name": "G6", "dur": 0.076667, "vel": 0.72}, {"id": "rh-25", "beat": 3.0833, "midi": 89, "name": "F6", "dur": 0.076667, "vel": 0.72}, {"id": "rh-26", "beat": 3.1667, "midi": 91, "name": "G6", "dur": 0.076667, "vel": 0.72}, {"id": "rh-27", "beat": 3.25, "midi": 89, "name": "F6", "dur": 0.23, "vel": 0.72}, {"id": "rh-28", "beat": 3.5, "midi": 91, "name": "G6", "dur": 0.46, "vel": 0.72}], "lh": [{"id": "lh-7", "beat": 0.0, "midi": 55, "name": "G3", "dur": 0.46, "vel": 0.52}, {"id": "lh-8", "beat": 0.5, "midi": 43, "name": "G2", "dur": 0.46, "vel": 0.52}, {"id": "lh-9", "beat": 2.25, "midi": 55, "name": "G3", "dur": 0.23, "vel": 0.52}, {"id": "lh-10", "beat": 2.5, "midi": 57, "name": "A3", "dur": 0.23, "vel": 0.52}, {"id": "lh-11", "beat": 2.75, "midi": 59, "name": "B3", "dur": 0.23, "vel": 0.52}, {"id": "lh-b1-t0-n0", "beat": 3.0, "midi": 60, "name": "C4", "dur": 0.153333, "vel": 0.52}, {"id": "lh-b1-t0-n1", "beat": 3.1667, "midi": 59, "name": "B3", "dur": 0.153333, "vel": 0.52}, {"id": "lh-b1-t0-n2", "beat": 3.3333, "midi": 57, "name": "A3", "dur": 0.153333, "vel": 0.52}, {"id": "lh-b1-t1-n0", "beat": 3.5, "midi": 59, "name": "B3", "dur": 0.153333, "vel": 0.52}, {"id": "lh-b1-t1-n1", "beat": 3.6667, "midi": 57, "name": "A3", "dur": 0.153333, "vel": 0.52}, {"id": "lh-b1-t1-n2", "beat": 3.8333, "midi": 55, "name": "G3", "dur": 0.153333, "vel": 0.52}], "spill_rh": [{"id": "rh-29", "beat": 4.0, "midi": 88, "name": "E6", "dur": 0.23, "vel": 0.72, "spill": true}, {"id": "rh-30", "beat": 4.25, "midi": 93, "name": "A6", "dur": 0.23, "vel": 0.72, "spill": true}, {"id": "rh-31", "beat": 4.5, "midi": 91, "name": "G6", "dur": 0.23, "vel": 0.72, "spill": true}, {"id": "rh-32", "beat": 4.75, "midi": 89, "name": "F6", "dur": 0.23, "vel": 0.72, "spill": true}], "spill_lh": [{"id": "lh-16", "beat": 4.0, "midi": 60, "name": "C4", "dur": 0.46, "vel": 0.52, "spill": true}, {"id": "lh-17", "beat": 4.5, "midi": 59, "name": "B3", "dur": 0.46, "vel": 0.52, "spill": true}]}, {"bar": 3, "step": "subject", "subject": true, "rh": [{"id": "rh-29", "beat": 0.0, "midi": 88, "name": "E6", "dur": 0.23, "vel": 0.72}, {"id": "rh-30", "beat": 0.25, "midi": 93, "name": "A6", "dur": 0.23, "vel": 0.72}, {"id": "rh-31", "beat": 0.5, "midi": 91, "name": "G6", "dur": 0.23, "vel": 0.72}, {"id": "rh-32", "beat": 0.75, "midi": 89, "name": "F6", "dur": 0.23, "vel": 0.72}, {"id": "rh-b2-t0-n0", "beat": 1.0, "midi": 88, "name": "E6", "dur": 0.153333, "vel": 0.72}, {"id": "rh-b2-t0-n1", "beat": 1.1667, "midi": 89, "name": "F6", "dur": 0.153333, "vel": 0.72}, {"id": "rh-b2-t0-n2", "beat": 1.3333, "midi": 91, "name": "G6", "dur": 0.153333, "vel": 0.72}, {"id": "rh-b2-t1-n0", "beat": 1.5, "midi": 89, "name": "F6", "dur": 0.153333, "vel": 0.72}, {"id": "rh-b2-t1-n1", "beat": 1.6667, "midi": 91, "name": "G6", "dur": 0.153333, "vel": 0.72}, {"id": "rh-b2-t1-n2", "beat": 1.8333, "midi": 93, "name": "A6", "dur": 0.153333, "vel": 0.72}, {"id": "rh-37", "beat": 2.0, "midi": 91, "name": "G6", "dur": 0.23, "vel": 0.72}, {"id": "rh-38", "beat": 2.25, "midi": 89, "name": "F6", "dur": 0.23, "vel": 0.72}, {"id": "rh-39", "beat": 2.5, "midi": 88, "name": "E6", "dur": 0.23, "vel": 0.72}, {"id": "rh-40", "beat": 2.75, "midi": 86, "name": "D6", "dur": 0.23, "vel": 0.72}, {"id": "rh-b2-t2-n0", "beat": 3.0, "midi": 84, "name": "C6", "dur": 0.153333, "vel": 0.72}, {"id": "rh-b2-t2-n1", "beat": 3.1667, "midi": 86, "name": "D6", "dur": 0.153333, "vel": 0.72}, {"id": "rh-b2-t2-n2", "beat": 3.3333, "midi": 88, "name": "E6", "dur": 0.153333, "vel": 0.72}, {"id": "rh-b2-t3-n0", "beat": 3.5, "midi": 86, "name": "D6", "dur": 0.153333, "vel": 0.72}, {"id": "rh-b2-t3-n1", "beat": 3.6667, "midi": 88, "name": "E6", "dur": 0.153333, "vel": 0.72}, {"id": "rh-b2-t3-n2", "beat": 3.8333, "midi": 89, "name": "F6", "dur": 0.153333, "vel": 0.72}], "lh": [{"id": "lh-16", "beat": 0.0, "midi": 60, "name": "C4", "dur": 0.46, "vel": 0.52}, {"id": "lh-17", "beat": 0.5, "midi": 59, "name": "B3", "dur": 0.46, "vel": 0.52}, {"id": "lh-18", "beat": 1.0, "midi": 60, "name": "C4", "dur": 0.46, "vel": 0.52}, {"id": "lh-19", "beat": 1.5, "midi": 62, "name": "D4", "dur": 0.46, "vel": 0.52}, {"id": "lh-20", "beat": 2.0, "midi": 64, "name": "E4", "dur": 0.46, "vel": 0.52}, {"id": "lh-21", "beat": 2.5, "midi": 55, "name": "G3", "dur": 0.46, "vel": 0.52}, {"id": "lh-22", "beat": 3.0, "midi": 57, "name": "A3", "dur": 0.46, "vel": 0.52}, {"id": "lh-23", "beat": 3.5, "midi": 59, "name": "B3", "dur": 0.46, "vel": 0.52}], "spill_rh": [{"id": "rh-45", "beat": 4.0, "midi": 88, "name": "E6", "dur": 0.23, "vel": 0.72, "spill": true}, {"id": "rh-46", "beat": 4.25, "midi": 86, "name": "D6", "dur": 0.23, "vel": 0.72, "spill": true}, {"id": "rh-47", "beat": 4.5, "midi": 84, "name": "C6", "dur": 0.23, "vel": 0.72, "spill": true}, {"id": "rh-48", "beat": 4.75, "midi": 83, "name": "B5", "dur": 0.23, "vel": 0.72, "spill": true}], "spill_lh": [{"id": "lh-24", "beat": 4.0, "midi": 60, "name": "C4", "dur": 0.46, "vel": 0.52, "spill": true}, {"id": "lh-25", "beat": 4.5, "midi": 52, "name": "E3", "dur": 0.46, "vel": 0.52, "spill": true}]}, {"bar": 4, "step": "flat", "subject": false, "rh": [{"id": "rh-45", "beat": 0.0, "midi": 88, "name": "E6", "dur": 0.23, "vel": 0.72}, {"id": "rh-46", "beat": 0.25, "midi": 86, "name": "D6", "dur": 0.23, "vel": 0.72}, {"id": "rh-47", "beat": 0.5, "midi": 84, "name": "C6", "dur": 0.23, "vel": 0.72}, {"id": "rh-48", "beat": 0.75, "midi": 83, "name": "B5", "dur": 0.23, "vel": 0.72}, {"id": "rh-b3-t0-n0", "beat": 1.0, "midi": 81, "name": "A5", "dur": 0.153333, "vel": 0.72}, {"id": "rh-b3-t0-n1", "beat": 1.1667, "midi": 83, "name": "B5", "dur": 0.153333, "vel": 0.72}, {"id": "rh-b3-t0-n2", "beat": 1.3333, "midi": 84, "name": "C6", "dur": 0.153333, "vel": 0.72}, {"id": "rh-b3-t1-n0", "beat": 1.5, "midi": 83, "name": "B5", "dur": 0.153333, "vel": 0.72}, {"id": "rh-b3-t1-n1", "beat": 1.6667, "midi": 84, "name": "C6", "dur": 0.153333, "vel": 0.72}, {"id": "rh-b3-t1-n2", "beat": 1.8333, "midi": 86, "name": "D6", "dur": 0.153333, "vel": 0.72}, {"id": "rh-53", "beat": 2.0, "midi": 84, "name": "C6", "dur": 0.23, "vel": 0.72}, {"id": "rh-54", "beat": 2.25, "midi": 83, "name": "B5", "dur": 0.23, "vel": 0.72}, {"id": "rh-55", "beat": 2.5, "midi": 81, "name": "A5", "dur": 0.23, "vel": 0.72}, {"id": "rh-56", "beat": 2.75, "midi": 79, "name": "G5", "dur": 0.23, "vel": 0.72}, {"id": "rh-b3-t2-n0", "beat": 3.0, "midi": 78, "name": "F#5", "dur": 0.153333, "vel": 0.72}, {"id": "rh-b3-t2-n1", "beat": 3.1667, "midi": 79, "name": "G5", "dur": 0.153333, "vel": 0.72}, {"id": "rh-b3-t2-n2", "beat": 3.3333, "midi": 81, "name": "A5", "dur": 0.153333, "vel": 0.72}, {"id": "rh-b3-t3-n0", "beat": 3.5, "midi": 79, "name": "G5", "dur": 0.153333, "vel": 0.72}, {"id": "rh-b3-t3-n1", "beat": 3.6667, "midi": 81, "name": "A5", "dur": 0.153333, "vel": 0.72}, {"id": "rh-b3-t3-n2", "beat": 3.8333, "midi": 83, "name": "B5", "dur": 0.153333, "vel": 0.72}], "lh": [{"id": "lh-24", "beat": 0.0, "midi": 60, "name": "C4", "dur": 0.46, "vel": 0.52}, {"id": "lh-25", "beat": 0.5, "midi": 52, "name": "E3", "dur": 0.46, "vel": 0.52}, {"id": "lh-26", "beat": 1.0, "midi": 54, "name": "F#3", "dur": 0.46, "vel": 0.52}, {"id": "lh-27", "beat": 1.5, "midi": 55, "name": "G3", "dur": 0.46, "vel": 0.52}, {"id": "lh-28", "beat": 2.0, "midi": 57, "name": "A3", "dur": 0.46, "vel": 0.52}, {"id": "lh-29", "beat": 2.5, "midi": 59, "name": "B3", "dur": 0.46, "vel": 0.52}, {"id": "lh-30", "beat": 3.0, "midi": 60, "name": "C4", "dur": 1.111667, "vel": 0.52}], "spill_rh": [], "spill_lh": []}, {"bar": 5, "step": "subject", "subject": true, "rh": [{"id": "rh-61", "beat": 0.0, "midi": 81, "name": "A5", "dur": 0.46, "vel": 0.72}, {"id": "rh-62", "beat": 0.5, "midi": 74, "name": "D5", "dur": 0.46, "vel": 0.72}, {"id": "rh-63", "beat": 1.0, "midi": 84, "name": "C6", "dur": 0.115, "vel": 0.72}, {"id": "rh-64", "beat": 1.125, "midi": 83, "name": "B5", "dur": 0.115, "vel": 0.72}, {"id": "rh-65", "beat": 1.25, "midi": 84, "name": "C6", "dur": 0.46, "vel": 0.72}, {"id": "rh-66", "beat": 1.75, "midi": 86, "name": "D6", "dur": 0.23, "vel": 0.72}, {"id": "rh-67", "beat": 2.0, "midi": 83, "name": "B5", "dur": 0.23, "vel": 0.72}, {"id": "rh-68", "beat": 2.25, "midi": 81, "name": "A5", "dur": 0.23, "vel": 0.72}, {"id": "rh-69", "beat": 2.5, "midi": 79, "name": "G5", "dur": 0.23, "vel": 0.72}, {"id": "rh-70", "beat": 2.75, "midi": 78, "name": "F#5", "dur": 0.23, "vel": 0.72}, {"id": "rh-b4-t0-n0", "beat": 3.0, "midi": 76, "name": "E5", "dur": 0.153333, "vel": 0.72}, {"id": "rh-b4-t0-n1", "beat": 3.1667, "midi": 78, "name": "F#5", "dur": 0.153333, "vel": 0.72}, {"id": "rh-b4-t0-n2", "beat": 3.3333, "midi": 79, "name": "G5", "dur": 0.153333, "vel": 0.72}, {"id": "rh-b4-t1-n0", "beat": 3.5, "midi": 78, "name": "F#5", "dur": 0.153333, "vel": 0.72}, {"id": "rh-b4-t1-n1", "beat": 3.6667, "midi": 79, "name": "G5", "dur": 0.153333, "vel": 0.72}, {"id": "rh-b4-t1-n2", "beat": 3.8333, "midi": 81, "name": "A5", "dur": 0.153333, "vel": 0.72}], "lh": [{"id": "lh-31", "beat": 0.25, "midi": 50, "name": "D3", "dur": 0.23, "vel": 0.52}, {"id": "lh-32", "beat": 0.5, "midi": 52, "name": "E3", "dur": 0.23, "vel": 0.52}, {"id": "lh-33", "beat": 0.75, "midi": 54, "name": "F#3", "dur": 0.23, "vel": 0.52}, {"id": "lh-b4-t0-n0", "beat": 1.0, "midi": 55, "name": "G3", "dur": 0.153333, "vel": 0.52}, {"id": "lh-b4-t0-n1", "beat": 1.1667, "midi": 54, "name": "F#3", "dur": 0.153333, "vel": 0.52}, {"id": "lh-b4-t0-n2", "beat": 1.3333, "midi": 52, "name": "E3", "dur": 0.153333, "vel": 0.52}, {"id": "lh-b4-t1-n0", "beat": 1.5, "midi": 54, "name": "F#3", "dur": 0.153333, "vel": 0.52}, {"id": "lh-b4-t1-n1", "beat": 1.6667, "midi": 52, "name": "E3", "dur": 0.153333, "vel": 0.52}, {"id": "lh-b4-t1-n2", "beat": 1.8333, "midi": 50, "name": "D3", "dur": 0.153333, "vel": 0.52}, {"id": "lh-38", "beat": 2.0, "midi": 55, "name": "G3", "dur": 0.46, "vel": 0.52}, {"id": "lh-39", "beat": 2.5, "midi": 47, "name": "B2", "dur": 0.46, "vel": 0.52}, {"id": "lh-40", "beat": 3.0, "midi": 48, "name": "C3", "dur": 0.46, "vel": 0.52}, {"id": "lh-41", "beat": 3.5, "midi": 50, "name": "D3", "dur": 0.46, "vel": 0.52}], "spill_rh": [{"id": "rh-75", "beat": 4.0, "midi": 79, "name": "G5", "dur": 0.23, "vel": 0.72, "spill": true}, {"id": "rh-76", "beat": 4.25, "midi": 83, "name": "B5", "dur": 0.23, "vel": 0.72, "spill": true}, {"id": "rh-77", "beat": 4.5, "midi": 81, "name": "A5", "dur": 0.23, "vel": 0.72, "spill": true}, {"id": "rh-78", "beat": 4.75, "midi": 84, "name": "C6", "dur": 0.23, "vel": 0.72, "spill": true}], "spill_lh": [{"id": "lh-42", "beat": 4.0, "midi": 52, "name": "E3", "dur": 0.46, "vel": 0.52, "spill": true}, {"id": "lh-43", "beat": 4.5, "midi": 54, "name": "F#3", "dur": 0.46, "vel": 0.52, "spill": true}]}, {"bar": 6, "step": "subject", "subject": true, "rh": [{"id": "rh-75", "beat": 0.0, "midi": 79, "name": "G5", "dur": 0.23, "vel": 0.72}, {"id": "rh-76", "beat": 0.25, "midi": 83, "name": "B5", "dur": 0.23, "vel": 0.72}, {"id": "rh-77", "beat": 0.5, "midi": 81, "name": "A5", "dur": 0.23, "vel": 0.72}, {"id": "rh-78", "beat": 0.75, "midi": 84, "name": "C6", "dur": 0.23, "vel": 0.72}, {"id": "rh-b5-t0-n0", "beat": 1.0, "midi": 83, "name": "B5", "dur": 0.153333, "vel": 0.72}, {"id": "rh-b5-t0-n1", "beat": 1.1667, "midi": 84, "name": "C6", "dur": 0.153333, "vel": 0.72}, {"id": "rh-b5-t0-n2", "beat": 1.3333, "midi": 86, "name": "D6", "dur": 0.153333, "vel": 0.72}, {"id": "rh-b5-t1-n0", "beat": 1.5, "midi": 84, "name": "C6", "dur": 0.153333, "vel": 0.72}, {"id": "rh-b5-t1-n1", "beat": 1.6667, "midi": 86, "name": "D6", "dur": 0.153333, "vel": 0.72}, {"id": "rh-b5-t1-n2", "beat": 1.8333, "midi": 88, "name": "E6", "dur": 0.153333, "vel": 0.72}, {"id": "rh-83", "beat": 2.0, "midi": 86, "name": "D6", "dur": 0.23, "vel": 0.72}, {"id": "rh-84", "beat": 2.25, "midi": 83, "name": "B5", "dur": 0.115, "vel": 0.72}, {"id": "rh-85", "beat": 2.375, "midi": 84, "name": "C6", "dur": 0.115, "vel": 0.72}, {"id": "rh-86", "beat": 2.5, "midi": 86, "name": "D6", "dur": 0.23, "vel": 0.72}, {"id": "rh-87", "beat": 2.75, "midi": 91, "name": "G6", "dur": 0.23, "vel": 0.72}, {"id": "rh-fix6-n0", "beat": 3.0, "midi": 83, "name": "B5", "dur": 0.153333, "vel": 0.72}, {"id": "rh-fix6-n1", "beat": 3.1667, "midi": 84, "name": "C6", "dur": 0.153333, "vel": 0.72}, {"id": "rh-fix6-n2", "beat": 3.3333, "midi": 83, "name": "B5", "dur": 0.153333, "vel": 0.72}, {"id": "rh-fix6-n3", "beat": 3.5, "midi": 83, "name": "B5", "dur": 0.153333, "vel": 0}, {"id": "rh-fix6-n4", "beat": 3.6667, "midi": 81, "name": "A5", "dur": 0.153333, "vel": 0.72}, {"id": "rh-fix6-n5", "beat": 3.8333, "midi": 79, "name": "G5", "dur": 0.153333, "vel": 0.72}], "lh": [{"id": "lh-42", "beat": 0.0, "midi": 52, "name": "E3", "dur": 0.46, "vel": 0.52}, {"id": "lh-43", "beat": 0.5, "midi": 54, "name": "F#3", "dur": 0.46, "vel": 0.52}, {"id": "lh-44", "beat": 1.0, "midi": 55, "name": "G3", "dur": 0.46, "vel": 0.52}, {"id": "lh-45", "beat": 1.5, "midi": 52, "name": "E3", "dur": 0.46, "vel": 0.52}, {"id": "lh-46", "beat": 2.0, "midi": 47, "name": "B2", "dur": 0.69, "vel": 0.52}, {"id": "lh-47", "beat": 2.75, "midi": 48, "name": "C3", "dur": 0.23, "vel": 0.52}, {"id": "lh-48", "beat": 3.0, "midi": 50, "name": "D3", "dur": 0.46, "vel": 0.52}, {"id": "lh-49", "beat": 3.5, "midi": 38, "name": "D2", "dur": 0.46, "vel": 0.52}], "spill_rh": [{"id": "rh-94", "beat": 4.0, "midi": 79, "name": "G5", "dur": 0.46, "vel": 0.72, "spill": true}], "spill_lh": [{"id": "lh-50", "beat": 4.25, "midi": 43, "name": "G2", "dur": 0.23, "vel": 0.52, "spill": true}, {"id": "lh-51", "beat": 4.5, "midi": 45, "name": "A2", "dur": 0.23, "vel": 0.52, "spill": true}, {"id": "lh-52", "beat": 4.75, "midi": 47, "name": "B2", "dur": 0.23, "vel": 0.52, "spill": true}]}, {"bar": 7, "step": "flat", "subject": false, "rh": [{"id": "rh-94", "beat": 0.0, "midi": 79, "name": "G5", "dur": 0.46, "vel": 0.72}, {"id": "rh-95", "beat": 2.25, "midi": 79, "name": "G5", "dur": 0.23, "vel": 0.72}, {"id": "rh-96", "beat": 2.5, "midi": 81, "name": "A5", "dur": 0.23, "vel": 0.72}, {"id": "rh-97", "beat": 2.75, "midi": 83, "name": "B5", "dur": 0.23, "vel": 0.72}, {"id": "rh-b6-t0-n0", "beat": 3.0, "midi": 84, "name": "C6", "dur": 0.153333, "vel": 0.72}, {"id": "rh-b6-t0-n1", "beat": 3.1667, "midi": 83, "name": "B5", "dur": 0.153333, "vel": 0.72}, {"id": "rh-b6-t0-n2", "beat": 3.3333, "midi": 81, "name": "A5", "dur": 0.153333, "vel": 0.72}, {"id": "rh-b6-t1-n0", "beat": 3.5, "midi": 83, "name": "B5", "dur": 0.153333, "vel": 0.72}, {"id": "rh-b6-t1-n1", "beat": 3.6667, "midi": 81, "name": "A5", "dur": 0.153333, "vel": 0.72}, {"id": "rh-b6-t1-n2", "beat": 3.8333, "midi": 79, "name": "G5", "dur": 0.153333, "vel": 0.72}], "lh": [{"id": "lh-50", "beat": 0.25, "midi": 43, "name": "G2", "dur": 0.23, "vel": 0.52}, {"id": "lh-51", "beat": 0.5, "midi": 45, "name": "A2", "dur": 0.23, "vel": 0.52}, {"id": "lh-52", "beat": 0.75, "midi": 47, "name": "B2", "dur": 0.23, "vel": 0.52}, {"id": "lh-b6-t0-n0", "beat": 1.0, "midi": 48, "name": "C3", "dur": 0.153333, "vel": 0.52}, {"id": "lh-b6-t0-n1", "beat": 1.1667, "midi": 47, "name": "B2", "dur": 0.153333, "vel": 0.52}, {"id": "lh-b6-t0-n2", "beat": 1.3333, "midi": 45, "name": "A2", "dur": 0.153333, "vel": 0.52}, {"id": "lh-b6-t1-n0", "beat": 1.5, "midi": 47, "name": "B2", "dur": 0.153333, "vel": 0.52}, {"id": "lh-b6-t1-n1", "beat": 1.6667, "midi": 45, "name": "A2", "dur": 0.153333, "vel": 0.52}, {"id": "lh-b6-t1-n2", "beat": 1.8333, "midi": 43, "name": "G2", "dur": 0.153333, "vel": 0.52}, {"id": "lh-57", "beat": 2.0, "midi": 50, "name": "D3", "dur": 0.46, "vel": 0.52}, {"id": "lh-58", "beat": 2.5, "midi": 55, "name": "G3", "dur": 0.46, "vel": 0.52}, {"id": "lh-59", "beat": 3.0, "midi": 54, "name": "F#3", "dur": 0.46, "vel": 0.52}, {"id": "lh-60", "beat": 3.5, "midi": 55, "name": "G3", "dur": 0.46, "vel": 0.52}], "spill_rh": [], "spill_lh": []}, {"bar": 8, "step": "subject", "subject": true, "rh": [{"id": "rh-102", "beat": 0.0, "midi": 79, "name": "G5", "dur": 0.076667, "vel": 0.72}, {"id": "rh-103", "beat": 0.0833, "midi": 78, "name": "F#5", "dur": 0.076667, "vel": 0.72}, {"id": "rh-104", "beat": 0.1667, "midi": 79, "name": "G5", "dur": 0.076667, "vel": 0.72}, {"id": "rh-105", "beat": 0.25, "midi": 78, "name": "F#5", "dur": 0.23, "vel": 0.72}, {"id": "rh-106", "beat": 2.25, "midi": 81, "name": "A5", "dur": 0.23, "vel": 0.72}, {"id": "rh-107", "beat": 2.5, "midi": 83, "name": "B5", "dur": 0.23, "vel": 0.72}, {"id": "rh-108", "beat": 2.75, "midi": 84, "name": "C6", "dur": 0.23, "vel": 0.72}, {"id": "rh-b7-t0-n0", "beat": 3.0, "midi": 86, "name": "D6", "dur": 0.153333, "vel": 0.72}, {"id": "rh-b7-t0-n1", "beat": 3.1667, "midi": 84, "name": "C6", "dur": 0.153333, "vel": 0.72}, {"id": "rh-b7-t0-n2", "beat": 3.3333, "midi": 83, "name": "B5", "dur": 0.153333, "vel": 0.72}, {"id": "rh-b7-t1-n0", "beat": 3.5, "midi": 84, "name": "C6", "dur": 0.153333, "vel": 0.72}, {"id": "rh-b7-t1-n1", "beat": 3.6667, "midi": 83, "name": "B5", "dur": 0.153333, "vel": 0.72}, {"id": "rh-b7-t1-n2", "beat": 3.8333, "midi": 81, "name": "A5", "dur": 0.153333, "vel": 0.72}], "lh": [{"id": "lh-61", "beat": 0.0, "midi": 57, "name": "A3", "dur": 0.23, "vel": 0.52}, {"id": "lh-62", "beat": 0.25, "midi": 50, "name": "D3", "dur": 0.23, "vel": 0.52}, {"id": "lh-63", "beat": 0.5, "midi": 52, "name": "E3", "dur": 0.23, "vel": 0.52}, {"id": "lh-64", "beat": 0.75, "midi": 54, "name": "F#3", "dur": 0.23, "vel": 0.52}, {"id": "lh-b7-t0-n0", "beat": 1.0, "midi": 55, "name": "G3", "dur": 0.153333, "vel": 0.52}, {"id": "lh-b7-t0-n1", "beat": 1.1667, "midi": 54, "name": "F#3", "dur": 0.153333, "vel": 0.52}, {"id": "lh-b7-t0-n2", "beat": 1.3333, "midi": 52, "name": "E3", "dur": 0.153333, "vel": 0.52}, {"id": "lh-b7-t1-n0", "beat": 1.5, "midi": 54, "name": "F#3", "dur": 0.153333, "vel": 0.52}, {"id": "lh-b7-t1-n1", "beat": 1.6667, "midi": 52, "name": "E3", "dur": 0.153333, "vel": 0.52}, {"id": "lh-b7-t1-n2", "beat": 1.8333, "midi": 50, "name": "D3", "dur": 0.153333, "vel": 0.52}, {"id": "lh-69", "beat": 2.0, "midi": 57, "name": "A3", "dur": 0.46, "vel": 0.52}, {"id": "lh-70", "beat": 2.5, "midi": 62, "name": "D4", "dur": 0.46, "vel": 0.52}, {"id": "lh-71", "beat": 3.0, "midi": 60, "name": "C4", "dur": 0.46, "vel": 0.52}, {"id": "lh-72", "beat": 3.5, "midi": 62, "name": "D4", "dur": 0.46, "vel": 0.52}], "spill_rh": [{"id": "rh-113", "beat": 4.0, "midi": 83, "name": "B5", "dur": 0.46, "vel": 0.72, "spill": true}], "spill_lh": [{"id": "lh-73", "beat": 4.0, "midi": 55, "name": "G3", "dur": 0.23, "vel": 0.52, "spill": true}, {"id": "lh-74", "beat": 4.25, "midi": 67, "name": "G4", "dur": 0.23, "vel": 0.52, "spill": true}, {"id": "lh-75", "beat": 4.5, "midi": 65, "name": "F4", "dur": 0.23, "vel": 0.52, "spill": true}, {"id": "lh-76", "beat": 4.75, "midi": 64, "name": "E4", "dur": 0.23, "vel": 0.52, "spill": true}]}, {"bar": 9, "step": "subject", "subject": true, "rh": [{"id": "rh-113", "beat": 0.0, "midi": 83, "name": "B5", "dur": 0.46, "vel": 0.72}, {"id": "rh-114", "beat": 2.25, "midi": 86, "name": "D6", "dur": 0.23, "vel": 0.72}, {"id": "rh-115", "beat": 2.5, "midi": 84, "name": "C6", "dur": 0.23, "vel": 0.72}, {"id": "rh-116", "beat": 2.75, "midi": 83, "name": "B5", "dur": 0.23, "vel": 0.72}, {"id": "rh-b8-t0-n0", "beat": 3.0, "midi": 81, "name": "A5", "dur": 0.153333, "vel": 0.72}, {"id": "rh-b8-t0-n1", "beat": 3.1667, "midi": 83, "name": "B5", "dur": 0.153333, "vel": 0.72}, {"id": "rh-b8-t0-n2", "beat": 3.3333, "midi": 84, "name": "C6", "dur": 0.153333, "vel": 0.72}, {"id": "rh-b8-t1-n0", "beat": 3.5, "midi": 83, "name": "B5", "dur": 0.153333, "vel": 0.72}, {"id": "rh-b8-t1-n1", "beat": 3.6667, "midi": 84, "name": "C6", "dur": 0.153333, "vel": 0.72}, {"id": "rh-b8-t1-n2", "beat": 3.8333, "midi": 86, "name": "D6", "dur": 0.153333, "vel": 0.72}], "lh": [{"id": "lh-73", "beat": 0.0, "midi": 55, "name": "G3", "dur": 0.23, "vel": 0.52}, {"id": "lh-74", "beat": 0.25, "midi": 67, "name": "G4", "dur": 0.23, "vel": 0.52}, {"id": "lh-75", "beat": 0.5, "midi": 65, "name": "F4", "dur": 0.23, "vel": 0.52}, {"id": "lh-76", "beat": 0.75, "midi": 64, "name": "E4", "dur": 0.23, "vel": 0.52}, {"id": "lh-b8-t0-n0", "beat": 1.0, "midi": 62, "name": "D4", "dur": 0.153333, "vel": 0.52}, {"id": "lh-b8-t0-n1", "beat": 1.1667, "midi": 64, "name": "E4", "dur": 0.153333, "vel": 0.52}, {"id": "lh-b8-t0-n2", "beat": 1.3333, "midi": 65, "name": "F4", "dur": 0.153333, "vel": 0.52}, {"id": "lh-b8-t1-n0", "beat": 1.5, "midi": 64, "name": "E4", "dur": 0.153333, "vel": 0.52}, {"id": "lh-b8-t1-n1", "beat": 1.6667, "midi": 65, "name": "F4", "dur": 0.153333, "vel": 0.52}, {"id": "lh-b8-t1-n2", "beat": 1.8333, "midi": 67, "name": "G4", "dur": 0.153333, "vel": 0.52}, {"id": "lh-81", "beat": 2.0, "midi": 65, "name": "F4", "dur": 0.46, "vel": 0.52}, {"id": "lh-82", "beat": 2.5, "midi": 64, "name": "E4", "dur": 0.46, "vel": 0.52}, {"id": "lh-83", "beat": 3.0, "midi": 65, "name": "F4", "dur": 0.46, "vel": 0.52}, {"id": "lh-84", "beat": 3.5, "midi": 62, "name": "D4", "dur": 0.46, "vel": 0.52}], "spill_rh": [{"id": "rh-121", "beat": 4.0, "midi": 84, "name": "C6", "dur": 0.46, "vel": 0.72, "spill": true}], "spill_lh": [{"id": "lh-85", "beat": 4.0, "midi": 64, "name": "E4", "dur": 0.23, "vel": 0.52, "spill": true}, {"id": "lh-86", "beat": 4.25, "midi": 69, "name": "A4", "dur": 0.23, "vel": 0.52, "spill": true}, {"id": "lh-87", "beat": 4.5, "midi": 67, "name": "G4", "dur": 0.23, "vel": 0.52, "spill": true}, {"id": "lh-88", "beat": 4.75, "midi": 65, "name": "F4", "dur": 0.23, "vel": 0.52, "spill": true}]}, {"bar": 10, "step": "subject", "subject": true, "rh": [{"id": "rh-121", "beat": 0.0, "midi": 84, "name": "C6", "dur": 0.46, "vel": 0.72}, {"id": "rh-122", "beat": 2.25, "midi": 88, "name": "E6", "dur": 0.23, "vel": 0.72}, {"id": "rh-123", "beat": 2.5, "midi": 86, "name": "D6", "dur": 0.23, "vel": 0.72}, {"id": "rh-124", "beat": 2.75, "midi": 84, "name": "C6", "dur": 0.23, "vel": 0.72}, {"id": "rh-b9-t0-n0", "beat": 3.0, "midi": 83, "name": "B5", "dur": 0.153333, "vel": 0.72}, {"id": "rh-b9-t0-n1", "beat": 3.1667, "midi": 85, "name": "C#6", "dur": 0.153333, "vel": 0.72}, {"id": "rh-b9-t0-n2", "beat": 3.3333, "midi": 86, "name": "D6", "dur": 0.153333, "vel": 0.72}, {"id": "rh-b9-t1-n0", "beat": 3.5, "midi": 85, "name": "C#6", "dur": 0.153333, "vel": 0.72}, {"id": "rh-b9-t1-n1", "beat": 3.6667, "midi": 86, "name": "D6", "dur": 0.153333, "vel": 0.72}, {"id": "rh-b9-t1-n2", "beat": 3.8333, "midi": 88, "name": "E6", "dur": 0.153333, "vel": 0.72}], "lh": [{"id": "lh-85", "beat": 0.0, "midi": 64, "name": "E4", "dur": 0.23, "vel": 0.52}, {"id": "lh-86", "beat": 0.25, "midi": 69, "name": "A4", "dur": 0.23, "vel": 0.52}, {"id": "lh-87", "beat": 0.5, "midi": 67, "name": "G4", "dur": 0.23, "vel": 0.52}, {"id": "lh-88", "beat": 0.75, "midi": 65, "name": "F4", "dur": 0.23, "vel": 0.52}, {"id": "lh-b9-t0-n0", "beat": 1.0, "midi": 64, "name": "E4", "dur": 0.153333, "vel": 0.52}, {"id": "lh-b9-t0-n1", "beat": 1.1667, "midi": 65, "name": "F4", "dur": 0.153333, "vel": 0.52}, {"id": "lh-b9-t0-n2", "beat": 1.3333, "midi": 67, "name": "G4", "dur": 0.153333, "vel": 0.52}, {"id": "lh-b9-t1-n0", "beat": 1.5, "midi": 65, "name": "F4", "dur": 0.153333, "vel": 0.52}, {"id": "lh-b9-t1-n1", "beat": 1.6667, "midi": 67, "name": "G4", "dur": 0.153333, "vel": 0.52}, {"id": "lh-b9-t1-n2", "beat": 1.8333, "midi": 69, "name": "A4", "dur": 0.153333, "vel": 0.52}, {"id": "lh-93", "beat": 2.0, "midi": 67, "name": "G4", "dur": 0.46, "vel": 0.52}, {"id": "lh-94", "beat": 2.5, "midi": 65, "name": "F4", "dur": 0.46, "vel": 0.52}, {"id": "lh-95", "beat": 3.0, "midi": 67, "name": "G4", "dur": 0.46, "vel": 0.52}, {"id": "lh-96", "beat": 3.5, "midi": 64, "name": "E4", "dur": 0.46, "vel": 0.52}], "spill_rh": [{"id": "rh-129", "beat": 4.0, "midi": 86, "name": "D6", "dur": 0.46, "vel": 0.72, "spill": true}, {"id": "rh-130", "beat": 4.5, "midi": 85, "name": "C#6", "dur": 0.46, "vel": 0.72, "spill": true}], "spill_lh": [{"id": "lh-97", "beat": 4.0, "midi": 65, "name": "F4", "dur": 0.23, "vel": 0.52, "spill": true}, {"id": "lh-98", "beat": 4.25, "midi": 70, "name": "A#4", "dur": 0.23, "vel": 0.52, "spill": true}, {"id": "lh-99", "beat": 4.5, "midi": 69, "name": "A4", "dur": 0.23, "vel": 0.52, "spill": true}, {"id": "lh-100", "beat": 4.75, "midi": 67, "name": "G4", "dur": 0.23, "vel": 0.52, "spill": true}]}, {"bar": 11, "step": "flat", "subject": false, "rh": [{"id": "rh-129", "beat": 0.0, "midi": 86, "name": "D6", "dur": 0.46, "vel": 0.72}, {"id": "rh-130", "beat": 0.5, "midi": 85, "name": "C#6", "dur": 0.46, "vel": 0.72}, {"id": "rh-131", "beat": 1.0, "midi": 86, "name": "D6", "dur": 0.46, "vel": 0.72}, {"id": "rh-132", "beat": 1.5, "midi": 88, "name": "E6", "dur": 0.46, "vel": 0.72}, {"id": "rh-133", "beat": 2.0, "midi": 89, "name": "F6", "dur": 0.46, "vel": 0.72}, {"id": "rh-134", "beat": 2.5, "midi": 81, "name": "A5", "dur": 0.46, "vel": 0.72}, {"id": "rh-135", "beat": 3.0, "midi": 83, "name": "B5", "dur": 0.46, "vel": 0.72}, {"id": "rh-136", "beat": 3.5, "midi": 85, "name": "C#6", "dur": 0.46, "vel": 0.72}], "lh": [{"id": "lh-97", "beat": 0.0, "midi": 65, "name": "F4", "dur": 0.23, "vel": 0.52}, {"id": "lh-98", "beat": 0.25, "midi": 70, "name": "A#4", "dur": 0.23, "vel": 0.52}, {"id": "lh-99", "beat": 0.5, "midi": 69, "name": "A4", "dur": 0.23, "vel": 0.52}, {"id": "lh-100", "beat": 0.75, "midi": 67, "name": "G4", "dur": 0.23, "vel": 0.52}, {"id": "lh-b10-t0-n0", "beat": 1.0, "midi": 65, "name": "F4", "dur": 0.153333, "vel": 0.52}, {"id": "lh-b10-t0-n1", "beat": 1.1667, "midi": 67, "name": "G4", "dur": 0.153333, "vel": 0.52}, {"id": "lh-b10-t0-n2", "beat": 1.3333, "midi": 69, "name": "A4", "dur": 0.153333, "vel": 0.52}, {"id": "lh-b10-t1-n0", "beat": 1.5, "midi": 67, "name": "G4", "dur": 0.153333, "vel": 0.52}, {"id": "lh-b10-t1-n1", "beat": 1.6667, "midi": 69, "name": "A4", "dur": 0.153333, "vel": 0.52}, {"id": "lh-b10-t1-n2", "beat": 1.8333, "midi": 70, "name": "A#4", "dur": 0.153333, "vel": 0.52}, {"id": "lh-105", "beat": 2.0, "midi": 69, "name": "A4", "dur": 0.23, "vel": 0.52}, {"id": "lh-106", "beat": 2.25, "midi": 67, "name": "G4", "dur": 0.23, "vel": 0.52}, {"id": "lh-107", "beat": 2.5, "midi": 65, "name": "F4", "dur": 0.23, "vel": 0.52}, {"id": "lh-108", "beat": 2.75, "midi": 64, "name": "E4", "dur": 0.23, "vel": 0.52}, {"id": "lh-b10-t2-n0", "beat": 3.0, "midi": 62, "name": "D4", "dur": 0.153333, "vel": 0.52}, {"id": "lh-b10-t2-n1", "beat": 3.1667, "midi": 64, "name": "E4", "dur": 0.153333, "vel": 0.52}, {"id": "lh-b10-t2-n2", "beat": 3.3333, "midi": 65, "name": "F4", "dur": 0.153333, "vel": 0.52}, {"id": "lh-b10-t3-n0", "beat": 3.5, "midi": 64, "name": "E4", "dur": 0.153333, "vel": 0.52}, {"id": "lh-b10-t3-n1", "beat": 3.6667, "midi": 65, "name": "F4", "dur": 0.153333, "vel": 0.52}, {"id": "lh-b10-t3-n2", "beat": 3.8333, "midi": 67, "name": "G4", "dur": 0.153333, "vel": 0.52}], "spill_rh": [], "spill_lh": []}, {"bar": 12, "step": "subject", "subject": true, "rh": [{"id": "rh-137", "beat": 0.0, "midi": 86, "name": "D6", "dur": 0.46, "vel": 0.72}, {"id": "rh-138", "beat": 0.5, "midi": 78, "name": "F#5", "dur": 0.46, "vel": 0.72}, {"id": "rh-139", "beat": 1.0, "midi": 80, "name": "G#5", "dur": 0.46, "vel": 0.72}, {"id": "rh-140", "beat": 1.5, "midi": 81, "name": "A5", "dur": 0.46, "vel": 0.72}, {"id": "rh-fix12-n0", "beat": 3.0, "midi": 84, "name": "C6", "dur": 0.153333, "vel": 0.72}, {"id": "rh-fix12-n1", "beat": 3.1667, "midi": 86, "name": "D6", "dur": 0.153333, "vel": 0.72}, {"id": "rh-fix12-n2", "beat": 3.3333, "midi": 84, "name": "C6", "dur": 0.153333, "vel": 0.72}, {"id": "rh-fix12-n3", "beat": 3.5, "midi": 84, "name": "C6", "dur": 0.153333, "vel": 0}, {"id": "rh-fix12-n4", "beat": 3.6667, "midi": 83, "name": "B5", "dur": 0.153333, "vel": 0.72}, {"id": "rh-fix12-n5", "beat": 3.8333, "midi": 81, "name": "A5", "dur": 0.153333, "vel": 0.72}], "lh": [{"id": "lh-113", "beat": 0.0, "midi": 65, "name": "F4", "dur": 0.23, "vel": 0.52}, {"id": "lh-114", "beat": 0.25, "midi": 64, "name": "E4", "dur": 0.23, "vel": 0.52}, {"id": "lh-115", "beat": 0.5, "midi": 62, "name": "D4", "dur": 0.23, "vel": 0.52}, {"id": "lh-116", "beat": 0.75, "midi": 60, "name": "C4", "dur": 0.23, "vel": 0.52}, {"id": "lh-b11-t0-n0", "beat": 1.0, "midi": 59, "name": "B3", "dur": 0.153333, "vel": 0.52}, {"id": "lh-b11-t0-n1", "beat": 1.1667, "midi": 60, "name": "C4", "dur": 0.153333, "vel": 0.52}, {"id": "lh-b11-t0-n2", "beat": 1.3333, "midi": 62, "name": "D4", "dur": 0.153333, "vel": 0.52}, {"id": "lh-b11-t1-n0", "beat": 1.5, "midi": 60, "name": "C4", "dur": 0.153333, "vel": 0.52}, {"id": "lh-b11-t1-n1", "beat": 1.6667, "midi": 62, "name": "D4", "dur": 0.153333, "vel": 0.52}, {"id": "lh-b11-t1-n2", "beat": 1.8333, "midi": 64, "name": "E4", "dur": 0.153333, "vel": 0.52}, {"id": "lh-121", "beat": 2.0, "midi": 62, "name": "D4", "dur": 0.23, "vel": 0.52}, {"id": "lh-122", "beat": 2.25, "midi": 60, "name": "C4", "dur": 0.23, "vel": 0.52}, {"id": "lh-123", "beat": 2.5, "midi": 59, "name": "B3", "dur": 0.23, "vel": 0.52}, {"id": "lh-124", "beat": 2.75, "midi": 57, "name": "A3", "dur": 0.23, "vel": 0.52}, {"id": "lh-b11-t2-n0", "beat": 3.0, "midi": 56, "name": "G#3", "dur": 0.153333, "vel": 0.52}, {"id": "lh-b11-t2-n1", "beat": 3.1667, "midi": 57, "name": "A3", "dur": 0.153333, "vel": 0.52}, {"id": "lh-b11-t2-n2", "beat": 3.3333, "midi": 59, "name": "B3", "dur": 0.153333, "vel": 0.52}, {"id": "lh-b11-t3-n0", "beat": 3.5, "midi": 57, "name": "A3", "dur": 0.153333, "vel": 0.52}, {"id": "lh-b11-t3-n1", "beat": 3.6667, "midi": 59, "name": "B3", "dur": 0.153333, "vel": 0.52}, {"id": "lh-b11-t3-n2", "beat": 3.8333, "midi": 60, "name": "C4", "dur": 0.153333, "vel": 0.52}], "spill_rh": [{"id": "rh-144", "beat": 4.25, "midi": 76, "name": "E5", "dur": 0.23, "vel": 0.72, "spill": true}, {"id": "rh-145", "beat": 4.5, "midi": 78, "name": "F#5", "dur": 0.23, "vel": 0.72, "spill": true}, {"id": "rh-146", "beat": 4.75, "midi": 80, "name": "G#5", "dur": 0.23, "vel": 0.72, "spill": true}], "spill_lh": [{"id": "lh-129", "beat": 4.0, "midi": 59, "name": "B3", "dur": 0.46, "vel": 0.52, "spill": true}, {"id": "lh-130", "beat": 4.5, "midi": 52, "name": "E3", "dur": 0.46, "vel": 0.52, "spill": true}]}, {"bar": 13, "step": "subject", "subject": true, "rh": [{"id": "rh-144", "beat": 0.25, "midi": 76, "name": "E5", "dur": 0.23, "vel": 0.72}, {"id": "rh-145", "beat": 0.5, "midi": 78, "name": "F#5", "dur": 0.23, "vel": 0.72}, {"id": "rh-146", "beat": 0.75, "midi": 80, "name": "G#5", "dur": 0.23, "vel": 0.72}, {"id": "rh-b12-t0-n0", "beat": 1.0, "midi": 81, "name": "A5", "dur": 0.153333, "vel": 0.72}, {"id": "rh-b12-t0-n1", "beat": 1.1667, "midi": 79, "name": "G5", "dur": 0.153333, "vel": 0.72}, {"id": "rh-b12-t0-n2", "beat": 1.3333, "midi": 78, "name": "F#5", "dur": 0.153333, "vel": 0.72}, {"id": "rh-b12-t1-n0", "beat": 1.5, "midi": 80, "name": "G#5", "dur": 0.153333, "vel": 0.72}, {"id": "rh-b12-t1-n1", "beat": 1.6667, "midi": 78, "name": "F#5", "dur": 0.153333, "vel": 0.72}, {"id": "rh-b12-t1-n2", "beat": 1.8333, "midi": 76, "name": "E5", "dur": 0.153333, "vel": 0.72}, {"id": "rh-151", "beat": 2.0, "midi": 88, "name": "E6", "dur": 0.23, "vel": 0.72}, {"id": "rh-152", "beat": 2.25, "midi": 86, "name": "D6", "dur": 0.23, "vel": 0.72}, {"id": "rh-153", "beat": 2.5, "midi": 84, "name": "C6", "dur": 0.23, "vel": 0.72}, {"id": "rh-154", "beat": 2.75, "midi": 88, "name": "E6", "dur": 0.23, "vel": 0.72}, {"id": "rh-155", "beat": 3.0, "midi": 86, "name": "D6", "dur": 0.23, "vel": 0.72}, {"id": "rh-156", "beat": 3.25, "midi": 84, "name": "C6", "dur": 0.23, "vel": 0.72}, {"id": "rh-157", "beat": 3.5, "midi": 83, "name": "B5", "dur": 0.23, "vel": 0.72}, {"id": "rh-158", "beat": 3.75, "midi": 86, "name": "D6", "dur": 0.23, "vel": 0.72}], "lh": [{"id": "lh-129", "beat": 0.0, "midi": 59, "name": "B3", "dur": 0.46, "vel": 0.52}, {"id": "lh-130", "beat": 0.5, "midi": 52, "name": "E3", "dur": 0.46, "vel": 0.52}, {"id": "lh-131", "beat": 1.0, "midi": 62, "name": "D4", "dur": 0.115, "vel": 0.52}, {"id": "lh-132", "beat": 1.125, "midi": 60, "name": "C4", "dur": 0.115, "vel": 0.52}, {"id": "lh-133", "beat": 1.25, "midi": 62, "name": "D4", "dur": 0.46, "vel": 0.52}, {"id": "lh-134", "beat": 1.75, "midi": 64, "name": "E4", "dur": 0.23, "vel": 0.52}, {"id": "lh-135", "beat": 2.0, "midi": 60, "name": "C4", "dur": 0.23, "vel": 0.52}, {"id": "lh-136", "beat": 2.25, "midi": 59, "name": "B3", "dur": 0.23, "vel": 0.52}, {"id": "lh-137", "beat": 2.5, "midi": 57, "name": "A3", "dur": 0.23, "vel": 0.52}, {"id": "lh-138", "beat": 2.75, "midi": 55, "name": "G3", "dur": 0.23, "vel": 0.52}, {"id": "lh-b12-t0-n0", "beat": 3.0, "midi": 54, "name": "F#3", "dur": 0.153333, "vel": 0.52}, {"id": "lh-b12-t0-n1", "beat": 3.1667, "midi": 56, "name": "G#3", "dur": 0.153333, "vel": 0.52}, {"id": "lh-b12-t0-n2", "beat": 3.3333, "midi": 57, "name": "A3", "dur": 0.153333, "vel": 0.52}, {"id": "lh-b12-t1-n0", "beat": 3.5, "midi": 56, "name": "G#3", "dur": 0.153333, "vel": 0.52}, {"id": "lh-b12-t1-n1", "beat": 3.6667, "midi": 57, "name": "A3", "dur": 0.153333, "vel": 0.52}, {"id": "lh-b12-t1-n2", "beat": 3.8333, "midi": 59, "name": "B3", "dur": 0.153333, "vel": 0.52}], "spill_rh": [{"id": "rh-159", "beat": 4.0, "midi": 84, "name": "C6", "dur": 0.23, "vel": 0.72, "spill": true}, {"id": "rh-160", "beat": 4.25, "midi": 93, "name": "A6", "dur": 0.23, "vel": 0.72, "spill": true}, {"id": "rh-161", "beat": 4.5, "midi": 92, "name": "G#6", "dur": 0.23, "vel": 0.72, "spill": true}, {"id": "rh-162", "beat": 4.75, "midi": 95, "name": "B6", "dur": 0.23, "vel": 0.72, "spill": true}], "spill_lh": [{"id": "lh-143", "beat": 4.0, "midi": 57, "name": "A3", "dur": 0.23, "vel": 0.52, "spill": true}, {"id": "lh-144", "beat": 4.25, "midi": 60, "name": "C4", "dur": 0.23, "vel": 0.52, "spill": true}, {"id": "lh-145", "beat": 4.5, "midi": 59, "name": "B3", "dur": 0.23, "vel": 0.52, "spill": true}, {"id": "lh-146", "beat": 4.75, "midi": 62, "name": "D4", "dur": 0.23, "vel": 0.52, "spill": true}]}, {"bar": 14, "step": "flat", "subject": false, "rh": [{"id": "rh-159", "beat": 0.0, "midi": 84, "name": "C6", "dur": 0.23, "vel": 0.72}, {"id": "rh-160", "beat": 0.25, "midi": 93, "name": "A6", "dur": 0.23, "vel": 0.72}, {"id": "rh-161", "beat": 0.5, "midi": 92, "name": "G#6", "dur": 0.23, "vel": 0.72}, {"id": "rh-162", "beat": 0.75, "midi": 95, "name": "B6", "dur": 0.23, "vel": 0.72}, {"id": "rh-b13-t0-n0", "beat": 1.0, "midi": 93, "name": "A6", "dur": 0.153333, "vel": 0.72}, {"id": "rh-b13-t0-n1", "beat": 1.1667, "midi": 91, "name": "G6", "dur": 0.153333, "vel": 0.72}, {"id": "rh-b13-t0-n2", "beat": 1.3333, "midi": 88, "name": "E6", "dur": 0.153333, "vel": 0.72}, {"id": "rh-b13-t1-n0", "beat": 1.5, "midi": 89, "name": "F6", "dur": 0.153333, "vel": 0.72}, {"id": "rh-b13-t1-n1", "beat": 1.6667, "midi": 88, "name": "E6", "dur": 0.153333, "vel": 0.72}, {"id": "rh-b13-t1-n2", "beat": 1.8333, "midi": 86, "name": "D6", "dur": 0.153333, "vel": 0.72}, {"id": "rh-167", "beat": 2.0, "midi": 80, "name": "G#5", "dur": 0.23, "vel": 0.72}, {"id": "rh-168", "beat": 2.25, "midi": 89, "name": "F6", "dur": 0.23, "vel": 0.72}, {"id": "rh-169", "beat": 2.5, "midi": 88, "name": "E6", "dur": 0.23, "vel": 0.72}, {"id": "rh-170", "beat": 2.75, "midi": 86, "name": "D6", "dur": 0.23, "vel": 0.72}, {"id": "rh-fix14-n0", "beat": 3.0, "midi": 84, "name": "C6", "dur": 0.153333, "vel": 0.72}, {"id": "rh-fix14-n1", "beat": 3.1667, "midi": 86, "name": "D6", "dur": 0.153333, "vel": 0.72}, {"id": "rh-fix14-n2", "beat": 3.3333, "midi": 84, "name": "C6", "dur": 0.153333, "vel": 0.72}, {"id": "rh-fix14-n3", "beat": 3.5, "midi": 84, "name": "C6", "dur": 0.153333, "vel": 0}, {"id": "rh-fix14-n4", "beat": 3.6667, "midi": 83, "name": "B5", "dur": 0.153333, "vel": 0.72}, {"id": "rh-fix14-n5", "beat": 3.8333, "midi": 81, "name": "A5", "dur": 0.153333, "vel": 0.72}], "lh": [{"id": "lh-143", "beat": 0.0, "midi": 57, "name": "A3", "dur": 0.23, "vel": 0.52}, {"id": "lh-144", "beat": 0.25, "midi": 60, "name": "C4", "dur": 0.23, "vel": 0.52}, {"id": "lh-145", "beat": 0.5, "midi": 59, "name": "B3", "dur": 0.23, "vel": 0.52}, {"id": "lh-146", "beat": 0.75, "midi": 62, "name": "D4", "dur": 0.23, "vel": 0.52}, {"id": "lh-147", "beat": 1.0, "midi": 60, "name": "C4", "dur": 0.23, "vel": 0.52}, {"id": "lh-148", "beat": 1.25, "midi": 64, "name": "E4", "dur": 0.23, "vel": 0.52}, {"id": "lh-149", "beat": 1.5, "midi": 62, "name": "D4", "dur": 0.23, "vel": 0.52}, {"id": "lh-150", "beat": 1.75, "midi": 65, "name": "F4", "dur": 0.23, "vel": 0.52}, {"id": "lh-151", "beat": 2.0, "midi": 64, "name": "E4", "dur": 0.46, "vel": 0.52}, {"id": "lh-152", "beat": 2.5, "midi": 57, "name": "A3", "dur": 0.46, "vel": 0.52}, {"id": "lh-153", "beat": 3.0, "midi": 64, "name": "E4", "dur": 0.46, "vel": 0.52}, {"id": "lh-154", "beat": 3.5, "midi": 52, "name": "E3", "dur": 0.46, "vel": 0.52}], "spill_rh": [], "spill_lh": []}, {"bar": 15, "step": "subject", "subject": true, "rh": [{"id": "rh-174", "beat": 0.0, "midi": 81, "name": "A5", "dur": 0.23, "vel": 0.72}, {"id": "rh-175", "beat": 0.25, "midi": 93, "name": "A6", "dur": 0.23, "vel": 0.72}, {"id": "rh-176", "beat": 0.5, "midi": 91, "name": "G6", "dur": 0.23, "vel": 0.72}, {"id": "rh-177", "beat": 0.75, "midi": 89, "name": "F6", "dur": 0.23, "vel": 0.72}, {"id": "rh-b14-t0-n0", "beat": 1.0, "midi": 88, "name": "E6", "dur": 0.153333, "vel": 0.72}, {"id": "rh-b14-t0-n1", "beat": 1.1667, "midi": 89, "name": "F6", "dur": 0.153333, "vel": 0.72}, {"id": "rh-b14-t0-n2", "beat": 1.3333, "midi": 91, "name": "G6", "dur": 0.153333, "vel": 0.72}, {"id": "rh-b14-t1-n0", "beat": 1.5, "midi": 89, "name": "F6", "dur": 0.153333, "vel": 0.72}, {"id": "rh-b14-t1-n1", "beat": 1.6667, "midi": 91, "name": "G6", "dur": 0.153333, "vel": 0.72}, {"id": "rh-b14-t1-n2", "beat": 1.8333, "midi": 93, "name": "A6", "dur": 0.153333, "vel": 0.72}, {"id": "rh-182", "beat": 2.0, "midi": 91, "name": "G6", "dur": 2.031667, "vel": 0.72}], "lh": [{"id": "lh-155", "beat": 0.0, "midi": 57, "name": "A3", "dur": 0.46, "vel": 0.52}, {"id": "lh-156", "beat": 0.5, "midi": 45, "name": "A2", "dur": 0.46, "vel": 0.52}, {"id": "lh-157", "beat": 2.25, "midi": 64, "name": "E4", "dur": 0.23, "vel": 0.52}, {"id": "lh-158", "beat": 2.5, "midi": 62, "name": "D4", "dur": 0.23, "vel": 0.52}, {"id": "lh-159", "beat": 2.75, "midi": 60, "name": "C4", "dur": 0.23, "vel": 0.52}, {"id": "lh-b14-t0-n0", "beat": 3.0, "midi": 59, "name": "B3", "dur": 0.153333, "vel": 0.52}, {"id": "lh-b14-t0-n1", "beat": 3.1667, "midi": 61, "name": "C#4", "dur": 0.153333, "vel": 0.52}, {"id": "lh-b14-t0-n2", "beat": 3.3333, "midi": 62, "name": "D4", "dur": 0.153333, "vel": 0.52}, {"id": "lh-b14-t1-n0", "beat": 3.5, "midi": 61, "name": "C#4", "dur": 0.153333, "vel": 0.52}, {"id": "lh-b14-t1-n1", "beat": 3.6667, "midi": 62, "name": "D4", "dur": 0.153333, "vel": 0.52}, {"id": "lh-b14-t1-n2", "beat": 3.8333, "midi": 64, "name": "E4", "dur": 0.153333, "vel": 0.52}], "spill_rh": [{"id": "rh-183", "beat": 4.25, "midi": 88, "name": "E6", "dur": 0.23, "vel": 0.72, "spill": true}, {"id": "rh-184", "beat": 4.5, "midi": 89, "name": "F6", "dur": 0.23, "vel": 0.72, "spill": true}, {"id": "rh-185", "beat": 4.75, "midi": 91, "name": "G6", "dur": 0.23, "vel": 0.72, "spill": true}], "spill_lh": [{"id": "lh-164", "beat": 4.0, "midi": 62, "name": "D4", "dur": 2.031667, "vel": 0.52, "spill": true}]}, {"bar": 16, "step": "subject", "subject": true, "rh": [{"id": "rh-183", "beat": 0.25, "midi": 88, "name": "E6", "dur": 0.23, "vel": 0.72}, {"id": "rh-184", "beat": 0.5, "midi": 89, "name": "F6", "dur": 0.23, "vel": 0.72}, {"id": "rh-185", "beat": 0.75, "midi": 91, "name": "G6", "dur": 0.23, "vel": 0.72}, {"id": "rh-b15-t0-n0", "beat": 1.0, "midi": 93, "name": "A6", "dur": 0.153333, "vel": 0.72}, {"id": "rh-b15-t0-n1", "beat": 1.1667, "midi": 91, "name": "G6", "dur": 0.153333, "vel": 0.72}, {"id": "rh-b15-t0-n2", "beat": 1.3333, "midi": 89, "name": "F6", "dur": 0.153333, "vel": 0.72}, {"id": "rh-b15-t1-n0", "beat": 1.5, "midi": 91, "name": "G6", "dur": 0.153333, "vel": 0.72}, {"id": "rh-b15-t1-n1", "beat": 1.6667, "midi": 89, "name": "F6", "dur": 0.153333, "vel": 0.72}, {"id": "rh-b15-t1-n2", "beat": 1.8333, "midi": 88, "name": "E6", "dur": 0.153333, "vel": 0.72}, {"id": "rh-190", "beat": 2.0, "midi": 89, "name": "F6", "dur": 2.07, "vel": 0.72}], "lh": [{"id": "lh-164", "beat": 0.0, "midi": 62, "name": "D4", "dur": 2.031667, "vel": 0.52}, {"id": "lh-165", "beat": 2.25, "midi": 57, "name": "A3", "dur": 0.23, "vel": 0.52}, {"id": "lh-166", "beat": 2.5, "midi": 59, "name": "B3", "dur": 0.23, "vel": 0.52}, {"id": "lh-167", "beat": 2.75, "midi": 60, "name": "C4", "dur": 0.23, "vel": 0.52}, {"id": "lh-b15-t0-n0", "beat": 3.0, "midi": 62, "name": "D4", "dur": 0.153333, "vel": 0.52}, {"id": "lh-b15-t0-n1", "beat": 3.1667, "midi": 60, "name": "C4", "dur": 0.153333, "vel": 0.52}, {"id": "lh-b15-t0-n2", "beat": 3.3333, "midi": 59, "name": "B3", "dur": 0.153333, "vel": 0.52}, {"id": "lh-b15-t1-n0", "beat": 3.5, "midi": 60, "name": "C4", "dur": 0.153333, "vel": 0.52}, {"id": "lh-b15-t1-n1", "beat": 3.6667, "midi": 59, "name": "B3", "dur": 0.153333, "vel": 0.52}, {"id": "lh-b15-t1-n2", "beat": 3.8333, "midi": 57, "name": "A3", "dur": 0.153333, "vel": 0.52}], "spill_rh": [{"id": "rh-191", "beat": 4.25, "midi": 91, "name": "G6", "dur": 0.23, "vel": 0.72, "spill": true}, {"id": "rh-192", "beat": 4.5, "midi": 89, "name": "F6", "dur": 0.23, "vel": 0.72, "spill": true}, {"id": "rh-193", "beat": 4.75, "midi": 88, "name": "E6", "dur": 0.23, "vel": 0.72, "spill": true}], "spill_lh": [{"id": "lh-172", "beat": 4.0, "midi": 59, "name": "B3", "dur": 2.031667, "vel": 0.52, "spill": true}]}, {"bar": 17, "step": "flat", "subject": false, "rh": [{"id": "rh-191", "beat": 0.25, "midi": 91, "name": "G6", "dur": 0.23, "vel": 0.72}, {"id": "rh-192", "beat": 0.5, "midi": 89, "name": "F6", "dur": 0.23, "vel": 0.72}, {"id": "rh-193", "beat": 0.75, "midi": 88, "name": "E6", "dur": 0.23, "vel": 0.72}, {"id": "rh-b16-t0-n0", "beat": 1.0, "midi": 86, "name": "D6", "dur": 0.153333, "vel": 0.72}, {"id": "rh-b16-t0-n1", "beat": 1.1667, "midi": 88, "name": "E6", "dur": 0.153333, "vel": 0.72}, {"id": "rh-b16-t0-n2", "beat": 1.3333, "midi": 89, "name": "F6", "dur": 0.153333, "vel": 0.72}, {"id": "rh-b16-t1-n0", "beat": 1.5, "midi": 88, "name": "E6", "dur": 0.153333, "vel": 0.72}, {"id": "rh-b16-t1-n1", "beat": 1.6667, "midi": 89, "name": "F6", "dur": 0.153333, "vel": 0.72}, {"id": "rh-b16-t1-n2", "beat": 1.8333, "midi": 91, "name": "G6", "dur": 0.153333, "vel": 0.72}, {"id": "rh-198", "beat": 2.0, "midi": 89, "name": "F6", "dur": 2.031667, "vel": 0.72}], "lh": [{"id": "lh-172", "beat": 0.0, "midi": 59, "name": "B3", "dur": 2.031667, "vel": 0.52}, {"id": "lh-173", "beat": 2.25, "midi": 62, "name": "D4", "dur": 0.23, "vel": 0.52}, {"id": "lh-174", "beat": 2.5, "midi": 60, "name": "C4", "dur": 0.23, "vel": 0.52}, {"id": "lh-175", "beat": 2.75, "midi": 59, "name": "B3", "dur": 0.23, "vel": 0.52}, {"id": "lh-b16-t0-n0", "beat": 3.0, "midi": 57, "name": "A3", "dur": 0.153333, "vel": 0.52}, {"id": "lh-b16-t0-n1", "beat": 3.1667, "midi": 59, "name": "B3", "dur": 0.153333, "vel": 0.52}, {"id": "lh-b16-t0-n2", "beat": 3.3333, "midi": 60, "name": "C4", "dur": 0.153333, "vel": 0.52}, {"id": "lh-b16-t1-n0", "beat": 3.5, "midi": 59, "name": "B3", "dur": 0.153333, "vel": 0.52}, {"id": "lh-b16-t1-n1", "beat": 3.6667, "midi": 60, "name": "C4", "dur": 0.153333, "vel": 0.52}, {"id": "lh-b16-t1-n2", "beat": 3.8333, "midi": 62, "name": "D4", "dur": 0.153333, "vel": 0.52}], "spill_rh": [], "spill_lh": []}, {"bar": 18, "step": "subject", "subject": true, "rh": [{"id": "rh-199", "beat": 0.25, "midi": 86, "name": "D6", "dur": 0.23, "vel": 0.72}, {"id": "rh-200", "beat": 0.5, "midi": 88, "name": "E6", "dur": 0.23, "vel": 0.72}, {"id": "rh-201", "beat": 0.75, "midi": 89, "name": "F6", "dur": 0.23, "vel": 0.72}, {"id": "rh-b17-t0-n0", "beat": 1.0, "midi": 91, "name": "G6", "dur": 0.153333, "vel": 0.72}, {"id": "rh-b17-t0-n1", "beat": 1.1667, "midi": 89, "name": "F6", "dur": 0.153333, "vel": 0.72}, {"id": "rh-b17-t0-n2", "beat": 1.3333, "midi": 88, "name": "E6", "dur": 0.153333, "vel": 0.72}, {"id": "rh-b17-t1-n0", "beat": 1.5, "midi": 89, "name": "F6", "dur": 0.153333, "vel": 0.72}, {"id": "rh-b17-t1-n1", "beat": 1.6667, "midi": 88, "name": "E6", "dur": 0.153333, "vel": 0.72}, {"id": "rh-b17-t1-n2", "beat": 1.8333, "midi": 86, "name": "D6", "dur": 0.153333, "vel": 0.72}, {"id": "rh-206", "beat": 2.0, "midi": 88, "name": "E6", "dur": 2.031667, "vel": 0.72}], "lh": [{"id": "lh-180", "beat": 0.0, "midi": 60, "name": "C4", "dur": 2.031667, "vel": 0.52}, {"id": "lh-181", "beat": 2.25, "midi": 55, "name": "G3", "dur": 0.23, "vel": 0.52}, {"id": "lh-182", "beat": 2.5, "midi": 57, "name": "A3", "dur": 0.23, "vel": 0.52}, {"id": "lh-183", "beat": 2.75, "midi": 58, "name": "A#3", "dur": 0.23, "vel": 0.52}, {"id": "lh-b17-t0-n0", "beat": 3.0, "midi": 60, "name": "C4", "dur": 0.153333, "vel": 0.52}, {"id": "lh-b17-t0-n1", "beat": 3.1667, "midi": 58, "name": "A#3", "dur": 0.153333, "vel": 0.52}, {"id": "lh-b17-t0-n2", "beat": 3.3333, "midi": 57, "name": "A3", "dur": 0.153333, "vel": 0.52}, {"id": "lh-b17-t1-n0", "beat": 3.5, "midi": 58, "name": "A#3", "dur": 0.153333, "vel": 0.52}, {"id": "lh-b17-t1-n1", "beat": 3.6667, "midi": 57, "name": "A3", "dur": 0.153333, "vel": 0.52}, {"id": "lh-b17-t1-n2", "beat": 3.8333, "midi": 55, "name": "G3", "dur": 0.153333, "vel": 0.52}], "spill_rh": [{"id": "rh-207", "beat": 4.25, "midi": 84, "name": "C6", "dur": 0.23, "vel": 0.72, "spill": true}, {"id": "rh-208", "beat": 4.5, "midi": 86, "name": "D6", "dur": 0.23, "vel": 0.72, "spill": true}, {"id": "rh-209", "beat": 4.75, "midi": 88, "name": "E6", "dur": 0.23, "vel": 0.72, "spill": true}], "spill_lh": [{"id": "lh-188", "beat": 4.0, "midi": 57, "name": "A3", "dur": 0.46, "vel": 0.52, "spill": true}, {"id": "lh-189", "beat": 4.5, "midi": 58, "name": "A#3", "dur": 0.46, "vel": 0.52, "spill": true}]}, {"bar": 19, "step": "subject", "subject": true, "rh": [{"id": "rh-207", "beat": 0.25, "midi": 84, "name": "C6", "dur": 0.23, "vel": 0.72}, {"id": "rh-208", "beat": 0.5, "midi": 86, "name": "D6", "dur": 0.23, "vel": 0.72}, {"id": "rh-209", "beat": 0.75, "midi": 88, "name": "E6", "dur": 0.23, "vel": 0.72}, {"id": "rh-b18-t0-n0", "beat": 1.0, "midi": 89, "name": "F6", "dur": 0.153333, "vel": 0.72}, {"id": "rh-b18-t0-n1", "beat": 1.1667, "midi": 88, "name": "E6", "dur": 0.153333, "vel": 0.72}, {"id": "rh-b18-t0-n2", "beat": 1.3333, "midi": 86, "name": "D6", "dur": 0.153333, "vel": 0.72}, {"id": "rh-b18-t1-n0", "beat": 1.5, "midi": 88, "name": "E6", "dur": 0.153333, "vel": 0.72}, {"id": "rh-b18-t1-n1", "beat": 1.6667, "midi": 86, "name": "D6", "dur": 0.153333, "vel": 0.72}, {"id": "rh-b18-t1-n2", "beat": 1.8333, "midi": 84, "name": "C6", "dur": 0.153333, "vel": 0.72}, {"id": "rh-214", "beat": 2.0, "midi": 86, "name": "D6", "dur": 0.23, "vel": 0.72}, {"id": "rh-215", "beat": 2.25, "midi": 88, "name": "E6", "dur": 0.23, "vel": 0.72}, {"id": "rh-216", "beat": 2.5, "midi": 89, "name": "F6", "dur": 0.23, "vel": 0.72}, {"id": "rh-217", "beat": 2.75, "midi": 91, "name": "G6", "dur": 0.23, "vel": 0.72}, {"id": "rh-b18-t2-n0", "beat": 3.0, "midi": 93, "name": "A6", "dur": 0.153333, "vel": 0.72}, {"id": "rh-b18-t2-n1", "beat": 3.1667, "midi": 91, "name": "G6", "dur": 0.153333, "vel": 0.72}, {"id": "rh-b18-t2-n2", "beat": 3.3333, "midi": 89, "name": "F6", "dur": 0.153333, "vel": 0.72}, {"id": "rh-b18-t3-n0", "beat": 3.5, "midi": 91, "name": "G6", "dur": 0.153333, "vel": 0.72}, {"id": "rh-b18-t3-n1", "beat": 3.6667, "midi": 89, "name": "F6", "dur": 0.153333, "vel": 0.72}, {"id": "rh-b18-t3-n2", "beat": 3.8333, "midi": 88, "name": "E6", "dur": 0.153333, "vel": 0.72}], "lh": [{"id": "lh-188", "beat": 0.0, "midi": 57, "name": "A3", "dur": 0.46, "vel": 0.52}, {"id": "lh-189", "beat": 0.5, "midi": 58, "name": "A#3", "dur": 0.46, "vel": 0.52}, {"id": "lh-190", "beat": 1.0, "midi": 57, "name": "A3", "dur": 0.46, "vel": 0.52}, {"id": "lh-191", "beat": 1.5, "midi": 55, "name": "G3", "dur": 0.46, "vel": 0.52}, {"id": "lh-192", "beat": 2.0, "midi": 53, "name": "F3", "dur": 0.46, "vel": 0.52}, {"id": "lh-193", "beat": 2.5, "midi": 62, "name": "D4", "dur": 0.46, "vel": 0.52}, {"id": "lh-194", "beat": 3.0, "midi": 60, "name": "C4", "dur": 0.46, "vel": 0.52}, {"id": "lh-195", "beat": 3.5, "midi": 58, "name": "A#3", "dur": 0.46, "vel": 0.52}], "spill_rh": [{"id": "rh-222", "beat": 4.0, "midi": 89, "name": "F6", "dur": 0.23, "vel": 0.72, "spill": true}, {"id": "rh-223", "beat": 4.25, "midi": 91, "name": "G6", "dur": 0.23, "vel": 0.72, "spill": true}, {"id": "rh-224", "beat": 4.5, "midi": 93, "name": "A6", "dur": 0.23, "vel": 0.72, "spill": true}, {"id": "rh-225", "beat": 4.75, "midi": 95, "name": "B6", "dur": 0.23, "vel": 0.72, "spill": true}], "spill_lh": [{"id": "lh-196", "beat": 4.0, "midi": 57, "name": "A3", "dur": 0.46, "vel": 0.52, "spill": true}, {"id": "lh-197", "beat": 4.5, "midi": 65, "name": "F4", "dur": 0.46, "vel": 0.52, "spill": true}]}, {"bar": 20, "step": "flat", "subject": false, "rh": [{"id": "rh-222", "beat": 0.0, "midi": 89, "name": "F6", "dur": 0.23, "vel": 0.72}, {"id": "rh-223", "beat": 0.25, "midi": 91, "name": "G6", "dur": 0.23, "vel": 0.72}, {"id": "rh-224", "beat": 0.5, "midi": 93, "name": "A6", "dur": 0.23, "vel": 0.72}, {"id": "rh-225", "beat": 0.75, "midi": 95, "name": "B6", "dur": 0.23, "vel": 0.72}, {"id": "rh-b19-t0-n0", "beat": 1.0, "midi": 96, "name": "C7", "dur": 0.153333, "vel": 0.72}, {"id": "rh-b19-t0-n1", "beat": 1.1667, "midi": 95, "name": "B6", "dur": 0.153333, "vel": 0.72}, {"id": "rh-b19-t0-n2", "beat": 1.3333, "midi": 93, "name": "A6", "dur": 0.153333, "vel": 0.72}, {"id": "rh-b19-t1-n0", "beat": 1.5, "midi": 95, "name": "B6", "dur": 0.153333, "vel": 0.72}, {"id": "rh-b19-t1-n1", "beat": 1.6667, "midi": 93, "name": "A6", "dur": 0.153333, "vel": 0.72}, {"id": "rh-b19-t1-n2", "beat": 1.8333, "midi": 91, "name": "G6", "dur": 0.153333, "vel": 0.72}, {"id": "rh-230", "beat": 2.0, "midi": 96, "name": "C7", "dur": 0.46, "vel": 0.72}, {"id": "rh-231", "beat": 2.5, "midi": 91, "name": "G6", "dur": 0.46, "vel": 0.72}, {"id": "rh-232", "beat": 3.0, "midi": 88, "name": "E6", "dur": 0.46, "vel": 0.72}, {"id": "rh-233", "beat": 3.5, "midi": 86, "name": "D6", "dur": 0.23, "vel": 0.72}, {"id": "rh-234", "beat": 3.75, "midi": 84, "name": "C6", "dur": 0.23, "vel": 0.72}], "lh": [{"id": "lh-196", "beat": 0.0, "midi": 57, "name": "A3", "dur": 0.46, "vel": 0.52}, {"id": "lh-197", "beat": 0.5, "midi": 65, "name": "F4", "dur": 0.46, "vel": 0.52}, {"id": "lh-198", "beat": 1.0, "midi": 64, "name": "E4", "dur": 0.46, "vel": 0.52}, {"id": "lh-199", "beat": 1.5, "midi": 62, "name": "D4", "dur": 0.46, "vel": 0.52}, {"id": "lh-200", "beat": 2.0, "midi": 64, "name": "E4", "dur": 0.23, "vel": 0.52}, {"id": "lh-201", "beat": 2.25, "midi": 50, "name": "D3", "dur": 0.23, "vel": 0.52}, {"id": "lh-202", "beat": 2.5, "midi": 52, "name": "E3", "dur": 0.23, "vel": 0.52}, {"id": "lh-203", "beat": 2.75, "midi": 53, "name": "F3", "dur": 0.23, "vel": 0.52}, {"id": "lh-b19-t0-n0", "beat": 3.0, "midi": 55, "name": "G3", "dur": 0.153333, "vel": 0.52}, {"id": "lh-b19-t0-n1", "beat": 3.1667, "midi": 53, "name": "F3", "dur": 0.153333, "vel": 0.52}, {"id": "lh-b19-t0-n2", "beat": 3.3333, "midi": 52, "name": "E3", "dur": 0.153333, "vel": 0.52}, {"id": "lh-b19-t1-n0", "beat": 3.5, "midi": 53, "name": "F3", "dur": 0.153333, "vel": 0.52}, {"id": "lh-b19-t1-n1", "beat": 3.6667, "midi": 52, "name": "E3", "dur": 0.153333, "vel": 0.52}, {"id": "lh-b19-t1-n2", "beat": 3.8333, "midi": 50, "name": "D3", "dur": 0.153333, "vel": 0.52}], "spill_rh": [], "spill_lh": []}, {"bar": 21, "step": "subject", "subject": true, "rh": [{"id": "rh-235", "beat": 0.0, "midi": 84, "name": "C6", "dur": 0.23, "vel": 0.72}, {"id": "rh-236", "beat": 0.25, "midi": 82, "name": "A#5", "dur": 0.23, "vel": 0.72}, {"id": "rh-237", "beat": 0.5, "midi": 81, "name": "A5", "dur": 0.23, "vel": 0.72}, {"id": "rh-238", "beat": 0.75, "midi": 79, "name": "G5", "dur": 0.23, "vel": 0.72}, {"id": "rh-b20-t0-n0", "beat": 1.0, "midi": 77, "name": "F5", "dur": 0.153333, "vel": 0.72}, {"id": "rh-b20-t0-n1", "beat": 1.1667, "midi": 79, "name": "G5", "dur": 0.153333, "vel": 0.72}, {"id": "rh-b20-t0-n2", "beat": 1.3333, "midi": 81, "name": "A5", "dur": 0.153333, "vel": 0.72}, {"id": "rh-b20-t1-n0", "beat": 1.5, "midi": 79, "name": "G5", "dur": 0.153333, "vel": 0.72}, {"id": "rh-b20-t1-n1", "beat": 1.6667, "midi": 81, "name": "A5", "dur": 0.153333, "vel": 0.72}, {"id": "rh-b20-t1-n2", "beat": 1.8333, "midi": 82, "name": "A#5", "dur": 0.153333, "vel": 0.72}, {"id": "rh-243", "beat": 2.0, "midi": 81, "name": "A5", "dur": 0.23, "vel": 0.72}, {"id": "rh-244", "beat": 2.25, "midi": 83, "name": "B5", "dur": 0.23, "vel": 0.72}, {"id": "rh-245", "beat": 2.5, "midi": 84, "name": "C6", "dur": 0.23, "vel": 0.72}, {"id": "rh-246", "beat": 2.75, "midi": 76, "name": "E5", "dur": 0.23, "vel": 0.72}, {"id": "rh-b20-t2-n0", "beat": 3.0, "midi": 74, "name": "D5", "dur": 0.153333, "vel": 0.72}, {"id": "rh-b20-t2-n1", "beat": 3.1667, "midi": 81, "name": "A5", "dur": 0.153333, "vel": 0.72}, {"id": "rh-b20-t2-n2", "beat": 3.3333, "midi": 84, "name": "C6", "dur": 0.153333, "vel": 0.72}, {"id": "rh-b20-t3-n0", "beat": 3.5, "midi": 77, "name": "F5", "dur": 0.153333, "vel": 0.72}, {"id": "rh-b20-t3-n1", "beat": 3.6667, "midi": 81, "name": "A5", "dur": 0.153333, "vel": 0.72}, {"id": "rh-b20-t3-n2", "beat": 3.8333, "midi": 83, "name": "B5", "dur": 0.153333, "vel": 0.72}], "lh": [{"id": "lh-208", "beat": 0.0, "midi": 52, "name": "E3", "dur": 0.46, "vel": 0.52}, {"id": "lh-209", "beat": 0.5, "midi": 48, "name": "C3", "dur": 0.46, "vel": 0.52}, {"id": "lh-210", "beat": 1.0, "midi": 50, "name": "D3", "dur": 0.46, "vel": 0.52}, {"id": "lh-211", "beat": 1.5, "midi": 52, "name": "E3", "dur": 0.46, "vel": 0.52}, {"id": "lh-212", "beat": 2.0, "midi": 53, "name": "F3", "dur": 0.23, "vel": 0.52}, {"id": "lh-213", "beat": 2.25, "midi": 50, "name": "D3", "dur": 0.23, "vel": 0.52}, {"id": "lh-214", "beat": 2.5, "midi": 52, "name": "E3", "dur": 0.23, "vel": 0.52}, {"id": "lh-215", "beat": 2.75, "midi": 53, "name": "F3", "dur": 0.23, "vel": 0.52}, {"id": "lh-216", "beat": 3.0, "midi": 55, "name": "G3", "dur": 0.46, "vel": 0.52}, {"id": "lh-217", "beat": 3.5, "midi": 43, "name": "G2", "dur": 0.46, "vel": 0.52}], "spill_rh": [{"id": "rh-253", "beat": 4.0625, "midi": 76, "name": "E5", "dur": 3.6225, "vel": 0.72, "spill": true}, {"id": "rh-252", "beat": 4.0938, "midi": 79, "name": "G5", "dur": 3.59375, "vel": 0.72, "spill": true}, {"id": "rh-251", "beat": 4.125, "midi": 84, "name": "C6", "dur": 3.565, "vel": 0.72, "spill": true}], "spill_lh": [{"id": "lh-219", "beat": 4.0, "midi": 36, "name": "C2", "dur": 3.68, "vel": 0.52, "spill": true}, {"id": "lh-218", "beat": 4.0312, "midi": 48, "name": "C3", "dur": 3.65125, "vel": 0.52, "spill": true}]}, {"bar": 22, "step": "flat", "subject": false, "rh": [{"id": "rh-253", "beat": 0.0625, "midi": 76, "name": "E5", "dur": 3.6225, "vel": 0.72}, {"id": "rh-252", "beat": 0.0938, "midi": 79, "name": "G5", "dur": 3.59375, "vel": 0.72}, {"id": "rh-251", "beat": 0.125, "midi": 84, "name": "C6", "dur": 3.565, "vel": 0.72}], "lh": [{"id": "lh-219", "beat": 0.0, "midi": 36, "name": "C2", "dur": 3.68, "vel": 0.52}, {"id": "lh-218", "beat": 0.0312, "midi": 48, "name": "C3", "dur": 3.65125, "vel": 0.52}], "spill_rh": [], "spill_lh": []}];
const tags = {"lh-0": 1, "lh-1": 2, "lh-2": 3, "lh-b0-t0-n0": 4, "lh-b0-t0-n1": 5, "lh-b0-t0-n2": 6, "lh-b0-t1-n0": 7, "lh-b0-t1-n1": 8, "lh-b0-t1-n2": 9, "lh-7": 10, "rh-0": 1, "rh-1": 2, "rh-2": 3, "rh-b0-t0-n0": 4, "rh-b0-t0-n1": 5, "rh-b0-t0-n2": 6, "rh-b0-t1-n0": 7, "rh-b0-t1-n1": 8, "rh-b0-t1-n2": 9, "rh-7": 10, "lh-9": 1, "lh-10": 2, "lh-11": 3, "lh-b1-t0-n0": 4, "lh-b1-t0-n1": 5, "lh-b1-t0-n2": 6, "lh-b1-t1-n0": 7, "lh-b1-t1-n1": 8, "lh-b1-t1-n2": 9, "lh-16": 10, "rh-15": 1, "rh-16": 2, "rh-17": 3, "rh-b1-t0-n0": 4, "rh-b1-t0-n1": 5, "rh-b1-t0-n2": 6, "rh-b1-t1-n0": 7, "rh-b1-t1-n1": 8, "rh-b1-t1-n2": 9, "rh-22": 10, "rh-30": 1, "rh-31": 2, "rh-32": 3, "rh-b2-t0-n0": 4, "rh-b2-t0-n1": 5, "rh-b2-t0-n2": 6, "rh-b2-t1-n0": 7, "rh-b2-t1-n1": 8, "rh-b2-t1-n2": 9, "rh-37": 10, "lh-31": 1, "lh-32": 2, "lh-33": 3, "lh-b4-t0-n0": 4, "lh-b4-t0-n1": 5, "lh-b4-t0-n2": 6, "lh-b4-t1-n0": 7, "lh-b4-t1-n1": 8, "lh-b4-t1-n2": 9, "lh-38": 10, "rh-68": 1, "rh-69": 2, "rh-70": 3, "rh-b4-t0-n0": 4, "rh-b4-t0-n1": 5, "rh-b4-t0-n2": 6, "rh-b4-t1-n0": 7, "rh-b4-t1-n1": 8, "rh-b4-t1-n2": 9, "rh-75": 10, "rh-76": 1, "rh-77": 2, "rh-78": 3, "rh-b5-t0-n0": 4, "rh-b5-t0-n1": 5, "rh-b5-t0-n2": 6, "rh-b5-t1-n0": 7, "rh-b5-t1-n1": 8, "rh-b5-t1-n2": 9, "rh-83": 10, "lh-62": 1, "lh-63": 2, "lh-64": 3, "lh-b7-t0-n0": 4, "lh-b7-t0-n1": 5, "lh-b7-t0-n2": 6, "lh-b7-t1-n0": 7, "lh-b7-t1-n1": 8, "lh-b7-t1-n2": 9, "lh-69": 10, "rh-106": 1, "rh-107": 2, "rh-108": 3, "rh-b7-t0-n0": 4, "rh-b7-t0-n1": 5, "rh-b7-t0-n2": 6, "rh-b7-t1-n0": 7, "rh-b7-t1-n1": 8, "rh-b7-t1-n2": 9, "rh-113": 10, "lh-74": 1, "lh-75": 2, "lh-76": 3, "lh-b8-t0-n0": 4, "lh-b8-t0-n1": 5, "lh-b8-t0-n2": 6, "lh-b8-t1-n0": 7, "lh-b8-t1-n1": 8, "lh-b8-t1-n2": 9, "lh-81": 10, "rh-114": 1, "rh-115": 2, "rh-116": 3, "rh-b8-t0-n0": 4, "rh-b8-t0-n1": 5, "rh-b8-t0-n2": 6, "rh-b8-t1-n0": 7, "rh-b8-t1-n1": 8, "rh-b8-t1-n2": 9, "rh-121": 10, "lh-86": 1, "lh-87": 2, "lh-88": 3, "lh-b9-t0-n0": 4, "lh-b9-t0-n1": 5, "lh-b9-t0-n2": 6, "lh-b9-t1-n0": 7, "lh-b9-t1-n1": 8, "lh-b9-t1-n2": 9, "lh-93": 10, "lh-114": 1, "lh-115": 2, "lh-116": 3, "lh-b11-t0-n0": 4, "lh-b11-t0-n1": 5, "lh-b11-t0-n2": 6, "lh-b11-t1-n0": 7, "lh-b11-t1-n1": 8, "lh-b11-t1-n2": 9, "lh-121": 10, "lh-136": 1, "lh-137": 2, "lh-138": 3, "lh-b12-t0-n0": 4, "lh-b12-t0-n1": 5, "lh-b12-t0-n2": 6, "lh-b12-t1-n0": 7, "lh-b12-t1-n1": 8, "lh-b12-t1-n2": 9, "lh-143": 10, "rh-144": 1, "rh-145": 2, "rh-146": 3, "rh-b12-t0-n0": 4, "rh-b12-t0-n1": 5, "rh-b12-t0-n2": 6, "rh-b12-t1-n0": 7, "rh-b12-t1-n1": 8, "rh-b12-t1-n2": 9, "rh-151": 10, "lh-157": 1, "lh-158": 2, "lh-159": 3, "lh-b14-t0-n0": 4, "lh-b14-t0-n1": 5, "lh-b14-t0-n2": 6, "lh-b14-t1-n0": 7, "lh-b14-t1-n1": 8, "lh-b14-t1-n2": 9, "lh-164": 10, "rh-175": 1, "rh-176": 2, "rh-177": 3, "rh-b14-t0-n0": 4, "rh-b14-t0-n1": 5, "rh-b14-t0-n2": 6, "rh-b14-t1-n0": 7, "rh-b14-t1-n1": 8, "rh-b14-t1-n2": 9, "rh-182": 10, "lh-165": 1, "lh-166": 2, "lh-167": 3, "lh-b15-t0-n0": 4, "lh-b15-t0-n1": 5, "lh-b15-t0-n2": 6, "lh-b15-t1-n0": 7, "lh-b15-t1-n1": 8, "lh-b15-t1-n2": 9, "lh-172": 10, "rh-183": 1, "rh-184": 2, "rh-185": 3, "rh-b15-t0-n0": 4, "rh-b15-t0-n1": 5, "rh-b15-t0-n2": 6, "rh-b15-t1-n0": 7, "rh-b15-t1-n1": 8, "rh-b15-t1-n2": 9, "rh-190": 10, "lh-181": 1, "lh-182": 2, "lh-183": 3, "lh-b17-t0-n0": 4, "lh-b17-t0-n1": 5, "lh-b17-t0-n2": 6, "lh-b17-t1-n0": 7, "lh-b17-t1-n1": 8, "lh-b17-t1-n2": 9, "lh-188": 10, "rh-199": 1, "rh-200": 2, "rh-201": 3, "rh-b17-t0-n0": 4, "rh-b17-t0-n1": 5, "rh-b17-t0-n2": 6, "rh-b17-t1-n0": 7, "rh-b17-t1-n1": 8, "rh-b17-t1-n2": 9, "rh-206": 10, "rh-207": 1, "rh-208": 2, "rh-209": 3, "rh-b18-t0-n0": 4, "rh-b18-t0-n1": 5, "rh-b18-t0-n2": 6, "rh-b18-t1-n0": 7, "rh-b18-t1-n1": 8, "rh-b18-t1-n2": 9, "rh-214": 10, "rh-236": 1, "rh-237": 2, "rh-238": 3, "rh-b20-t0-n0": 4, "rh-b20-t0-n1": 5, "rh-b20-t0-n2": 6, "rh-b20-t1-n0": 7, "rh-b20-t1-n1": 8, "rh-b20-t1-n2": 9, "rh-243": 10, "rh-38": 1, "rh-39": 2, "rh-40": 3, "rh-b2-t2-n0": 4, "rh-b2-t2-n1": 5, "rh-b2-t2-n2": 6, "rh-b2-t3-n0": 7, "rh-b2-t3-n1": 8, "rh-b2-t3-n2": 9, "rh-45": 10, "rh-46": 1, "rh-47": 2, "rh-48": 3, "rh-b3-t0-n0": 4, "rh-b3-t0-n1": 5, "rh-b3-t0-n2": 6, "rh-b3-t1-n0": 7, "rh-b3-t1-n1": 8, "rh-b3-t1-n2": 9, "rh-53": 10, "rh-54": 1, "rh-55": 2, "rh-56": 3, "rh-b3-t2-n0": 4, "rh-b3-t2-n1": 5, "rh-b3-t2-n2": 6, "rh-b3-t3-n0": 7, "rh-b3-t3-n1": 8, "rh-b3-t3-n2": 9, "rh-61": 10, "rh-84": 1, "rh-86": 2, "rh-87": 3, "rh-fix6-n0": 4, "rh-fix6-n1": 5, "rh-fix6-n2": 6, "rh-fix6-n3": 7, "rh-fix6-n4": 8, "rh-fix6-n5": 9, "rh-94": 10, "lh-50": 1, "lh-51": 2, "lh-52": 3, "lh-b6-t0-n0": 4, "lh-b6-t0-n1": 5, "lh-b6-t0-n2": 6, "lh-b6-t1-n0": 7, "lh-b6-t1-n1": 8, "lh-b6-t1-n2": 9, "lh-57": 10, "rh-95": 1, "rh-96": 2, "rh-97": 3, "rh-b6-t0-n0": 4, "rh-b6-t0-n1": 5, "rh-b6-t0-n2": 6, "rh-b6-t1-n0": 7, "rh-b6-t1-n1": 8, "rh-b6-t1-n2": 9, "rh-103": 10, "rh-122": 1, "rh-123": 2, "rh-124": 3, "rh-b9-t0-n0": 4, "rh-b9-t0-n1": 5, "rh-b9-t0-n2": 6, "rh-127": 7, "rh-128": 9, "rh-129": 10, "lh-98": 1, "lh-99": 2, "lh-100": 3, "lh-101": 4, "lh-102": 6, "lh-b10-t0-n0": 4, "lh-b10-t0-n1": 5, "lh-b10-t0-n2": 6, "lh-105": 10, "lh-106": 1, "lh-107": 2, "lh-108": 3, "lh-b10-t1-n0": 7, "lh-b10-t1-n1": 8, "lh-b10-t1-n2": 9, "lh-b10-t2-n0": 4, "lh-b10-t2-n1": 5, "lh-b10-t2-n2": 6, "lh-113": 10, "lh-122": 1, "lh-123": 2, "lh-124": 3, "lh-b11-t2-n0": 4, "lh-b11-t2-n1": 5, "lh-b11-t2-n2": 6, "lh-b11-t3-n0": 7, "lh-b11-t3-n1": 8, "lh-b11-t3-n2": 9, "lh-129": 10, "rh-160": 1, "rh-161": 2, "rh-162": 3, "rh-b13-t0-n0": 4, "rh-b13-t0-n1": 5, "rh-b13-t0-n2": 6, "rh-b13-t1-n0": 7, "rh-b13-t1-n1": 8, "rh-b13-t1-n2": 9, "rh-167": 10, "rh-168": 1, "rh-169": 2, "rh-170": 3, "rh-174": 10, "rh-191": 1, "rh-192": 2, "rh-193": 3, "rh-b16-t0-n0": 4, "rh-b16-t0-n1": 5, "rh-b16-t0-n2": 6, "rh-b16-t1-n0": 7, "rh-b16-t1-n1": 8, "rh-b16-t1-n2": 9, "rh-198": 10, "lh-173": 1, "lh-174": 2, "lh-175": 3, "lh-b16-t0-n0": 4, "lh-b16-t0-n1": 5, "lh-b16-t0-n2": 6, "lh-b16-t1-n0": 7, "lh-b16-t1-n1": 8, "lh-b16-t1-n2": 9, "lh-180": 10, "rh-215": 1, "rh-216": 2, "rh-217": 3, "rh-b18-t2-n0": 4, "rh-b18-t2-n1": 5, "rh-b18-t2-n2": 6, "rh-b18-t3-n0": 7, "rh-b18-t3-n1": 8, "rh-b18-t3-n2": 9, "rh-222": 10, "rh-223": 1, "rh-224": 2, "rh-225": 3, "rh-b19-t0-n0": 4, "rh-b19-t0-n1": 5, "rh-b19-t0-n2": 6, "rh-b19-t1-n0": 7, "rh-b19-t1-n1": 8, "rh-b19-t1-n2": 9, "rh-230": 10, "lh-201": 1, "lh-202": 2, "lh-203": 3, "lh-b19-t0-n0": 4, "lh-b19-t0-n1": 5, "lh-b19-t0-n2": 6, "lh-b19-t1-n0": 7, "lh-b19-t1-n1": 8, "lh-b19-t1-n2": 9, "lh-208": 10, "rh-244": 1, "rh-245": 2, "rh-246": 3, "rh-b20-t2-n0": 4, "rh-b20-t2-n1": 5, "rh-b20-t2-n2": 6, "rh-b20-t3-n0": 7, "rh-b20-t3-n1": 8, "rh-b20-t3-n2": 9, "rh-251": 10, "rh-b9-t1-n0": 7, "rh-b9-t1-n1": 8, "rh-b9-t1-n2": 9, "lh-b10-t3-n0": 7, "lh-b10-t3-n1": 8, "lh-b10-t3-n2": 9};
const history = [];
let selectedNum = 1;

function updateNumPad() {
  const pad = document.getElementById("numPad");
  pad.innerHTML = "";
  for (let i = 1; i <= 10; i++) {
    const b = document.createElement("button");
    b.textContent = String(i);
    b.className = i === selectedNum ? "active" : "";
    b.onclick = () => { selectedNum = i; updateNumPad(); updateStatus(); };
    pad.appendChild(b);
  }
}

function updateStatus(msg) {
  document.getElementById("status").innerHTML =
    (msg ? msg + " · " : "") + `当前选中：<b>${selectedNum}</b>`;
}

const NOTE_H = 14;
const BEAT_W = 48;
const LANE_H = 130;
const PAD_L = 44;
const PAD_T = 22;
const SPILL_BEATS = 1;

function barWidth(row) {
  return PAD_L + BEAT_W * (row.subject && row.bar < 22 ? 4 + SPILL_BEATS : 4) + 20;
}

function allNotes(row) {
  return row.rh.concat(row.lh, row.spill_rh || [], row.spill_lh || []);
}

function midiRange(notes) {
  if (!notes.length) return [48, 84];
  let lo = 999, hi = 0;
  for (const n of notes) { lo = Math.min(lo, n.midi); hi = Math.max(hi, n.midi); }
  return [lo - 2, hi + 2];
}

function yForMidi(midi, lo, hi, h) {
  return PAD_T + (1 - (midi - lo) / Math.max(1, hi - lo)) * (h - PAD_T - 10);
}

function drawBar(row, canvas) {
  const notes = allNotes(row);
  const [lo, hi] = midiRange(notes);
  const beats = row.subject && row.bar < 22 ? 4 + SPILL_BEATS : 4;
  const W = PAD_L + BEAT_W * beats + 20;
  const H = LANE_H;
  canvas.width = W;
  canvas.height = H;
  const ctx = canvas.getContext("2d");
  ctx.fillStyle = "#0d0d0d";
  ctx.fillRect(0, 0, W, H);

  if (beats > 4) {
    ctx.fillStyle = "rgba(80,80,80,0.15)";
    ctx.fillRect(PAD_L + 4 * BEAT_W, PAD_T, SPILL_BEATS * BEAT_W, H - PAD_T);
    ctx.fillStyle = "#666"; ctx.font = "10px system-ui";
    ctx.fillText("下小节", PAD_L + 4 * BEAT_W + 4, 12);
  }

  // 8 格 = 8 个八分音符（每格 0.5 拍）
  const eighths = Math.round(beats * 2);
  for (let i = 0; i <= eighths; i++) {
    const beat = i * 0.5;
    const x = PAD_L + beat * BEAT_W;
    const isBarEnd = i === 8;
    const isHalf = i === 4;
    ctx.strokeStyle = isBarEnd && beats > 4 ? "#444" : isHalf ? "#333" : "#252525";
    ctx.setLineDash(isBarEnd && beats > 4 ? [4, 4] : isHalf ? [6, 4] : []);
    ctx.beginPath(); ctx.moveTo(x, PAD_T); ctx.lineTo(x, H); ctx.stroke();
    ctx.setLineDash([]);
    if (i < 8) {
      ctx.fillStyle = "#555"; ctx.font = "10px system-ui";
      ctx.fillText(String(i + 1), x + 2, 12);
    }
  }

  ctx.fillStyle = "rgba(90,142,200,0.06)";
  ctx.fillRect(PAD_L, PAD_T, 0.25 * BEAT_W, H - PAD_T);

  ctx.fillStyle = "#888"; ctx.font = "11px system-ui";
  ctx.fillText("RH", 6, PAD_T + 14);
  ctx.fillText("LH", 6, PAD_T + 58);

  function drawVoice(list, yOff, voice) {
    for (const n of list) {
      const x = PAD_L + n.beat * BEAT_W;
      const y = yForMidi(n.midi, lo, hi, H) + yOff;
      const w = Math.max(8, n.dur * BEAT_W * 0.92);
      const tag = tags[n.id] || 0;
      ctx.fillStyle = voice === "rh" ? "#c8e0ff" : "#a8d8a8";
      if (n.vel === 0) ctx.fillStyle = voice === "rh" ? "#3a4a5a" : "#3a5a4a";
      if (n.spill) ctx.globalAlpha = 0.85;
      ctx.fillRect(x, y - NOTE_H/2, w, NOTE_H);
      ctx.globalAlpha = 1;
      ctx.strokeStyle = tag ? "#ffb040" : (n.spill ? "#777" : "#555");
      ctx.lineWidth = tag ? 2 : 1;
      ctx.strokeRect(x, y - NOTE_H/2, w, NOTE_H);
      if (tag) {
        ctx.fillStyle = "#ffb040"; ctx.font = "bold 11px system-ui";
        ctx.fillText(String(tag), x + 3, y + 4);
      }
      ctx.fillStyle = n.spill ? "#888" : "#666"; ctx.font = "9px system-ui";
      ctx.fillText(n.name, x + 2, y - NOTE_H/2 - 2);
    }
  }
  drawVoice(row.rh, 0, "rh");
  drawVoice(row.lh, 4, "lh");
  drawVoice(row.spill_rh || [], 0, "rh");
  drawVoice(row.spill_lh || [], 4, "lh");

  canvas._hits = [];
  for (const list of [row.rh, row.lh, row.spill_rh || [], row.spill_lh || []]) {
    for (const n of list) {
      const x = PAD_L + n.beat * BEAT_W;
      const y = yForMidi(n.midi, lo, hi, H);
      const w = Math.max(8, n.dur * BEAT_W * 0.92);
      canvas._hits.push({ id: n.id, bar: row.bar, x, y, w, h: NOTE_H, n });
    }
  }
}

function render() {
  const root = document.getElementById("root");
  root.innerHTML = "";
  for (const row of BARS) {
    const block = document.createElement("div");
    block.className = "bar-block" + (row.subject ? " subject" : "");
    block.innerHTML = `<h2>谱小节 ${row.bar} <span class="tag">${row.step}</span></h2>`;
    const cv = document.createElement("canvas");
    block.appendChild(cv);
    const hint = document.createElement("div");
    hint.className = "hint";
    hint.textContent = row.subject
      ? "点 1–10 按钮 → 点音符；右侧灰区=下小节第1拍（可标第10音）"
      : "非主题小节也可标（若需要）";
    block.appendChild(hint);
    root.appendChild(block);
    drawBar(row, cv);
    cv.oncontextmenu = (e) => {
      e.preventDefault();
      const r = cv.getBoundingClientRect();
      const mx = (e.clientX - r.left) * (cv.width / r.width);
      const my = (e.clientY - r.top) * (cv.height / r.height);
      for (const h of cv._hits) {
        if (mx >= h.x && mx <= h.x + h.w && my >= h.y - h.h/2 && my <= h.y + h.h/2) {
          if (!tags[h.id]) return;
          const rm = tags[h.id]; delete tags[h.id];
          for (let i = history.length - 1; i >= 0; i--) if (history[i].id === h.id) { history.splice(i, 1); break; }
          updateStatus(`${h.n.name} 取消 ${rm}`); render(); return;
        }
      }
    };
    cv.onclick = (e) => {
      const r = cv.getBoundingClientRect();
      const mx = (e.clientX - r.left) * (cv.width / r.width);
      const my = (e.clientY - r.top) * (cv.height / r.height);
      for (const h of cv._hits) {
        if (mx >= h.x && mx <= h.x + h.w && my >= h.y - h.h/2 && my <= h.y + h.h/2) {
          const prev = tags[h.id];
          if (prev === selectedNum) { updateStatus(`${h.n.name} 已是 ${selectedNum}`); return; }
          tags[h.id] = selectedNum;
          history.push({ id: h.id, n: selectedNum, prev: prev || 0 });
          const where = h.n.spill ? "（下小节）" : "";
          updateStatus(`${h.n.name}${where} → ${selectedNum}`); render(); return;
        }
      }
    };
  }
}

document.getElementById("save").onclick = () => {
  const a = document.createElement("a");
  a.href = URL.createObjectURL(new Blob([JSON.stringify({ tags }, null, 2)], {type: "application/json"}));
  a.download = "subject_map.json"; a.click();
};
document.getElementById("undo").onclick = () => {
  const last = history.pop(); if (!last) return;
  if (last.prev) tags[last.id] = last.prev;
  else delete tags[last.id];
  updateStatus(`撤销 ${last.n}`); render();
};
document.getElementById("clear").onclick = () => {
  for (const k of Object.keys(tags)) delete tags[k];
  history.length = 0;
  updateStatus("已清除"); render();
};
updateNumPad();
render();
</script>
</body>
</html>