[{"id":"rh-0","t":0.25,"dur":0.23,"midi":72,"vel":0.72},{"id":"rh-1","t":0.5,"dur":0.23,"midi":74,"vel":0.72},{"id":"rh-2","t":0.75,"dur":0.23,"midi":76,"vel":0.72},{"id":"rh-b0-t0-n0","t":1.0,"dur":0.153333,"midi":77,"vel":0.72},{"id":"rh-b0-t0-n1","t":1.166667,"dur":0.153333,"midi":76,"vel":0.72},{"id":"rh-b0-t0-n2","t":1.333333,"dur":0.153333,"midi":74,"vel":0.72},{"id":"rh-b0-t1-n0","t":1.5,"dur":0.153333,"midi":76,"vel":0.72},{"id":"rh-b0-t1-n1","t":1.666667,"dur":0.153333,"midi":74,"vel":0.72},{"id":"rh-b0-t1-n2","t":1.833333,"dur":0.153333,"midi":72,"vel":0.72},{"id":"rh-7","t":2.0,"dur":0.46,"midi":79,"vel":0.72},{"id":"lh-0","t":2.25,"dur":0.23,"midi":48,"vel":0.52},{"id":"lh-1","t":2.5,"dur":0.23,"midi":50,"vel":0.52},{"id":"rh-8","t":2.5,"dur":0.46,"midi":84,"vel":0.72},{"id":"lh-2","t":2.75,"dur":0.23,"midi":52,"vel":0.52},{"id":"lh-b0-t0-n0","t":3.0,"dur":0.153333,"midi":53,"vel":0.52},{"id":"rh-9","t":3.0,"dur":0.076667,"midi":84,"vel":0.72},{"id":"rh-10","t":3.083333,"dur":0.076667,"midi":83,"vel":0.72},{"id":"lh-b0-t0-n1","t":3.166667,"dur":0.153333,"midi":52,"vel":0.52},{"id":"rh-11","t":3.166667,"dur":0.076667,"midi":84,"vel":0.72},{"id":"rh-12","t":3.25,"dur":0.23,"midi":83,"vel":0.72},{"id":"lh-b0-t0-n2","t":3.333333,"dur":0.153333,"midi":50,"vel":0.52},{"id":"lh-b0-t1-n0","t":3.5,"dur":0.153333,"midi":52,"vel":0.52},{"id":"rh-13","t":3.5,"dur":0.46,"midi":84,"vel":0.72},{"id":"lh-b0-t1-n1","t":3.666667,"dur":0.153333,"midi":50,"vel":0.52},{"id":"lh-b0-t1-n2","t":3.833333,"dur":0.153333,"midi":48,"vel":0.52},{"id":"lh-7","t":4.0,"dur":0.46,"midi":55,"vel":0.52},{"id":"rh-14","t":4.0,"dur":0.23,"midi":86,"vel":0.72},{"id":"rh-15","t":4.25,"dur":0.23,"midi":79,"vel":0.72},{"id":"lh-8","t":4.5,"dur":0.46,"midi":43,"vel":0.52},{"id":"rh-16","t":4.5,"dur":0.23,"midi":81,"vel":0.72},{"id":"rh-17","t":4.75,"dur":0.23,"midi":83,"vel":0.72},{"id":"rh-b1-t0-n0","t":5.0,"dur":0.153333,"midi":84,"vel":0.72},{"id":"rh-b1-t0-n1","t":5.166667,"dur":0.153333,"midi":83,"vel":0.72},{"id":"rh-b1-t0-n2","t":5.333333,"dur":0.153333,"midi":81,"vel":0.72},{"id":"rh-b1-t1-n0","t":5.5,"dur":0.153333,"midi":83,"vel":0.72},{"id":"rh-b1-t1-n1","t":5.666667,"dur":0.153333,"midi":81,"vel":0.72},{"id":"rh-b1-t1-n2","t":5.833333,"dur":0.153333,"midi":79,"vel":0.72},{"id":"rh-22","t":6.0,"dur":0.46,"midi":86,"vel":0.72},{"id":"lh-9","t":6.25,"dur":0.23,"midi":55,"vel":0.52},{"id":"lh-10","t":6.5,"dur":0.23,"midi":57,"vel":0.52},{"id":"rh-23","t":6.5,"dur":0.46,"midi":91,"vel":0.72},{"id":"lh-11","t":6.75,"dur":0.23,"midi":59,"vel":0.52},{"id":"lh-b1-t0-n0","t":7.0,"dur":0.153333,"midi":60,"vel":0.52},{"id":"rh-24","t":7.0,"dur":0.076667,"midi":91,"vel":0.72},{"id":"rh-25","t":7.083333,"dur":0.076667,"midi":89,"vel":0.72},{"id":"lh-b1-t0-n1","t":7.166667,"dur":0.153333,"midi":59,"vel":0.52},{"id":"rh-26","t":7.166667,"dur":0.076667,"midi":91,"vel":0.72},{"id":"rh-27","t":7.25,"dur":0.23,"midi":89,"vel":0.72},{"id":"lh-b1-t0-n2","t":7.333333,"dur":0.153333,"midi":57,"vel":0.52},{"id":"lh-b1-t1-n0","t":7.5,"dur":0.153333,"midi":59,"vel":0.52},{"id":"rh-28","t":7.5,"dur":0.46,"midi":91,"vel":0.72},{"id":"lh-b1-t1-n1","t":7.666667,"dur":0.153333,"midi":57,"vel":0.52},{"id":"lh-b1-t1-n2","t":7.833333,"dur":0.153333,"midi":55,"vel":0.52},{"id":"lh-16","t":8.0,"dur":0.46,"midi":60,"vel":0.52},{"id":"rh-29","t":8.0,"dur":0.23,"midi":88,"vel":0.72},{"id":"rh-30","t":8.25,"dur":0.23,"midi":93,"vel":0.72},{"id":"lh-17","t":8.5,"dur":0.46,"midi":59,"vel":0.52},{"id":"rh-31","t":8.5,"dur":0.23,"midi":91,"vel":0.72},{"id":"rh-32","t":8.75,"dur":0.23,"midi":89,"vel":0.72},{"id":"lh-18","t":9.0,"dur":0.46,"midi":60,"vel":0.52},{"id":"rh-b2-t0-n0","t":9.0,"dur":0.153333,"midi":88,"vel":0.72},{"id":"rh-b2-t0-n1","t":9.166667,"dur":0.153333,"midi":89,"vel":0.72},{"id":"rh-b2-t0-n2","t":9.333333,"dur":0.153333,"midi":91,"vel":0.72},{"id":"lh-19","t":9.5,"dur":0.46,"midi":62,"vel":0.52},{"id":"rh-b2-t1-n0","t":9.5,"dur":0.153333,"midi":89,"vel":0.72},{"id":"rh-b2-t1-n1","t":9.666667,"dur":0.153333,"midi":91,"vel":0.72},{"id":"rh-b2-t1-n2","t":9.833333,"dur":0.153333,"midi":93,"vel":0.72},{"id":"lh-20","t":10.0,"dur":0.46,"midi":64,"vel":0.52},{"id":"rh-37","t":10.0,"dur":0.23,"midi":91,"vel":0.72},{"id":"rh-38","t":10.25,"dur":0.23,"midi":89,"vel":0.72},{"id":"lh-21","t":10.5,"dur":0.46,"midi":55,"vel":0.52},{"id":"rh-39","t":10.5,"dur":0.23,"midi":88,"vel":0.72},{"id":"rh-40","t":10.75,"dur":0.23,"midi":86,"vel":0.72},{"id":"lh-22","t":11.0,"dur":0.46,"midi":57,"vel":0.52},{"id":"rh-b2-t2-n0","t":11.0,"dur":0.153333,"midi":84,"vel":0.72},{"id":"rh-b2-t2-n1","t":11.166667,"dur":0.153333,"midi":86,"vel":0.72},{"id":"rh-b2-t2-n2","t":11.333333,"dur":0.153333,"midi":88,"vel":0.72},{"id":"lh-23","t":11.5,"dur":0.46,"midi":59,"vel":0.52},{"id":"rh-b2-t3-n0","t":11.5,"dur":0.153333,"midi":86,"vel":0.72},{"id":"rh-b2-t3-n1","t":11.666667,"dur":0.153333,"midi":88,"vel":0.72},{"id":"rh-b2-t3-n2","t":11.833333,"dur":0.153333,"midi":89,"vel":0.72},{"id":"lh-24","t":12.0,"dur":0.46,"midi":60,"vel":0.52},{"id":"rh-45","t":12.0,"dur":0.23,"midi":88,"vel":0.72},{"id":"rh-46","t":12.25,"dur":0.23,"midi":86,"vel":0.72},{"id":"lh-25","t":12.5,"dur":0.46,"midi":52,"vel":0.52},{"id":"rh-47","t":12.5,"dur":0.23,"midi":84,"vel":0.72},{"id":"rh-48","t":12.75,"dur":0.23,"midi":83,"vel":0.72},{"id":"lh-26","t":13.0,"dur":0.46,"midi":54,"vel":0.52},{"id":"rh-b3-t0-n0","t":13.0,"dur":0.153333,"midi":81,"vel":0.72},{"id":"rh-b3-t0-n1","t":13.166667,"dur":0.153333,"midi":83,"vel":0.72},{"id":"rh-b3-t0-n2","t":13.333333,"dur":0.153333,"midi":84,"vel":0.72},{"id":"lh-27","t":13.5,"dur":0.46,"midi":55,"vel":0.52},{"id":"rh-b3-t1-n0","t":13.5,"dur":0.153333,"midi":83,"vel":0.72},{"id":"rh-b3-t1-n1","t":13.666667,"dur":0.153333,"midi":84,"vel":0.72},{"id":"rh-b3-t1-n2","t":13.833333,"dur":0.153333,"midi":86,"vel":0.72},{"id":"lh-28","t":14.0,"dur":0.46,"midi":57,"vel":0.52},{"id":"rh-53","t":14.0,"dur":0.23,"midi":84,"vel":0.72},{"id":"rh-54","t":14.25,"dur":0.23,"midi":83,"vel":0.72},{"id":"lh-29","t":14.5,"dur":0.46,"midi":59,"vel":0.52},{"id":"rh-55","t":14.5,"dur":0.23,"midi":81,"vel":0.72},{"id":"rh-56","t":14.75,"dur":0.23,"midi":79,"vel":0.72},{"id":"lh-30","t":15.0,"dur":1.111667,"midi":60,"vel":0.52},{"id":"rh-b3-t2-n0","t":15.0,"dur":0.153333,"midi":78,"vel":0.72},{"id":"rh-b3-t2-n1","t":15.166667,"dur":0.153333,"midi":79,"vel":0.72},{"id":"rh-b3-t2-n2","t":15.333333,"dur":0.153333,"midi":81,"vel":0.72},{"id":"rh-b3-t3-n0","t":15.5,"dur":0.153333,"midi":79,"vel":0.72},{"id":"rh-b3-t3-n1","t":15.666667,"dur":0.153333,"midi":81,"vel":0.72},{"id":"rh-b3-t3-n2","t":15.833333,"dur":0.153333,"midi":83,"vel":0.72},{"id":"rh-61","t":16.0,"dur":0.46,"midi":81,"vel":0.72},{"id":"lh-31","t":16.25,"dur":0.23,"midi":50,"vel":0.52},{"id":"lh-32","t":16.5,"dur":0.23,"midi":52,"vel":0.52},{"id":"rh-62","t":16.5,"dur":0.46,"midi":74,"vel":0.72},{"id":"lh-33","t":16.75,"dur":0.23,"midi":54,"vel":0.52},{"id":"lh-b4-t0-n0","t":17.0,"dur":0.153333,"midi":55,"vel":0.52},{"id":"rh-63","t":17.0,"dur":0.115,"midi":84,"vel":0.72},{"id":"rh-64","t":17.125,"dur":0.115,"midi":83,"vel":0.72},{"id":"lh-b4-t0-n1","t":17.166667,"dur":0.153333,"midi":54,"vel":0.52},{"id":"rh-65","t":17.25,"dur":0.46,"midi":84,"vel":0.72},{"id":"lh-b4-t0-n2","t":17.333333,"dur":0.153333,"midi":52,"vel":0.52},{"id":"lh-b4-t1-n0","t":17.5,"dur":0.153333,"midi":54,"vel":0.52},{"id":"lh-b4-t1-n1","t":17.666667,"dur":0.153333,"midi":52,"vel":0.52},{"id":"rh-66","t":17.75,"dur":0.23,"midi":86,"vel":0.72},{"id":"lh-b4-t1-n2","t":17.833333,"dur":0.153333,"midi":50,"vel":0.52},{"id":"lh-38","t":18.0,"dur":0.46,"midi":55,"vel":0.52},{"id":"rh-67","t":18.0,"dur":0.23,"midi":83,"vel":0.72},{"id":"rh-68","t":18.25,"dur":0.23,"midi":81,"vel":0.72},{"id":"lh-39","t":18.5,"dur":0.46,"midi":47,"vel":0.52},{"id":"rh-69","t":18.5,"dur":0.23,"midi":79,"vel":0.72},{"id":"rh-70","t":18.75,"dur":0.23,"midi":78,"vel":0.72},{"id":"lh-40","t":19.0,"dur":0.46,"midi":48,"vel":0.52},{"id":"rh-b4-t0-n0","t":19.0,"dur":0.153333,"midi":76,"vel":0.72},{"id":"rh-b4-t0-n1","t":19.166667,"dur":0.153333,"midi":78,"vel":0.72},{"id":"rh-b4-t0-n2","t":19.333333,"dur":0.153333,"midi":79,"vel":0.72},{"id":"lh-41","t":19.5,"dur":0.46,"midi":50,"vel":0.52},{"id":"rh-b4-t1-n0","t":19.5,"dur":0.153333,"midi":78,"vel":0.72},{"id":"rh-b4-t1-n1","t":19.666667,"dur":0.153333,"midi":79,"vel":0.72},{"id":"rh-b4-t1-n2","t":19.833333,"dur":0.153333,"midi":81,"vel":0.72},{"id":"lh-42","t":20.0,"dur":0.46,"midi":52,"vel":0.52},{"id":"rh-75","t":20.0,"dur":0.23,"midi":79,"vel":0.72},{"id":"rh-76","t":20.25,"dur":0.23,"midi":83,"vel":0.72},{"id":"lh-43","t":20.5,"dur":0.46,"midi":54,"vel":0.52},{"id":"rh-77","t":20.5,"dur":0.23,"midi":81,"vel":0.72},{"id":"rh-78","t":20.75,"dur":0.23,"midi":84,"vel":0.72},{"id":"lh-44","t":21.0,"dur":0.46,"midi":55,"vel":0.52},{"id":"rh-b5-t0-n0","t":21.0,"dur":0.153333,"midi":83,"vel":0.72},{"id":"rh-b5-t0-n1","t":21.166667,"dur":0.153333,"midi":84,"vel":0.72},{"id":"rh-b5-t0-n2","t":21.333333,"dur":0.153333,"midi":86,"vel":0.72},{"id":"lh-45","t":21.5,"dur":0.46,"midi":52,"vel":0.52},{"id":"rh-b5-t1-n0","t":21.5,"dur":0.153333,"midi":84,"vel":0.72},{"id":"rh-b5-t1-n1","t":21.666667,"dur":0.153333,"midi":86,"vel":0.72},{"id":"rh-b5-t1-n2","t":21.833333,"dur":0.153333,"midi":88,"vel":0.72},{"id":"lh-46","t":22.0,"dur":0.69,"midi":47,"vel":0.52},{"id":"rh-83","t":22.0,"dur":0.23,"midi":86,"vel":0.72},{"id":"rh-84","t":22.25,"dur":0.115,"midi":83,"vel":0.72},{"id":"rh-85","t":22.375,"dur":0.115,"midi":84,"vel":0.72},{"id":"rh-86","t":22.5,"dur":0.23,"midi":86,"vel":0.72},{"id":"lh-47","t":22.75,"dur":0.23,"midi":48,"vel":0.52},{"id":"rh-87","t":22.75,"dur":0.23,"midi":91,"vel":0.72},{"id":"lh-48","t":23.0,"dur":0.46,"midi":50,"vel":0.52},{"id":"rh-fix6-n0","t":23.0,"dur":0.153333,"midi":83,"vel":0.72},{"id":"rh-fix6-n1","t":23.166667,"dur":0.153333,"midi":84,"vel":0.72},{"id":"rh-fix6-n2","t":23.333333,"dur":0.153333,"midi":83,"vel":0.72},{"id":"lh-49","t":23.5,"dur":0.46,"midi":38,"vel":0.52},{"id":"rh-fix6-n3","t":23.5,"dur":0.153333,"midi":83,"vel":0},{"id":"rh-fix6-n4","t":23.666667,"dur":0.153333,"midi":81,"vel":0.72},{"id":"rh-fix6-n5","t":23.833333,"dur":0.153333,"midi":79,"vel":0.72},{"id":"rh-94","t":24.0,"dur":0.46,"midi":79,"vel":0.72},{"id":"lh-50","t":24.25,"dur":0.23,"midi":43,"vel":0.52},{"id":"lh-51","t":24.5,"dur":0.23,"midi":45,"vel":0.52},{"id":"lh-52","t":24.75,"dur":0.23,"midi":47,"vel":0.52},{"id":"lh-b6-t0-n0","t":25.0,"dur":0.153333,"midi":48,"vel":0.52},{"id":"lh-b6-t0-n1","t":25.166667,"dur":0.153333,"midi":47,"vel":0.52},{"id":"lh-b6-t0-n2","t":25.333333,"dur":0.153333,"midi":45,"vel":0.52},{"id":"lh-b6-t1-n0","t":25.5,"dur":0.153333,"midi":47,"vel":0.52},{"id":"lh-b6-t1-n1","t":25.666667,"dur":0.153333,"midi":45,"vel":0.52},{"id":"lh-b6-t1-n2","t":25.833333,"dur":0.153333,"midi":43,"vel":0.52},{"id":"lh-57","t":26.0,"dur":0.46,"midi":50,"vel":0.52},{"id":"rh-95","t":26.25,"dur":0.23,"midi":79,"vel":0.72},{"id":"lh-58","t":26.5,"dur":0.46,"midi":55,"vel":0.52},{"id":"rh-96","t":26.5,"dur":0.23,"midi":81,"vel":0.72},{"id":"rh-97","t":26.75,"dur":0.23,"midi":83,"vel":0.72},{"id":"lh-59","t":27.0,"dur":0.46,"midi":54,"vel":0.52},{"id":"rh-b6-t0-n0","t":27.0,"dur":0.153333,"midi":84,"vel":0.72},{"id":"rh-b6-t0-n1","t":27.166667,"dur":0.153333,"midi":83,"vel":0.72},{"id":"rh-b6-t0-n2","t":27.333333,"dur":0.153333,"midi":81,"vel":0.72},{"id":"lh-60","t":27.5,"dur":0.46,"midi":55,"vel":0.52},{"id":"rh-b6-t1-n0","t":27.5,"dur":0.153333,"midi":83,"vel":0.72},{"id":"rh-b6-t1-n1","t":27.666667,"dur":0.153333,"midi":81,"vel":0.72},{"id":"rh-b6-t1-n2","t":27.833333,"dur":0.153333,"midi":79,"vel":0.72},{"id":"lh-61","t":28.0,"dur":0.23,"midi":57,"vel":0.52},{"id":"rh-102","t":28.0,"dur":0.076667,"midi":79,"vel":0.72},{"id":"rh-103","t":28.083333,"dur":0.076667,"midi":78,"vel":0.72},{"id":"rh-104","t":28.166667,"dur":0.076667,"midi":79,"vel":0.72},{"id":"lh-62","t":28.25,"dur":0.23,"midi":50,"vel":0.52},{"id":"rh-105","t":28.25,"dur":0.23,"midi":78,"vel":0.72},{"id":"lh-63","t":28.5,"dur":0.23,"midi":52,"vel":0.52},{"id":"lh-64","t":28.75,"dur":0.23,"midi":54,"vel":0.52},{"id":"lh-b7-t0-n0","t":29.0,"dur":0.153333,"midi":55,"vel":0.52},{"id":"lh-b7-t0-n1","t":29.166667,"dur":0.153333,"midi":54,"vel":0.52},{"id":"lh-b7-t0-n2","t":29.333333,"dur":0.153333,"midi":52,"vel":0.52},{"id":"lh-b7-t1-n0","t":29.5,"dur":0.153333,"midi":54,"vel":0.52},{"id":"lh-b7-t1-n1","t":29.666667,"dur":0.153333,"midi":52,"vel":0.52},{"id":"lh-b7-t1-n2","t":29.833333,"dur":0.153333,"midi":50,"vel":0.52},{"id":"lh-69","t":30.0,"dur":0.46,"midi":57,"vel":0.52},{"id":"rh-106","t":30.25,"dur":0.23,"midi":81,"vel":0.72},{"id":"lh-70","t":30.5,"dur":0.46,"midi":62,"vel":0.52},{"id":"rh-107","t":30.5,"dur":0.23,"midi":83,"vel":0.72},{"id":"rh-108","t":30.75,"dur":0.23,"midi":84,"vel":0.72},{"id":"lh-71","t":31.0,"dur":0.46,"midi":60,"vel":0.52},{"id":"rh-b7-t0-n0","t":31.0,"dur":0.153333,"midi":86,"vel":0.72},{"id":"rh-b7-t0-n1","t":31.166667,"dur":0.153333,"midi":84,"vel":0.72},{"id":"rh-b7-t0-n2","t":31.333333,"dur":0.153333,"midi":83,"vel":0.72},{"id":"lh-72","t":31.5,"dur":0.46,"midi":62,"vel":0.52},{"id":"rh-b7-t1-n0","t":31.5,"dur":0.153333,"midi":84,"vel":0.72},{"id":"rh-b7-t1-n1","t":31.666667,"dur":0.153333,"midi":83,"vel":0.72},{"id":"rh-b7-t1-n2","t":31.833333,"dur":0.153333,"midi":81,"vel":0.72},{"id":"lh-73","t":32.0,"dur":0.23,"midi":55,"vel":0.52},{"id":"rh-113","t":32.0,"dur":0.46,"midi":83,"vel":0.72},{"id":"lh-74","t":32.25,"dur":0.23,"midi":67,"vel":0.52},{"id":"lh-75","t":32.5,"dur":0.23,"midi":65,"vel":0.52},{"id":"lh-76","t":32.75,"dur":0.23,"midi":64,"vel":0.52},{"id":"lh-b8-t0-n0","t":33.0,"dur":0.153333,"midi":62,"vel":0.52},{"id":"lh-b8-t0-n1","t":33.166667,"dur":0.153333,"midi":64,"vel":0.52},{"id":"lh-b8-t0-n2","t":33.333333,"dur":0.153333,"midi":65,"vel":0.52},{"id":"lh-b8-t1-n0","t":33.5,"dur":0.153333,"midi":64,"vel":0.52},{"id":"lh-b8-t1-n1","t":33.666667,"dur":0.153333,"midi":65,"vel":0.52},{"id":"lh-b8-t1-n2","t":33.833333,"dur":0.153333,"midi":67,"vel":0.52},{"id":"lh-81","t":34.0,"dur":0.46,"midi":65,"vel":0.52},{"id":"rh-114","t":34.25,"dur":0.23,"midi":86,"vel":0.72},{"id":"lh-82","t":34.5,"dur":0.46,"midi":64,"vel":0.52},{"id":"rh-115","t":34.5,"dur":0.23,"midi":84,"vel":0.72},{"id":"rh-116","t":34.75,"dur":0.23,"midi":83,"vel":0.72},{"id":"lh-83","t":35.0,"dur":0.46,"midi":65,"vel":0.52},{"id":"rh-b8-t0-n0","t":35.0,"dur":0.153333,"midi":81,"vel":0.72},{"id":"rh-b8-t0-n1","t":35.166667,"dur":0.153333,"midi":83,"vel":0.72},{"id":"rh-b8-t0-n2","t":35.333333,"dur":0.153333,"midi":84,"vel":0.72},{"id":"lh-84","t":35.5,"dur":0.46,"midi":62,"vel":0.52},{"id":"rh-b8-t1-n0","t":35.5,"dur":0.153333,"midi":83,"vel":0.72},{"id":"rh-b8-t1-n1","t":35.666667,"dur":0.153333,"midi":84,"vel":0.72},{"id":"rh-b8-t1-n2","t":35.833333,"dur":0.153333,"midi":86,"vel":0.72},{"id":"lh-85","t":36.0,"dur":0.23,"midi":64,"vel":0.52},{"id":"rh-121","t":36.0,"dur":0.46,"midi":84,"vel":0.72},{"id":"lh-86","t":36.25,"dur":0.23,"midi":69,"vel":0.52},{"id":"lh-87","t":36.5,"dur":0.23,"midi":67,"vel":0.52},{"id":"lh-88","t":36.75,"dur":0.23,"midi":65,"vel":0.52},{"id":"lh-b9-t0-n0","t":37.0,"dur":0.153333,"midi":64,"vel":0.52},{"id":"lh-b9-t0-n1","t":37.166667,"dur":0.153333,"midi":65,"vel":0.52},{"id":"lh-b9-t0-n2","t":37.333333,"dur":0.153333,"midi":67,"vel":0.52},{"id":"lh-b9-t1-n0","t":37.5,"dur":0.153333,"midi":65,"vel":0.52},{"id":"lh-b9-t1-n1","t":37.666667,"dur":0.153333,"midi":67,"vel":0.52},{"id":"lh-b9-t1-n2","t":37.833333,"dur":0.153333,"midi":69,"vel":0.52},{"id":"lh-93","t":38.0,"dur":0.46,"midi":67,"vel":0.52},{"id":"rh-122","t":38.25,"dur":0.23,"midi":88,"vel":0.72},{"id":"lh-94","t":38.5,"dur":0.46,"midi":65,"vel":0.52},{"id":"rh-123","t":38.5,"dur":0.23,"midi":86,"vel":0.72},{"id":"rh-124","t":38.75,"dur":0.23,"midi":84,"vel":0.72},{"id":"lh-95","t":39.0,"dur":0.46,"midi":67,"vel":0.52},{"id":"rh-b9-t0-n0","t":39.0,"dur":0.153333,"midi":83,"vel":0.72},{"id":"rh-b9-t0-n1","t":39.166667,"dur":0.153333,"midi":85,"vel":0.72},{"id":"rh-b9-t0-n2","t":39.333333,"dur":0.153333,"midi":86,"vel":0.72},{"id":"lh-96","t":39.5,"dur":0.46,"midi":64,"vel":0.52},{"id":"rh-b9-t1-n0","t":39.5,"dur":0.153333,"midi":85,"vel":0.72},{"id":"rh-b9-t1-n1","t":39.666667,"dur":0.153333,"midi":86,"vel":0.72},{"id":"rh-b9-t1-n2","t":39.833333,"dur":0.153333,"midi":88,"vel":0.72},{"id":"lh-97","t":40.0,"dur":0.23,"midi":65,"vel":0.52},{"id":"rh-129","t":40.0,"dur":0.46,"midi":86,"vel":0.72},{"id":"lh-98","t":40.25,"dur":0.23,"midi":70,"vel":0.52},{"id":"lh-99","t":40.5,"dur":0.23,"midi":69,"vel":0.52},{"id":"rh-130","t":40.5,"dur":0.46,"midi":85,"vel":0.72},{"id":"lh-100","t":40.75,"dur":0.23,"midi":67,"vel":0.52},{"id":"lh-b10-t0-n0","t":41.0,"dur":0.153333,"midi":65,"vel":0.52},{"id":"rh-131","t":41.0,"dur":0.46,"midi":86,"vel":0.72},{"id":"lh-b10-t0-n1","t":41.166667,"dur":0.153333,"midi":67,"vel":0.52},{"id":"lh-b10-t0-n2","t":41.333333,"dur":0.153333,"midi":69,"vel":0.52},{"id":"lh-b10-t1-n0","t":41.5,"dur":0.153333,"midi":67,"vel":0.52},{"id":"rh-132","t":41.5,"dur":0.46,"midi":88,"vel":0.72},{"id":"lh-b10-t1-n1","t":41.666667,"dur":0.153333,"midi":69,"vel":0.52},{"id":"lh-b10-t1-n2","t":41.833333,"dur":0.153333,"midi":70,"vel":0.52},{"id":"lh-105","t":42.0,"dur":0.23,"midi":69,"vel":0.52},{"id":"rh-133","t":42.0,"dur":0.46,"midi":89,"vel":0.72},{"id":"lh-106","t":42.25,"dur":0.23,"midi":67,"vel":0.52},{"id":"lh-107","t":42.5,"dur":0.23,"midi":65,"vel":0.52},{"id":"rh-134","t":42.5,"dur":0.46,"midi":81,"vel":0.72},{"id":"lh-108","t":42.75,"dur":0.23,"midi":64,"vel":0.52},{"id":"lh-b10-t2-n0","t":43.0,"dur":0.153333,"midi":62,"vel":0.52},{"id":"rh-135","t":43.0,"dur":0.46,"midi":83,"vel":0.72},{"id":"lh-b10-t2-n1","t":43.166667,"dur":0.153333,"midi":64,"vel":0.52},{"id":"lh-b10-t2-n2","t":43.333333,"dur":0.153333,"midi":65,"vel":0.52},{"id":"lh-b10-t3-n0","t":43.5,"dur":0.153333,"midi":64,"vel":0.52},{"id":"rh-136","t":43.5,"dur":0.46,"midi":85,"vel":0.72},{"id":"lh-b10-t3-n1","t":43.666667,"dur":0.153333,"midi":65,"vel":0.52},{"id":"lh-b10-t3-n2","t":43.833333,"dur":0.153333,"midi":67,"vel":0.52},{"id":"lh-113","t":44.0,"dur":0.23,"midi":65,"vel":0.52},{"id":"rh-137","t":44.0,"dur":0.46,"midi":86,"vel":0.72},{"id":"lh-114","t":44.25,"dur":0.23,"midi":64,"vel":0.52},{"id":"lh-115","t":44.5,"dur":0.23,"midi":62,"vel":0.52},{"id":"rh-138","t":44.5,"dur":0.46,"midi":78,"vel":0.72},{"id":"lh-116","t":44.75,"dur":0.23,"midi":60,"vel":0.52},{"id":"lh-b11-t0-n0","t":45.0,"dur":0.153333,"midi":59,"vel":0.52},{"id":"rh-139","t":45.0,"dur":0.46,"midi":80,"vel":0.72},{"id":"lh-b11-t0-n1","t":45.166667,"dur":0.153333,"midi":60,"vel":0.52},{"id":"lh-b11-t0-n2","t":45.333333,"dur":0.153333,"midi":62,"vel":0.52},{"id":"lh-b11-t1-n0","t":45.5,"dur":0.153333,"midi":60,"vel":0.52},{"id":"rh-140","t":45.5,"dur":0.46,"midi":81,"vel":0.72},{"id":"lh-b11-t1-n1","t":45.666667,"dur":0.153333,"midi":62,"vel":0.52},{"id":"lh-b11-t1-n2","t":45.833333,"dur":0.153333,"midi":64,"vel":0.52},{"id":"lh-121","t":46.0,"dur":0.23,"midi":62,"vel":0.52},{"id":"lh-122","t":46.25,"dur":0.23,"midi":60,"vel":0.52},{"id":"lh-123","t":46.5,"dur":0.23,"midi":59,"vel":0.52},{"id":"lh-124","t":46.75,"dur":0.23,"midi":57,"vel":0.52},{"id":"lh-b11-t2-n0","t":47.0,"dur":0.153333,"midi":56,"vel":0.52},{"id":"rh-fix12-n0","t":47.0,"dur":0.153333,"midi":84,"vel":0.72},{"id":"lh-b11-t2-n1","t":47.166667,"dur":0.153333,"midi":57,"vel":0.52},{"id":"rh-fix12-n1","t":47.166667,"dur":0.153333,"midi":86,"vel":0.72},{"id":"lh-b11-t2-n2","t":47.333333,"dur":0.153333,"midi":59,"vel":0.52},{"id":"rh-fix12-n2","t":47.333333,"dur":0.153333,"midi":84,"vel":0.72},{"id":"lh-b11-t3-n0","t":47.5,"dur":0.153333,"midi":57,"vel":0.52},{"id":"rh-fix12-n3","t":47.5,"dur":0.153333,"midi":84,"vel":0},{"id":"lh-b11-t3-n1","t":47.666667,"dur":0.153333,"midi":59,"vel":0.52},{"id":"rh-fix12-n4","t":47.666667,"dur":0.153333,"midi":83,"vel":0.72},{"id":"lh-b11-t3-n2","t":47.833333,"dur":0.153333,"midi":60,"vel":0.52},{"id":"rh-fix12-n5","t":47.833333,"dur":0.153333,"midi":81,"vel":0.72},{"id":"lh-129","t":48.0,"dur":0.46,"midi":59,"vel":0.52},{"id":"rh-144","t":48.25,"dur":0.23,"midi":76,"vel":0.72},{"id":"lh-130","t":48.5,"dur":0.46,"midi":52,"vel":0.52},{"id":"rh-145","t":48.5,"dur":0.23,"midi":78,"vel":0.72},{"id":"rh-146","t":48.75,"dur":0.23,"midi":80,"vel":0.72},{"id":"lh-131","t":49.0,"dur":0.115,"midi":62,"vel":0.52},{"id":"rh-b12-t0-n0","t":49.0,"dur":0.153333,"midi":81,"vel":0.72},{"id":"lh-132","t":49.125,"dur":0.115,"midi":60,"vel":0.52},{"id":"rh-b12-t0-n1","t":49.166667,"dur":0.153333,"midi":79,"vel":0.72},{"id":"lh-133","t":49.25,"dur":0.46,"midi":62,"vel":0.52},{"id":"rh-b12-t0-n2","t":49.333333,"dur":0.153333,"midi":78,"vel":0.72},{"id":"rh-b12-t1-n0","t":49.5,"dur":0.153333,"midi":80,"vel":0.72},{"id":"rh-b12-t1-n1","t":49.666667,"dur":0.153333,"midi":78,"vel":0.72},{"id":"lh-134","t":49.75,"dur":0.23,"midi":64,"vel":0.52},{"id":"rh-b12-t1-n2","t":49.833333,"dur":0.153333,"midi":76,"vel":0.72},{"id":"lh-135","t":50.0,"dur":0.23,"midi":60,"vel":0.52},{"id":"rh-151","t":50.0,"dur":0.23,"midi":88,"vel":0.72},{"id":"lh-136","t":50.25,"dur":0.23,"midi":59,"vel":0.52},{"id":"rh-152","t":50.25,"dur":0.23,"midi":86,"vel":0.72},{"id":"lh-137","t":50.5,"dur":0.23,"midi":57,"vel":0.52},{"id":"rh-153","t":50.5,"dur":0.23,"midi":84,"vel":0.72},{"id":"lh-138","t":50.75,"dur":0.23,"midi":55,"vel":0.52},{"id":"rh-154","t":50.75,"dur":0.23,"midi":88,"vel":0.72},{"id":"lh-b12-t0-n0","t":51.0,"dur":0.153333,"midi":54,"vel":0.52},{"id":"rh-155","t":51.0,"dur":0.23,"midi":86,"vel":0.72},{"id":"lh-b12-t0-n1","t":51.166667,"dur":0.153333,"midi":56,"vel":0.52},{"id":"rh-156","t":51.25,"dur":0.23,"midi":84,"vel":0.72},{"id":"lh-b12-t0-n2","t":51.333333,"dur":0.153333,"midi":57,"vel":0.52},{"id":"lh-b12-t1-n0","t":51.5,"dur":0.153333,"midi":56,"vel":0.52},{"id":"rh-157","t":51.5,"dur":0.23,"midi":83,"vel":0.72},{"id":"lh-b12-t1-n1","t":51.666667,"dur":0.153333,"midi":57,"vel":0.52},{"id":"rh-158","t":51.75,"dur":0.23,"midi":86,"vel":0.72},{"id":"lh-b12-t1-n2","t":51.833333,"dur":0.153333,"midi":59,"vel":0.52},{"id":"lh-143","t":52.0,"dur":0.23,"midi":57,"vel":0.52},{"id":"rh-159","t":52.0,"dur":0.23,"midi":84,"vel":0.72},{"id":"lh-144","t":52.25,"dur":0.23,"midi":60,"vel":0.52},{"id":"rh-160","t":52.25,"dur":0.23,"midi":93,"vel":0.72},{"id":"lh-145","t":52.5,"dur":0.23,"midi":59,"vel":0.52},{"id":"rh-161","t":52.5,"dur":0.23,"midi":92,"vel":0.72},{"id":"lh-146","t":52.75,"dur":0.23,"midi":62,"vel":0.52},{"id":"rh-162","t":52.75,"dur":0.23,"midi":95,"vel":0.72},{"id":"lh-147","t":53.0,"dur":0.23,"midi":60,"vel":0.52},{"id":"rh-b13-t0-n0","t":53.0,"dur":0.153333,"midi":93,"vel":0.72},{"id":"rh-b13-t0-n1","t":53.166667,"dur":0.153333,"midi":91,"vel":0.72},{"id":"lh-148","t":53.25,"dur":0.23,"midi":64,"vel":0.52},{"id":"rh-b13-t0-n2","t":53.333333,"dur":0.153333,"midi":88,"vel":0.72},{"id":"lh-149","t":53.5,"dur":0.23,"midi":62,"vel":0.52},{"id":"rh-b13-t1-n0","t":53.5,"dur":0.153333,"midi":89,"vel":0.72},{"id":"rh-b13-t1-n1","t":53.666667,"dur":0.153333,"midi":88,"vel":0.72},{"id":"lh-150","t":53.75,"dur":0.23,"midi":65,"vel":0.52},{"id":"rh-b13-t1-n2","t":53.833333,"dur":0.153333,"midi":86,"vel":0.72},{"id":"lh-151","t":54.0,"dur":0.46,"midi":64,"vel":0.52},{"id":"rh-167","t":54.0,"dur":0.23,"midi":80,"vel":0.72},{"id":"rh-168","t":54.25,"dur":0.23,"midi":89,"vel":0.72},{"id":"lh-152","t":54.5,"dur":0.46,"midi":57,"vel":0.52},{"id":"rh-169","t":54.5,"dur":0.23,"midi":88,"vel":0.72},{"id":"rh-170","t":54.75,"dur":0.23,"midi":86,"vel":0.72},{"id":"lh-153","t":55.0,"dur":0.46,"midi":64,"vel":0.52},{"id":"rh-fix14-n0","t":55.0,"dur":0.153333,"midi":84,"vel":0.72},{"id":"rh-fix14-n1","t":55.166667,"dur":0.153333,"midi":86,"vel":0.72},{"id":"rh-fix14-n2","t":55.333333,"dur":0.153333,"midi":84,"vel":0.72},{"id":"lh-154","t":55.5,"dur":0.46,"midi":52,"vel":0.52},{"id":"rh-fix14-n3","t":55.5,"dur":0.153333,"midi":84,"vel":0},{"id":"rh-fix14-n4","t":55.666667,"dur":0.153333,"midi":83,"vel":0.72},{"id":"rh-fix14-n5","t":55.833333,"dur":0.153333,"midi":81,"vel":0.72},{"id":"lh-155","t":56.0,"dur":0.46,"midi":57,"vel":0.52},{"id":"rh-174","t":56.0,"dur":0.23,"midi":81,"vel":0.72},{"id":"rh-175","t":56.25,"dur":0.23,"midi":93,"vel":0.72},{"id":"lh-156","t":56.5,"dur":0.46,"midi":45,"vel":0.52},{"id":"rh-176","t":56.5,"dur":0.23,"midi":91,"vel":0.72},{"id":"rh-177","t":56.75,"dur":0.23,"midi":89,"vel":0.72},{"id":"rh-b14-t0-n0","t":57.0,"dur":0.153333,"midi":88,"vel":0.72},{"id":"rh-b14-t0-n1","t":57.166667,"dur":0.153333,"midi":89,"vel":0.72},{"id":"rh-b14-t0-n2","t":57.333333,"dur":0.153333,"midi":91,"vel":0.72},{"id":"rh-b14-t1-n0","t":57.5,"dur":0.153333,"midi":89,"vel":0.72},{"id":"rh-b14-t1-n1","t":57.666667,"dur":0.153333,"midi":91,"vel":0.72},{"id":"rh-b14-t1-n2","t":57.833333,"dur":0.153333,"midi":93,"vel":0.72},{"id":"rh-182","t":58.0,"dur":2.031667,"midi":91,"vel":0.72},{"id":"lh-157","t":58.25,"dur":0.23,"midi":64,"vel":0.52},{"id":"lh-158","t":58.5,"dur":0.23,"midi":62,"vel":0.52},{"id":"lh-159","t":58.75,"dur":0.23,"midi":60,"vel":0.52},{"id":"lh-b14-t0-n0","t":59.0,"dur":0.153333,"midi":59,"vel":0.52},{"id":"lh-b14-t0-n1","t":59.166667,"dur":0.153333,"midi":61,"vel":0.52},{"id":"lh-b14-t0-n2","t":59.333333,"dur":0.153333,"midi":62,"vel":0.52},{"id":"lh-b14-t1-n0","t":59.5,"dur":0.153333,"midi":61,"vel":0.52},{"id":"lh-b14-t1-n1","t":59.666667,"dur":0.153333,"midi":62,"vel":0.52},{"id":"lh-b14-t1-n2","t":59.833333,"dur":0.153333,"midi":64,"vel":0.52},{"id":"lh-164","t":60.0,"dur":2.031667,"midi":62,"vel":0.52},{"id":"rh-183","t":60.25,"dur":0.23,"midi":88,"vel":0.72},{"id":"rh-184","t":60.5,"dur":0.23,"midi":89,"vel":0.72},{"id":"rh-185","t":60.75,"dur":0.23,"midi":91,"vel":0.72},{"id":"rh-b15-t0-n0","t":61.0,"dur":0.153333,"midi":93,"vel":0.72},{"id":"rh-b15-t0-n1","t":61.166667,"dur":0.153333,"midi":91,"vel":0.72},{"id":"rh-b15-t0-n2","t":61.333333,"dur":0.153333,"midi":89,"vel":0.72},{"id":"rh-b15-t1-n0","t":61.5,"dur":0.153333,"midi":91,"vel":0.72},{"id":"rh-b15-t1-n1","t":61.666667,"dur":0.153333,"midi":89,"vel":0.72},{"id":"rh-b15-t1-n2","t":61.833333,"dur":0.153333,"midi":88,"vel":0.72},{"id":"rh-190","t":62.0,"dur":2.07,"midi":89,"vel":0.72},{"id":"lh-165","t":62.25,"dur":0.23,"midi":57,"vel":0.52},{"id":"lh-166","t":62.5,"dur":0.23,"midi":59,"vel":0.52},{"id":"lh-167","t":62.75,"dur":0.23,"midi":60,"vel":0.52},{"id":"lh-b15-t0-n0","t":63.0,"dur":0.153333,"midi":62,"vel":0.52},{"id":"lh-b15-t0-n1","t":63.166667,"dur":0.153333,"midi":60,"vel":0.52},{"id":"lh-b15-t0-n2","t":63.333333,"dur":0.153333,"midi":59,"vel":0.52},{"id":"lh-b15-t1-n0","t":63.5,"dur":0.153333,"midi":60,"vel":0.52},{"id":"lh-b15-t1-n1","t":63.666667,"dur":0.153333,"midi":59,"vel":0.52},{"id":"lh-b15-t1-n2","t":63.833333,"dur":0.153333,"midi":57,"vel":0.52},{"id":"lh-172","t":64.0,"dur":2.031667,"midi":59,"vel":0.52},{"id":"rh-191","t":64.25,"dur":0.23,"midi":91,"vel":0.72},{"id":"rh-192","t":64.5,"dur":0.23,"midi":89,"vel":0.72},{"id":"rh-193","t":64.75,"dur":0.23,"midi":88,"vel":0.72},{"id":"rh-b16-t0-n0","t":65.0,"dur":0.153333,"midi":86,"vel":0.72},{"id":"rh-b16-t0-n1","t":65.166667,"dur":0.153333,"midi":88,"vel":0.72},{"id":"rh-b16-t0-n2","t":65.333333,"dur":0.153333,"midi":89,"vel":0.72},{"id":"rh-b16-t1-n0","t":65.5,"dur":0.153333,"midi":88,"vel":0.72},{"id":"rh-b16-t1-n1","t":65.666667,"dur":0.153333,"midi":89,"vel":0.72},{"id":"rh-b16-t1-n2","t":65.833333,"dur":0.153333,"midi":91,"vel":0.72},{"id":"rh-198","t":66.0,"dur":2.031667,"midi":89,"vel":0.72},{"id":"lh-173","t":66.25,"dur":0.23,"midi":62,"vel":0.52},{"id":"lh-174","t":66.5,"dur":0.23,"midi":60,"vel":0.52},{"id":"lh-175","t":66.75,"dur":0.23,"midi":59,"vel":0.52},{"id":"lh-b16-t0-n0","t":67.0,"dur":0.153333,"midi":57,"vel":0.52},{"id":"lh-b16-t0-n1","t":67.166667,"dur":0.153333,"midi":59,"vel":0.52},{"id":"lh-b16-t0-n2","t":67.333333,"dur":0.153333,"midi":60,"vel":0.52},{"id":"lh-b16-t1-n0","t":67.5,"dur":0.153333,"midi":59,"vel":0.52},{"id":"lh-b16-t1-n1","t":67.666667,"dur":0.153333,"midi":60,"vel":0.52},{"id":"lh-b16-t1-n2","t":67.833333,"dur":0.153333,"midi":62,"vel":0.52},{"id":"lh-180","t":68.0,"dur":2.031667,"midi":60,"vel":0.52},{"id":"rh-199","t":68.25,"dur":0.23,"midi":86,"vel":0.72},{"id":"rh-200","t":68.5,"dur":0.23,"midi":88,"vel":0.72},{"id":"rh-201","t":68.75,"dur":0.23,"midi":89,"vel":0.72},{"id":"rh-b17-t0-n0","t":69.0,"dur":0.153333,"midi":91,"vel":0.72},{"id":"rh-b17-t0-n1","t":69.166667,"dur":0.153333,"midi":89,"vel":0.72},{"id":"rh-b17-t0-n2","t":69.333333,"dur":0.153333,"midi":88,"vel":0.72},{"id":"rh-b17-t1-n0","t":69.5,"dur":0.153333,"midi":89,"vel":0.72},{"id":"rh-b17-t1-n1","t":69.666667,"dur":0.153333,"midi":88,"vel":0.72},{"id":"rh-b17-t1-n2","t":69.833333,"dur":0.153333,"midi":86,"vel":0.72},{"id":"rh-206","t":70.0,"dur":2.031667,"midi":88,"vel":0.72},{"id":"lh-181","t":70.25,"dur":0.23,"midi":55,"vel":0.52},{"id":"lh-182","t":70.5,"dur":0.23,"midi":57,"vel":0.52},{"id":"lh-183","t":70.75,"dur":0.23,"midi":58,"vel":0.52},{"id":"lh-b17-t0-n0","t":71.0,"dur":0.153333,"midi":60,"vel":0.52},{"id":"lh-b17-t0-n1","t":71.166667,"dur":0.153333,"midi":58,"vel":0.52},{"id":"lh-b17-t0-n2","t":71.333333,"dur":0.153333,"midi":57,"vel":0.52},{"id":"lh-b17-t1-n0","t":71.5,"dur":0.153333,"midi":58,"vel":0.52},{"id":"lh-b17-t1-n1","t":71.666667,"dur":0.153333,"midi":57,"vel":0.52},{"id":"lh-b17-t1-n2","t":71.833333,"dur":0.153333,"midi":55,"vel":0.52},{"id":"lh-188","t":72.0,"dur":0.46,"midi":57,"vel":0.52},{"id":"rh-207","t":72.25,"dur":0.23,"midi":84,"vel":0.72},{"id":"lh-189","t":72.5,"dur":0.46,"midi":58,"vel":0.52},{"id":"rh-208","t":72.5,"dur":0.23,"midi":86,"vel":0.72},{"id":"rh-209","t":72.75,"dur":0.23,"midi":88,"vel":0.72},{"id":"lh-190","t":73.0,"dur":0.46,"midi":57,"vel":0.52},{"id":"rh-b18-t0-n0","t":73.0,"dur":0.153333,"midi":89,"vel":0.72},{"id":"rh-b18-t0-n1","t":73.166667,"dur":0.153333,"midi":88,"vel":0.72},{"id":"rh-b18-t0-n2","t":73.333333,"dur":0.153333,"midi":86,"vel":0.72},{"id":"lh-191","t":73.5,"dur":0.46,"midi":55,"vel":0.52},{"id":"rh-b18-t1-n0","t":73.5,"dur":0.153333,"midi":88,"vel":0.72},{"id":"rh-b18-t1-n1","t":73.666667,"dur":0.153333,"midi":86,"vel":0.72},{"id":"rh-b18-t1-n2","t":73.833333,"dur":0.153333,"midi":84,"vel":0.72},{"id":"lh-192","t":74.0,"dur":0.46,"midi":53,"vel":0.52},{"id":"rh-214","t":74.0,"dur":0.23,"midi":86,"vel":0.72},{"id":"rh-215","t":74.25,"dur":0.23,"midi":88,"vel":0.72},{"id":"lh-193","t":74.5,"dur":0.46,"midi":62,"vel":0.52},{"id":"rh-216","t":74.5,"dur":0.23,"midi":89,"vel":0.72},{"id":"rh-217","t":74.75,"dur":0.23,"midi":91,"vel":0.72},{"id":"lh-194","t":75.0,"dur":0.46,"midi":60,"vel":0.52},{"id":"rh-b18-t2-n0","t":75.0,"dur":0.153333,"midi":93,"vel":0.72},{"id":"rh-b18-t2-n1","t":75.166667,"dur":0.153333,"midi":91,"vel":0.72},{"id":"rh-b18-t2-n2","t":75.333333,"dur":0.153333,"midi":89,"vel":0.72},{"id":"lh-195","t":75.5,"dur":0.46,"midi":58,"vel":0.52},{"id":"rh-b18-t3-n0","t":75.5,"dur":0.153333,"midi":91,"vel":0.72},{"id":"rh-b18-t3-n1","t":75.666667,"dur":0.153333,"midi":89,"vel":0.72},{"id":"rh-b18-t3-n2","t":75.833333,"dur":0.153333,"midi":88,"vel":0.72},{"id":"lh-196","t":76.0,"dur":0.46,"midi":57,"vel":0.52},{"id":"rh-222","t":76.0,"dur":0.23,"midi":89,"vel":0.72},{"id":"rh-223","t":76.25,"dur":0.23,"midi":91,"vel":0.72},{"id":"lh-197","t":76.5,"dur":0.46,"midi":65,"vel":0.52},{"id":"rh-224","t":76.5,"dur":0.23,"midi":93,"vel":0.72},{"id":"rh-225","t":76.75,"dur":0.23,"midi":95,"vel":0.72},{"id":"lh-198","t":77.0,"dur":0.46,"midi":64,"vel":0.52},{"id":"rh-b19-t0-n0","t":77.0,"dur":0.153333,"midi":96,"vel":0.72},{"id":"rh-b19-t0-n1","t":77.166667,"dur":0.153333,"midi":95,"vel":0.72},{"id":"rh-b19-t0-n2","t":77.333333,"dur":0.153333,"midi":93,"vel":0.72},{"id":"lh-199","t":77.5,"dur":0.46,"midi":62,"vel":0.52},{"id":"rh-b19-t1-n0","t":77.5,"dur":0.153333,"midi":95,"vel":0.72},{"id":"rh-b19-t1-n1","t":77.666667,"dur":0.153333,"midi":93,"vel":0.72},{"id":"rh-b19-t1-n2","t":77.833333,"dur":0.153333,"midi":91,"vel":0.72},{"id":"lh-200","t":78.0,"dur":0.23,"midi":64,"vel":0.52},{"id":"rh-230","t":78.0,"dur":0.46,"midi":96,"vel":0.72},{"id":"lh-201","t":78.25,"dur":0.23,"midi":50,"vel":0.52},{"id":"lh-202","t":78.5,"dur":0.23,"midi":52,"vel":0.52},{"id":"rh-231","t":78.5,"dur":0.46,"midi":91,"vel":0.72},{"id":"lh-203","t":78.75,"dur":0.23,"midi":53,"vel":0.52},{"id":"lh-b19-t0-n0","t":79.0,"dur":0.153333,"midi":55,"vel":0.52},{"id":"rh-232","t":79.0,"dur":0.46,"midi":88,"vel":0.72},{"id":"lh-b19-t0-n1","t":79.166667,"dur":0.153333,"midi":53,"vel":0.52},{"id":"lh-b19-t0-n2","t":79.333333,"dur":0.153333,"midi":52,"vel":0.52},{"id":"lh-b19-t1-n0","t":79.5,"dur":0.153333,"midi":53,"vel":0.52},{"id":"rh-233","t":79.5,"dur":0.23,"midi":86,"vel":0.72},{"id":"lh-b19-t1-n1","t":79.666667,"dur":0.153333,"midi":52,"vel":0.52},{"id":"rh-234","t":79.75,"dur":0.23,"midi":84,"vel":0.72},{"id":"lh-b19-t1-n2","t":79.833333,"dur":0.153333,"midi":50,"vel":0.52},{"id":"lh-208","t":80.0,"dur":0.46,"midi":52,"vel":0.52},{"id":"rh-235","t":80.0,"dur":0.23,"midi":84,"vel":0.72},{"id":"rh-236","t":80.25,"dur":0.23,"midi":82,"vel":0.72},{"id":"lh-209","t":80.5,"dur":0.46,"midi":48,"vel":0.52},{"id":"rh-237","t":80.5,"dur":0.23,"midi":81,"vel":0.72},{"id":"rh-238","t":80.75,"dur":0.23,"midi":79,"vel":0.72},{"id":"lh-210","t":81.0,"dur":0.46,"midi":50,"vel":0.52},{"id":"rh-b20-t0-n0","t":81.0,"dur":0.153333,"midi":77,"vel":0.72},{"id":"rh-b20-t0-n1","t":81.166667,"dur":0.153333,"midi":79,"vel":0.72},{"id":"rh-b20-t0-n2","t":81.333333,"dur":0.153333,"midi":81,"vel":0.72},{"id":"lh-211","t":81.5,"dur":0.46,"midi":52,"vel":0.52},{"id":"rh-b20-t1-n0","t":81.5,"dur":0.153333,"midi":79,"vel":0.72},{"id":"rh-b20-t1-n1","t":81.666667,"dur":0.153333,"midi":81,"vel":0.72},{"id":"rh-b20-t1-n2","t":81.833333,"dur":0.153333,"midi":82,"vel":0.72},{"id":"lh-212","t":82.0,"dur":0.23,"midi":53,"vel":0.52},{"id":"rh-243","t":82.0,"dur":0.23,"midi":81,"vel":0.72},{"id":"lh-213","t":82.25,"dur":0.23,"midi":50,"vel":0.52},{"id":"rh-244","t":82.25,"dur":0.23,"midi":83,"vel":0.72},{"id":"lh-214","t":82.5,"dur":0.23,"midi":52,"vel":0.52},{"id":"rh-245","t":82.5,"dur":0.23,"midi":84,"vel":0.72},{"id":"lh-215","t":82.75,"dur":0.23,"midi":53,"vel":0.52},{"id":"rh-246","t":82.75,"dur":0.23,"midi":76,"vel":0.72},{"id":"lh-216","t":83.0,"dur":0.46,"midi":55,"vel":0.52},{"id":"rh-b20-t2-n0","t":83.0,"dur":0.153333,"midi":74,"vel":0.72},{"id":"rh-b20-t2-n1","t":83.166667,"dur":0.153333,"midi":81,"vel":0.72},{"id":"rh-b20-t2-n2","t":83.333333,"dur":0.153333,"midi":84,"vel":0.72},{"id":"lh-217","t":83.5,"dur":0.46,"midi":43,"vel":0.52},{"id":"rh-b20-t3-n0","t":83.5,"dur":0.153333,"midi":77,"vel":0.72},{"id":"rh-b20-t3-n1","t":83.666667,"dur":0.153333,"midi":81,"vel":0.72},{"id":"rh-b20-t3-n2","t":83.833333,"dur":0.153333,"midi":83,"vel":0.72},{"id":"lh-219","t":84.0,"dur":3.68,"midi":36,"vel":0.52},{"id":"lh-218","t":84.03125,"dur":3.65125,"midi":48,"vel":0.52},{"id":"rh-253","t":84.0625,"dur":3.6225,"midi":76,"vel":0.72},{"id":"rh-252","t":84.09375,"dur":3.59375,"midi":79,"vel":0.72},{"id":"rh-251","t":84.125,"dur":3.565,"midi":84,"vel":0.72}]